<svg id="katman_2" data-name="katman 2" xmlns="http://www.w3.org/2000/svg" width="72.57" height="104.612" viewBox="0 0 72.57 104.612">
  <g id="katman_1" data-name="katman 1">
    <path id="Path_142" data-name="Path 142" d="M36.29,20.19Z" fill="#779f7d"/>
    <path id="Path_143" data-name="Path 143" d="M36.29,20.19Z" fill="#779f7d"/>
    <path id="Path_144" data-name="Path 144" d="M36.29,20.19Z" fill="#779f7d"/>
    <path id="Path_145" data-name="Path 145" d="M36.29,0Z" fill="#779f7d"/>
    <path id="Path_146" data-name="Path 146" d="M36.28,20.19Z" fill="#779f7d"/>
    <path id="Path_147" data-name="Path 147" d="M36.29,0C11.15.05,0,16.65,0,21,0,38.19,1.3,51.1,1.3,51.1s0-16.22,9.83-24.39c9.33-7.76,23.73-6.65,25.16-6.52,1.42-.13,15.82-1.24,25.15,6.52,9.83,8.17,9.83,24.39,9.83,24.39s1.3-12.91,1.3-30.07C72.57,16.65,61.42.05,36.29,0Z" fill="#779f7d"/>
    <path id="Path_148" data-name="Path 148" d="M51.84,94c-10,5.75-15.1-2.13-15.38-2.59-.29.46-5.39,8.34-15.39,2.59-9.74-5.64-10.42-9.16-17.88-18.4,0,0,5.33,21.91,24.87,27.47,6.92,1.59,8.29,1.55,8.4,1.54s1.47,0,8.39-1.54C64.39,97.51,69.72,75.6,69.72,75.6,62.26,84.84,61.58,88.36,51.84,94Z" fill="#779f7d"/>
  </g>
</svg>
