<svg id="katman_2" data-name="katman 2" xmlns="http://www.w3.org/2000/svg" width="84.71" height="96.925" viewBox="0 0 84.71 96.925">
  <g id="katman_1" data-name="katman 1">
    <path id="Path_149" data-name="Path 149" d="M81.2,18.61c.29-8.06-.59-13.92-3.08-18.61,0,0,1.32,24.92-13.92,30.34a63.6,63.6,0,0,1,.14,8.94s-7.18-8.5-12.16-11a56.54,56.54,0,0,1-9.82.14,56.541,56.541,0,0,1-9.82-.14c-5,2.49-12.17,11-12.17,11a64.141,64.141,0,0,1,.15-8.94C5.28,24.92,6.6,0,6.6,0,4.1,4.69,3.22,10.55,3.52,18.61S.15,40.6,0,47.63C1,76.8,12.46,81.2,17.15,83.69a5.53,5.53,0,0,1-.44-3.52s.59,5.57,9.09,11.58,16.56,5.13,16.56,5.13,8.06.88,16.56-5.13S68,80.17,68,80.17a5.53,5.53,0,0,1-.44,3.52c4.69-2.49,16.12-6.89,17.15-36.06C84.57,40.6,80.91,26.68,81.2,18.61ZM46.46,47.2c-2.49-2.2-4.1-2.06-4.1-2.06S40.75,45,38.25,47.2c-5.86,4.69-10.11,1.31-12.16-1.91,2.49-6.16,16.27-8.06,16.27-8.06s13.78,1.9,16.27,8.06C56.58,48.51,52.33,51.89,46.46,47.2Z" fill="#779f7d"/>
  </g>
</svg>
