<svg xmlns="http://www.w3.org/2000/svg" width="89.322" height="92.021" viewBox="0 0 89.322 92.021">
  <g id="katman_2" data-name="katman 2" transform="translate(-0.005 0.021)">
    <g id="katman_1" data-name="katman 1">
      <path id="Path_150" data-name="Path 150" d="M8.08,90.92S-6.95,71.13,4,47c.4-9.5-1.1-13.93-1.85-14.76,3.42,2.17,5.43,3.17,5.43,3.17s-4.34-11.52.08-17.19c-.67,4.17,2,9,3.5,9.51.09-8.35,1.34-14.52,2.09-15.61.08,2.76.34,13.27,7.51,8.68,6.43-4,.25-10.26-1.67-10.85,2.59-.58,8.1.84,11.94,2.34C27.52,6.11,28.36,2.19,21.43,0c11.19-.17,19.2.42,28.71,12.44-.16-5.18,0-7.18,0-7.18S57.66,9.37,60,12.79c-.5-7.18,3.26-11,3.26-11s-.42,11.52,4.42,15.53S88.73,29.82,89.3,58s-8.11,34-8.11,34l-1-1.61s-1.33-16.11-2.75-21.7-5.18-24-15-25a22.22,22.22,0,0,0-18.69,7.26,19.16,19.16,0,0,0-17.28-7.34C17,44.59,13.75,54.94,12.92,59.2s-3.09,23-2.76,26S8.08,90.92,8.08,90.92Z" fill="#779f7d"/>
    </g>
  </g>
</svg>
