<svg id="katman_2" data-name="katman 2" xmlns="http://www.w3.org/2000/svg" width="263.961" height="218.32" viewBox="0 0 263.961 218.32">
  <g id="katman_1" data-name="katman 1" transform="translate(0 0)">
    <path id="Path_74" data-name="Path 74" d="M709.967,907.025h20.19a31.465,31.465,0,0,1-9.9-3.605,39.3,39.3,0,0,1-10.293,3.605" transform="translate(-588.082 -748.315)" fill="#779e7c"/>
    <path id="Path_75" data-name="Path 75" d="M666.04,327.617V215.376c-6.467-4.2-16.731-4.613-19.572-4.636v2.04q5.394.233,7.51,1.339,3.456,1.808,3.458,7.106L657,321.78q0,5.339-3.636,7.211-2.232,1.114-7.331,1.233v1.8c10.828.029,18.027-3.351,20.007-4.407" transform="translate(-535.128 -174.559)" fill="#779e7c"/>
    <path id="Path_76" data-name="Path 76" d="M775,327.617V215.376c6.466-4.2,16.729-4.613,19.572-4.636v2.04q-5.4.233-7.508,1.339-3.46,1.808-3.459,7.106l.44,100.555q0,5.339,3.636,7.211,2.232,1.114,7.329,1.233v1.8c-10.828.029-18.027-3.351-20-4.407" transform="translate(-641.955 -174.559)" fill="#779e7c"/>
    <path id="Path_77" data-name="Path 77" d="M733.37,204.84H714.85a29.486,29.486,0,0,1,9.051,3.628,37.493,37.493,0,0,1,9.469-3.628" transform="translate(-592.132 -169.672)" fill="#779e7c"/>
    <path id="Path_78" data-name="Path 78" d="M497.65,772.306h22.663a33.37,33.37,0,0,1-11.115-4.2,41.758,41.758,0,0,1-11.539,4.2" transform="translate(-412.222 -636.236)" fill="#779e7c"/>
    <path id="Path_79" data-name="Path 79" d="M469.381,331.856c-5.915-3.777-14.748-4.431-18.37-4.536v1.758q5.336.515,7.154,1.571,2.991,1.808,2.991,6.867V395.7q0,5.219-3.343,7.094-2.005,1.118-6.812,1.349v1.775a44.013,44.013,0,0,0,18.37-4.957Z" transform="translate(-373.582 -271.124)" fill="#779e7c"/>
    <path id="Path_80" data-name="Path 80" d="M526.668,319.8H506a30.861,30.861,0,0,1,10.148,3.813,38.53,38.53,0,0,1,10.526-3.813" transform="translate(-419.139 -264.895)" fill="#779e7c"/>
    <path id="Path_81" data-name="Path 81" d="M580.887,362.232V337.308q0-5.183,3.4-7.048,2.06-1.107,7.331-1.4v-1.8a41.875,41.875,0,0,0-19.919,4.625v69.061c6.373,4.136,15.926,4.879,19.916,5v-1.82q-4.979-.172-7.1-1.233-3.636-1.877-3.636-7.211V367.8h12.533v-5.571Z" transform="translate(-473.559 -270.908)" fill="#779e7c"/>
    <path id="Path_82" data-name="Path 82" d="M930.647,772.306H908a33.355,33.355,0,0,0,11.115-4.2,41.782,41.782,0,0,0,11.539,4.2" transform="translate(-752.121 -636.236)" fill="#779e7c"/>
    <path id="Path_83" data-name="Path 83" d="M979.51,331.856c5.913-3.777,14.746-4.431,18.37-4.536v1.758q-5.336.515-7.156,1.571-2.991,1.808-2.991,6.867V395.7q0,5.219,3.344,7.094,1.993,1.118,6.8,1.349v1.775a44.013,44.013,0,0,1-18.37-4.957Z" transform="translate(-811.354 -271.124)" fill="#779e7c"/>
    <path id="Path_84" data-name="Path 84" d="M911.19,319.8h20.673a30.91,30.91,0,0,0-10.147,3.813A38.579,38.579,0,0,0,911.19,319.8" transform="translate(-754.763 -264.895)" fill="#779e7c"/>
    <path id="Path_85" data-name="Path 85" d="M851.842,362.232V337.308q0-5.183-3.4-7.048-2.06-1.107-7.331-1.4v-1.8a42.074,42.074,0,0,1,19.916,4.62v69.066c-6.375,4.136-15.926,4.879-19.916,5v-1.82q4.979-.172,7.1-1.233,3.635-1.877,3.635-7.211V367.8H839.3v-5.571Z" transform="translate(-695.216 -270.908)" fill="#779e7c"/>
    <path id="Path_86" data-name="Path 86" d="M662.994,29.752h-3.1c-1.519.009-4.383.014-8.675,0-5.29-.027-6.558-.055-7.049-.594a1.136,1.136,0,0,1-.2-.924c.1-1.114-.034-4.993-.036-5.03-.7-6.215-2.747-11.318-6.09-15.144-.117-.13-.2-.23-.254-.3a1.214,1.214,0,0,1,.273-1.734.278.278,0,0,1,.134-.055c3.506-.482,6.117.094,7.688,1.693a5.323,5.323,0,0,1,1.47,3.144,4.276,4.276,0,0,1,5.456,2.455c.805,1.808.687,3.978-.28,5.049a1.945,1.945,0,0,0-.6,2.06,3.12,3.12,0,0,0,2.766,1.5c.575.029.953-.084,1.143-.362.565-.829-.287-3.209-1.2-5.576-1.612-4.132.609-8.042,2.077-10.627l.091-.158c1.437-2.555,3.039-5,3.056-5.02a.275.275,0,0,1,.306-.115.248.248,0,0,1,.1.052.251.251,0,0,1,.057.064c.017.024,1.619,2.465,3.063,5.012l.091.158c1.47,2.586,3.69,6.495,2.079,10.627-.922,2.368-1.775,4.749-1.2,5.578.189.276.565.391,1.142.361a3.111,3.111,0,0,0,2.766-1.5,1.942,1.942,0,0,0-.6-2.06c-.965-1.071-1.085-3.243-.28-5.049a4.263,4.263,0,0,1,5.449-2.462A5.323,5.323,0,0,1,674.1,7.65c1.569-1.6,4.182-2.175,7.688-1.693a.271.271,0,0,1,.134.055,1.21,1.21,0,0,1,.275,1.734c-.053.069-.139.172-.254.3-3.338,3.827-5.388,8.928-6.093,15.165,0,.017-.136,3.9-.034,5.01a1.142,1.142,0,0,1-.2.924c-.494.539-1.76.567-7.051.594-2.246.012-4.1.015-5.575.015" transform="translate(-527.915 0.001)" fill="#779e7c"/>
    <path id="Path_87" data-name="Path 87" d="M20.508,1027.753q0,2.132.014,3.8a24.586,24.586,0,0,0,.134,2.618,3.286,3.286,0,0,0,.266,1.1,1.033,1.033,0,0,0,.888.532c.218.038.458.069.726.089s.467.029.606.029.237.06.237.172c0,.156-.16.235-.474.235-.414,0-.829,0-1.245-.014l-1.138-.029c-.343-.01-.63-.019-.858-.031l-.4-.014-.4.014c-.227.012-.488.021-.785.031l-.917.029c-.314.01-.582.014-.8.014-.316,0-.472-.079-.472-.235,0-.118.077-.172.237-.172a3.424,3.424,0,0,0,.443-.029,3.341,3.341,0,0,0,.445-.089.776.776,0,0,0,.606-.532,5.286,5.286,0,0,0,.252-1.1,24.21,24.21,0,0,0,.132-2.618q.015-1.674.015-3.8v-3.107a.158.158,0,0,0-.172-.172H5.3a.158.158,0,0,0-.172.172v3.107q0,2.132.017,3.8a23.774,23.774,0,0,0,.132,2.618,3.286,3.286,0,0,0,.266,1.1,1.035,1.035,0,0,0,.888.532c.216.038.458.069.725.089s.469.029.608.029.235.06.235.172c0,.156-.158.235-.472.235-.414,0-.829,0-1.243-.014l-1.138-.029c-.343-.01-.632-.019-.858-.031l-.4-.014-.4.014c-.227.012-.488.021-.785.031l-.917.029c-.316.01-.582.014-.8.014-.318,0-.474-.079-.474-.235,0-.118.079-.172.237-.172a3.45,3.45,0,0,0,.445-.029,3.316,3.316,0,0,0,.443-.089.776.776,0,0,0,.606-.532,5.188,5.188,0,0,0,.251-1.1,23.693,23.693,0,0,0,.134-2.618q.015-1.674.015-3.8v-9.786c0-.445,0-.8-.015-1.064s-.024-.515-.043-.757a2.666,2.666,0,0,0-.3-1.154,1.4,1.4,0,0,0-.977-.532,1.91,1.91,0,0,0-.488-.072c-.208-.012-.379-.015-.515-.015s-.237-.058-.237-.172c0-.156.158-.237.474-.237s.687,0,1.064.015l1.052.029.828.029.4.015.4-.015.785-.029.917-.029c.316-.01.582-.015.8-.015.316,0,.474.081.474.237,0,.12-.079.172-.237.172a2.781,2.781,0,0,0-.311.015,3.521,3.521,0,0,0-.429.072,1.12,1.12,0,0,0-.814.515,2.934,2.934,0,0,0-.282,1.167c-.019.237-.034.489-.043.757s-.017.62-.017,1.064v5.193a.16.16,0,0,0,.172.172H17.848a.16.16,0,0,0,.172-.172v-5.194c0-.445,0-.8-.015-1.064s-.026-.515-.045-.757a2.644,2.644,0,0,0-.3-1.154,1.4,1.4,0,0,0-.977-.532,1.91,1.91,0,0,0-.488-.072c-.208-.012-.381-.015-.515-.015s-.237-.058-.237-.172c0-.156.158-.237.474-.237s.687,0,1.066.015l1.051.029.828.029.4.015.4-.015.783-.029.917-.029c.316-.01.582-.015.8-.015.314,0,.472.081.472.237,0,.12-.079.172-.237.172a2.751,2.751,0,0,0-.309.015,3.614,3.614,0,0,0-.433.072,1.116,1.116,0,0,0-.812.515,2.908,2.908,0,0,0-.28,1.167c-.021.237-.034.489-.046.757s-.014.62-.014,1.064v9.786Z" transform="translate(-0.07 -839.877)" fill="#779e7c"/>
    <path id="Path_88" data-name="Path 88" d="M141.644,1012.725a7.7,7.7,0,0,1,.385-.948c.079-.139.172-.208.266-.208a.33.33,0,0,1,.268.192,7.082,7.082,0,0,1,.385.872c.077.2.261.666.546,1.408s.632,1.646,1.03,2.721.858,2.254,1.344,3.537.982,2.549,1.468,3.8.946,2.441,1.389,3.564l1.111,2.812a11.08,11.08,0,0,0,.754,1.6,6.814,6.814,0,0,0,.687.977,2.131,2.131,0,0,0,.591.5,2.191,2.191,0,0,0,.515.208,2.539,2.539,0,0,0,.637.149c.206.021.388.029.548.029.2,0,.3.06.3.172s-.06.161-.172.192a1.732,1.732,0,0,1-.412.043h-1.734q-.637,0-1.391-.014c-.5-.01-1.011-.026-1.525-.045l-.651-.046c-.158,0-.237-.062-.237-.161s.069-.172.206-.208a.443.443,0,0,0,.237-.251.7.7,0,0,0-.058-.548l-2.747-7.28a.283.283,0,0,0-.266-.172h-6.368a.306.306,0,0,0-.3.235l-1.777,5.238a6.024,6.024,0,0,0-.414,1.983.7.7,0,0,0,.371.652,1.545,1.545,0,0,0,.754.206h.3c.2,0,.3.06.3.172,0,.156-.148.235-.443.235-.172,0-.386,0-.623-.014l-.687-.029-.608-.031c-.187-.01-.321-.016-.4-.016s-.23,0-.457.016l-.816.031-1,.029q-.534.012-1.066.014c-.374,0-.561-.079-.561-.235,0-.118.088-.172.266-.172.1,0,.237,0,.414-.014a3.935,3.935,0,0,0,.443-.046,2.146,2.146,0,0,0,1.554-.9,8.558,8.558,0,0,0,.932-1.889Zm3.078,11.836c.118,0,.156-.069.118-.206l-2.812-7.99q-.237-.652-.443,0l-2.6,7.983c-.058.137-.029.206.091.206Z" transform="translate(-108.778 -837.897)" fill="#779e7c"/>
    <path id="Path_89" data-name="Path 89" d="M265.288,1027.77q0,2.132.014,3.8a24.131,24.131,0,0,0,.134,2.618,3.326,3.326,0,0,0,.266,1.1,1.033,1.033,0,0,0,.888.532c.216.038.458.069.726.089s.469.029.606.029.237.06.237.172c0,.156-.16.235-.474.235-.414,0-.829,0-1.245-.014l-1.138-.029c-.343-.01-.632-.019-.858-.031l-.4-.014-.4.014c-.227.012-.489.021-.785.031l-.917.029c-.314.01-.582.014-.8.014-.316,0-.472-.079-.472-.235,0-.118.077-.172.237-.172a3.423,3.423,0,0,0,.443-.029,3.257,3.257,0,0,0,.443-.089.776.776,0,0,0,.608-.532,5.4,5.4,0,0,0,.252-1.1,24.215,24.215,0,0,0,.132-2.618q.012-1.674.015-3.8v-9.786c0-.445,0-.8-.015-1.064s-.024-.515-.045-.757q-.089-1.447-1-1.655a3.773,3.773,0,0,0-.5-.089,4.118,4.118,0,0,0-.414-.029c-.158,0-.237-.058-.237-.172,0-.156.158-.237.474-.237.237,0,.515,0,.858.015l.946.029.785.029.4.016.4-.016.783-.029.917-.029c.316-.01.582-.015.8-.015.314,0,.472.081.472.237,0,.12-.079.172-.237.172a2.781,2.781,0,0,0-.311.015,3.649,3.649,0,0,0-.431.072,1.116,1.116,0,0,0-.812.515,2.909,2.909,0,0,0-.28,1.167q-.031.355-.046.757c-.01.266-.014.62-.014,1.064v9.786Z" transform="translate(-215.854 -839.893)" fill="#779e7c"/>
    <path id="Path_90" data-name="Path 90" d="M316.292,1022.617v-4.572c0-.445,0-.8-.014-1.064s-.024-.515-.045-.755a2.67,2.67,0,0,0-.3-1.155,1.4,1.4,0,0,0-.977-.531,1.774,1.774,0,0,0-.489-.074c-.206-.012-.379-.017-.515-.017s-.237-.058-.237-.172c0-.156.158-.237.472-.237s.687,0,1.066.015.726.019,1.051.029l.829.027c.225.012.359.017.4.017.079,0,.263,0,.548-.017l.977-.027,1.08-.029c.355-.01.652-.015.888-.015a17.755,17.755,0,0,1,2.828.223,5.942,5.942,0,0,1,2.589,1.078,6.229,6.229,0,0,1,.621.579,5.136,5.136,0,0,1,.664.874,5.516,5.516,0,0,1,.534,1.154,4.373,4.373,0,0,1,.221,1.42,7.667,7.667,0,0,1-.8,3.329,12.168,12.168,0,0,1-2.781,3.506l3.343,4.261q1.509,1.926,2.811,3.315a6.928,6.928,0,0,0,2.132,1.657,6.718,6.718,0,0,0,1.48.474c.275.04.515.065.709.074s.343.014.443.014c.172,0,.266.06.266.18a.185.185,0,0,1-.146.192,2.475,2.475,0,0,1-.563.043h-2.1a12.12,12.12,0,0,1-1.923-.118,3.752,3.752,0,0,1-1.243-.443,6.191,6.191,0,0,1-1.835-1.585q-.886-1.08-2.16-2.766c-.316-.415-.632-.838-.948-1.272s-.616-.848-.9-1.243-.553-.755-.8-1.082-.441-.585-.579-.783a.539.539,0,0,0-.383-.172l-3.641-.058c-.137,0-.208.079-.208.237v.709q0,2.132.015,3.8a24.6,24.6,0,0,0,.132,2.616,3.263,3.263,0,0,0,.268,1.1,1.034,1.034,0,0,0,.888.534,6.72,6.72,0,0,0,.724.088c.266.021.469.029.606.029s.239.06.239.18c0,.156-.16.235-.474.235q-.62,0-1.245-.016l-1.138-.027c-.343-.012-.632-.021-.858-.031l-.4-.016c-.414.021-.769.034-1.064.046l-.917.027q-.474.015-.8.016c-.318,0-.474-.079-.474-.235,0-.12.077-.18.235-.18a3.45,3.45,0,0,0,.445-.029,2.87,2.87,0,0,0,.445-.088.779.779,0,0,0,.606-.534,5.244,5.244,0,0,0,.251-1.1,24.071,24.071,0,0,0,.134-2.616q.015-1.674.014-3.8Zm2.368,2.575a.391.391,0,0,0,.208.357,3.649,3.649,0,0,0,1.229.343,13.014,13.014,0,0,0,1.878.132,6.732,6.732,0,0,0,1.125-.1,2.7,2.7,0,0,0,1.1-.458,3.929,3.929,0,0,0,1.286-1.7,7.044,7.044,0,0,0,.515-2.855,6.422,6.422,0,0,0-1.361-4.351,4.714,4.714,0,0,0-3.758-1.569,11.029,11.029,0,0,0-1.212.06,6.006,6.006,0,0,0-.769.12.343.343,0,0,0-.239.354Z" transform="translate(-259.871 -839.943)" fill="#779e7c"/>
    <path id="Path_91" data-name="Path 91" d="M460.553,1023.175a11.58,11.58,0,0,1,.3-2.513,12.048,12.048,0,0,1,.917-2.62,12.99,12.99,0,0,1,1.554-2.455,10.063,10.063,0,0,1,2.232-2.06,11.138,11.138,0,0,1,2.958-1.406,12.44,12.44,0,0,1,3.7-.515,13.451,13.451,0,0,1,4.617.771,10.644,10.644,0,0,1,3.683,2.2,10.169,10.169,0,0,1,2.443,3.49,11.566,11.566,0,0,1,.888,4.636,13,13,0,0,1-.845,4.69,11.654,11.654,0,0,1-2.381,3.848,11.257,11.257,0,0,1-3.729,2.6,11.979,11.979,0,0,1-4.854.961,11.766,11.766,0,0,1-5.223-1.066,10.575,10.575,0,0,1-3.566-2.747,11.077,11.077,0,0,1-2.041-3.744,13.407,13.407,0,0,1-.651-4.069m2.811-.828a14.3,14.3,0,0,0,.725,4.677,10.713,10.713,0,0,0,2.012,3.58,8.964,8.964,0,0,0,3,2.278,8.733,8.733,0,0,0,3.729.8,9.506,9.506,0,0,0,2.4-.369,6.894,6.894,0,0,0,2.678-1.464,8.649,8.649,0,0,0,2.191-3.09,12.773,12.773,0,0,0,.9-5.223,13.545,13.545,0,0,0-.754-4.706,10.432,10.432,0,0,0-2-3.42,8.382,8.382,0,0,0-6.244-2.8,9.5,9.5,0,0,0-3.447.608,7.261,7.261,0,0,0-2.737,1.834,8.638,8.638,0,0,0-1.806,3.049,12.625,12.625,0,0,0-.651,4.246" transform="translate(-381.492 -837.926)" fill="#779e7c"/>
    <path id="Path_92" data-name="Path 92" d="M603.114,1021.482v-4.572c0-.445,0-.8-.016-1.066s-.026-.515-.045-.755a2.668,2.668,0,0,0-.3-1.154,1.409,1.409,0,0,0-.977-.532,1.99,1.99,0,0,0-.489-.074c-.206-.01-.379-.014-.515-.014s-.237-.06-.237-.172c0-.156.158-.237.474-.237h1.064c.376,0,.73.01,1.066.029l1.214.06h5.221c.5,0,.943,0,1.317-.015s.621-.014.742-.014c.275-.021.527-.036.754-.045a2.59,2.59,0,0,0,.549-.074,1.285,1.285,0,0,0,.235-.12.333.333,0,0,1,.172-.058c.118,0,.172.091.172.266a1.845,1.845,0,0,1-.089.46,5.643,5.643,0,0,0-.148.931c0,.081,0,.208-.015.385s-.024.371-.043.579-.034.4-.046.591a2.361,2.361,0,0,1-.043.4,1.7,1.7,0,0,1-.074.223.172.172,0,0,1-.163.1c-.139,0-.208-.118-.208-.355a2.991,2.991,0,0,0-.058-.5,2.355,2.355,0,0,0-.208-.623,1.717,1.717,0,0,0-.651-.606,2.785,2.785,0,0,0-1.362-.343l-4.558-.088c-.172,0-.266.108-.266.324v8.2c0,.172.07.266.208.266l3.787-.029h.7c.206,0,.417-.01.635-.029a5.429,5.429,0,0,0,.843-.148.95.95,0,0,0,.515-.386c.058-.077.113-.148.163-.208a.21.21,0,0,1,.172-.088c.1,0,.148.079.148.235a2.871,2.871,0,0,1-.089.53,8.189,8.189,0,0,0-.148,1.1c-.021.158-.034.333-.045.531s-.021.395-.029.592-.021.374-.031.531-.014.268-.014.326a2.458,2.458,0,0,1-.029.386c-.021.118-.079.172-.172.172-.137,0-.206-.089-.206-.266a5.04,5.04,0,0,0-.06-.515,2.6,2.6,0,0,0-.118-.548,1.678,1.678,0,0,0-.488-.651,1.925,1.925,0,0,0-1.051-.414c-.172-.019-.488-.034-.932-.043l-1.391-.031q-.726-.015-1.346-.015h-.8c-.137,0-.208.089-.208.266v2.515q0,2.132.016,3.8a24.126,24.126,0,0,0,.134,2.62,3.307,3.307,0,0,0,.264,1.094,1.039,1.039,0,0,0,.889.534,7.119,7.119,0,0,0,.726.089c.264.019.467.027.6.027s.237.062.237.18c0,.156-.156.235-.472.235-.414,0-.829,0-1.243-.015s-.795-.021-1.14-.029-.632-.019-.858-.029l-.4-.016-.4.016c-.227.01-.488.019-.785.029l-.917.029c-.316.01-.582.015-.8.015-.316,0-.474-.079-.474-.235,0-.119.081-.18.237-.18a3.761,3.761,0,0,0,.445-.027,3.059,3.059,0,0,0,.443-.089.779.779,0,0,0,.608-.534,5.348,5.348,0,0,0,.252-1.094,24.663,24.663,0,0,0,.132-2.62q.015-1.67.016-3.8Z" transform="translate(-497.448 -838.808)" fill="#779e7c"/>
    <path id="Path_93" data-name="Path 93" d="M730.886,1027.77q0,2.132.015,3.8a23.772,23.772,0,0,0,.132,2.618,3.328,3.328,0,0,0,.266,1.1,1.038,1.038,0,0,0,.888.532c.216.038.458.069.726.089s.469.029.606.029.237.06.237.172c0,.156-.158.235-.474.235-.414,0-.828,0-1.243-.014l-1.138-.029c-.343-.01-.634-.019-.858-.031l-.4-.014-.4.014c-.227.012-.488.021-.783.031l-.919.029c-.314.01-.582.014-.8.014-.316,0-.474-.079-.474-.235,0-.118.079-.172.237-.172a3.423,3.423,0,0,0,.443-.029,3.284,3.284,0,0,0,.445-.089.776.776,0,0,0,.606-.532,5.285,5.285,0,0,0,.252-1.1,24.108,24.108,0,0,0,.134-2.618q.014-1.674.014-3.8v-9.786c0-.445,0-.8-.014-1.064s-.026-.515-.045-.757q-.091-1.447-1.006-1.655a3.673,3.673,0,0,0-.5-.089,4.133,4.133,0,0,0-.414-.029c-.156,0-.237-.058-.237-.172,0-.156.158-.237.474-.237.237,0,.515,0,.858.015l.948.029.783.029.4.016.4-.016.783-.029.919-.029c.316-.01.582-.015.8-.015.314,0,.472.081.472.237,0,.12-.079.172-.235.172a2.784,2.784,0,0,0-.312.015,3.634,3.634,0,0,0-.429.072,1.116,1.116,0,0,0-.814.515,2.937,2.937,0,0,0-.28,1.167c-.021.237-.036.489-.045.757s-.015.62-.015,1.064v9.786Z" transform="translate(-601.517 -839.893)" fill="#779e7c"/>
    <path id="Path_94" data-name="Path 94" d="M785.042,1034.759a12.049,12.049,0,0,1-2.043-.172,7.506,7.506,0,0,1-1.923-.606.62.62,0,0,1-.385-.333,3.127,3.127,0,0,1-.06-.783c0-.749.019-1.4.06-1.952s.069-.948.089-1.185c.019-.314.1-.472.235-.472s.208.108.208.324c0,.137,0,.3.014.488a4.583,4.583,0,0,0,.076.608,3.684,3.684,0,0,0,.591,1.406,3.3,3.3,0,0,0,1.03.932,4.685,4.685,0,0,0,1.315.515,6.474,6.474,0,0,0,1.449.161,4.564,4.564,0,0,0,1.866-.355,4.08,4.08,0,0,0,1.317-.9,3.749,3.749,0,0,0,.783-1.26,4.013,4.013,0,0,0,.268-1.422,5.222,5.222,0,0,0-.172-1.408,4.425,4.425,0,0,0-.577-1.245,7.6,7.6,0,0,0-1.051-1.245c-.434-.424-.968-.9-1.6-1.437l-1.332-1.1a17.813,17.813,0,0,1-1.923-1.808,8.774,8.774,0,0,1-1.169-1.616,5.751,5.751,0,0,1-.592-1.511,6.819,6.819,0,0,1-.161-1.5,5.311,5.311,0,0,1,.429-2.163,4.845,4.845,0,0,1,1.228-1.689,5.557,5.557,0,0,1,1.923-1.1,7.769,7.769,0,0,1,2.546-.386,14.226,14.226,0,0,1,1.523.074,8.746,8.746,0,0,1,1.229.221c.276.06.488.1.635.118a2.955,2.955,0,0,0,.4.031c.2,0,.3.067.3.206,0,.084-.019.383-.058.891s-.058,1.269-.058,2.277c0,.452-.07.687-.208.687-.1,0-.158-.036-.172-.1a2.682,2.682,0,0,1-.058-.282c-.021-.172-.065-.431-.134-.755a2.339,2.339,0,0,0-.251-.725,2.8,2.8,0,0,0-.266-.385,2.413,2.413,0,0,0-.637-.532,4.366,4.366,0,0,0-1.109-.46,6.354,6.354,0,0,0-1.688-.192,3.836,3.836,0,0,0-2.589.9,3.153,3.153,0,0,0-1.051,2.527,4.082,4.082,0,0,0,.172,1.167,3.6,3.6,0,0,0,.577,1.107,8.98,8.98,0,0,0,1.109,1.212q.7.651,1.761,1.478l.829.651a21.209,21.209,0,0,1,2.146,1.921,9.971,9.971,0,0,1,1.331,1.7,5.362,5.362,0,0,1,.64,1.619,7.813,7.813,0,0,1,.172,1.7,6.652,6.652,0,0,1-.1,1.064,6.084,6.084,0,0,1-.385,1.3,6.428,6.428,0,0,1-.769,1.346,5.257,5.257,0,0,1-1.258,1.2,6.04,6.04,0,0,1-2.1.96,9.993,9.993,0,0,1-2.368.281" transform="translate(-646.617 -837.884)" fill="#779e7c"/>
    <path id="Path_95" data-name="Path 95" d="M863.165,1025.79q0,2.132.014,3.8a24.6,24.6,0,0,0,.134,2.618,3.283,3.283,0,0,0,.268,1.1,1.033,1.033,0,0,0,.888.532c.216.038.457.069.724.089s.469.029.608.029.235.06.235.172c0,.156-.158.235-.474.235-.412,0-.828,0-1.243-.014l-1.14-.029c-.343-.01-.63-.019-.858-.031l-.4-.014-.4.014c-.227.012-.488.021-.783.031l-.919.029c-.314.01-.582.014-.8.014-.316,0-.472-.079-.472-.235,0-.118.077-.172.235-.172a3.407,3.407,0,0,0,.445-.029,3.3,3.3,0,0,0,.443-.089.778.778,0,0,0,.608-.532,5.3,5.3,0,0,0,.251-1.1,24.141,24.141,0,0,0,.134-2.618q.012-1.674.014-3.8v-12.518l-4.38.058a9.855,9.855,0,0,0-1.167.06,5.4,5.4,0,0,0-.845.163,1.89,1.89,0,0,0-.592.282,1.776,1.776,0,0,0-.414.445q-.237.383-.343.577a3.258,3.258,0,0,0-.163.343c-.079.2-.172.3-.3.3s-.148-.089-.148-.264a4.336,4.336,0,0,1,.088-.579q.089-.458.208-.992c.079-.354.153-.687.221-.975s.113-.476.134-.534c.039-.1.082-.216.132-.355s.1-.206.172-.206a1.054,1.054,0,0,1,.429.148,2.577,2.577,0,0,0,.874.208c.433.039.888.074,1.361.1s.8.045.975.045h11.1q.711,0,1.228-.045c.343-.029.637-.064.874-.1s.395-.074.532-.1a1.676,1.676,0,0,1,.3-.045.119.119,0,0,1,.134.1,1.771,1.771,0,0,1,.016.252q0,.326-.016.829c-.01.343-.021.671-.029,1.008s-.021.635-.029.9-.016.438-.016.515c0,.256-.07.386-.206.386a.172.172,0,0,1-.172-.089,1.53,1.53,0,0,1-.074-.416l-.027-.324a1.46,1.46,0,0,0-.208-.622,1.423,1.423,0,0,0-.579-.5,4.086,4.086,0,0,0-1.094-.343,11.322,11.322,0,0,0-1.761-.172l-3.729-.058Z" transform="translate(-706.009 -837.914)" fill="#779e7c"/>
    <path id="Path_96" data-name="Path 96" d="M955.545,1012.725a7.615,7.615,0,0,1,.386-.948c.077-.139.172-.208.266-.208a.335.335,0,0,1,.266.192,7.08,7.08,0,0,1,.385.872c.079.2.261.666.548,1.408s.63,1.646,1.03,2.721.858,2.254,1.346,3.537.982,2.549,1.466,3.8.948,2.441,1.391,3.564l1.109,2.812a11.264,11.264,0,0,0,.754,1.6,6.815,6.815,0,0,0,.687.977,2.133,2.133,0,0,0,.592.5,2.184,2.184,0,0,0,.515.208,2.546,2.546,0,0,0,.637.149c.206.021.388.029.548.029.2,0,.3.06.3.172s-.058.161-.172.192a1.753,1.753,0,0,1-.414.043h-1.732q-.637,0-1.391-.014t-1.523-.045l-.652-.046c-.158,0-.237-.062-.237-.161s.069-.172.208-.208a.455.455,0,0,0,.237-.251.705.705,0,0,0-.06-.548l-2.747-7.28a.287.287,0,0,0-.268-.172h-6.37a.306.306,0,0,0-.3.235l-1.775,5.238a6.032,6.032,0,0,0-.415,1.983.7.7,0,0,0,.371.652,1.545,1.545,0,0,0,.754.206h.3c.2,0,.3.06.3.172,0,.156-.148.235-.443.235-.172,0-.385,0-.623-.014l-.687-.029-.608-.031c-.187-.01-.321-.016-.4-.016s-.232,0-.458.016l-.814.031-1.006.029c-.355,0-.709.014-1.066.014s-.561-.079-.561-.235c0-.118.088-.172.266-.172.1,0,.237,0,.414-.014a3.934,3.934,0,0,0,.443-.046,2.149,2.149,0,0,0,1.556-.9,8.633,8.633,0,0,0,.932-1.889Zm3.078,11.836q.172,0,.118-.206l-2.811-7.99q-.239-.652-.445,0l-2.6,7.983c-.06.137-.029.206.089.206Z" transform="translate(-782.942 -837.897)" fill="#779e7c"/>
    <path id="Path_97" data-name="Path 97" d="M1075.722,1030.332c.021.613.055,1.12.1,1.523a4.982,4.982,0,0,0,.208,1.008,1.517,1.517,0,0,0,.343.606,1.163,1.163,0,0,0,.5.3,3.945,3.945,0,0,0,.845.149c.285.019.5.029.637.029s.235.058.235.172c0,.156-.172.235-.532.235q-1.272,0-2.1-.043c-.551-.031-.9-.045-1.03-.045s-.479.014-1.03.045-1.149.043-1.82.043c-.314,0-.474-.079-.474-.235,0-.12.079-.172.237-.172.118,0,.3-.01.532-.029a2.519,2.519,0,0,0,.687-.149,1.071,1.071,0,0,0,.724-.946,16.085,16.085,0,0,0,.172-2.812l.028-16.957a6.1,6.1,0,0,1,.074-1.167c.05-.208.134-.311.252-.311s.281.118.488.355.39.433.548.592c.12.117.458.488,1.03,1.107s1.277,1.4,2.146,2.325,1.839,1.973,2.919,3.137,2.184,2.357,3.327,3.58q1.1,1.185,2.2,2.4l2.088,2.278q.975,1.063,1.717,1.878t1.1,1.169l-.326-15.033a6.9,6.9,0,0,0-.252-2.043,1.224,1.224,0,0,0-.9-.769,6.226,6.226,0,0,0-.843-.117c-.287-.021-.488-.031-.606-.031-.158,0-.237-.067-.237-.206s.2-.208.592-.208c.343,0,.666,0,.992.015l.917.029.738.029c.209.012.343.014.429.014.158,0,.465-.014.919-.043s.985-.045,1.6-.045c.355,0,.534.07.534.208s-.108.206-.326.206a1.92,1.92,0,0,0-.282.015,4.121,4.121,0,0,0-.429.074,1.085,1.085,0,0,0-.917.724,7.248,7.248,0,0,0-.172,1.909l-.06,17.34c0,.494,0,.877-.014,1.154s-.026.484-.045.621a.711.711,0,0,1-.074.268.16.16,0,0,1-.134.058.492.492,0,0,1-.221-.074,2.491,2.491,0,0,1-.371-.282c-.158-.139-.359-.33-.606-.577l-.961-.961-.9-.9q-.783-.783-1.907-1.952t-2.428-2.532q-1.3-1.36-2.486-2.632-1.3-1.391-2.531-2.747l-2.263-2.5q-1.03-1.157-1.8-2c-.515-.561-.889-.982-1.126-1.257Z" transform="translate(-887.641 -837.897)" fill="#779e7c"/>
    <path id="Path_98" data-name="Path 98" d="M1226.154,1022.626v-4.572c0-.445,0-.8-.015-1.066s-.026-.515-.043-.754a2.668,2.668,0,0,0-.3-1.155,1.419,1.419,0,0,0-.977-.532,1.99,1.99,0,0,0-.489-.074c-.206-.01-.378-.014-.515-.014s-.237-.06-.237-.172c0-.156.158-.237.474-.237s.687,0,1.066.015.724.019,1.051.029l.829.029.4.015c.355,0,.81-.015,1.361-.045s1.174-.045,1.865-.045a7.647,7.647,0,0,1,2.96.489,5.416,5.416,0,0,1,1.82,1.183,3.712,3.712,0,0,1,.9,1.451,4.49,4.49,0,0,1,.237,1.315,5.417,5.417,0,0,1-.237,1.659,6.165,6.165,0,0,1-.635,1.373,9.689,9.689,0,0,1-.889,1.2c-.326.376-.664.742-1.03,1.1a9.25,9.25,0,0,1,1.731.785,7.384,7.384,0,0,1,1.659,1.3,6.724,6.724,0,0,1,1.243,1.82,5.4,5.4,0,0,1,.489,2.337,6.107,6.107,0,0,1-.474,2.338,6.179,6.179,0,0,1-1.406,2.07,6.941,6.941,0,0,1-2.352,1.482,8.983,8.983,0,0,1-3.313.561q-.24,0-.858-.031c-.414-.017-.838-.038-1.272-.058s-.829-.064-1.183-.074l-.623-.016h-.383c-.218,0-.484.01-.8.031s-.6,0-.917.029-.582.029-.8.029c-.316,0-.474-.079-.474-.235,0-.118.077-.172.237-.172a3.734,3.734,0,0,0,.443-.029,2.811,2.811,0,0,0,.445-.089.776.776,0,0,0,.606-.532,5.516,5.516,0,0,0,.252-1.1,24.646,24.646,0,0,0,.132-2.618q.015-1.671.015-3.8Zm2.368.651a.325.325,0,0,0,.208.326c.1.021.285.045.561.074s.687.045,1.243.045q.621,0,1.03-.015a2.634,2.634,0,0,0,.7-.1,1.971,1.971,0,0,0,.5-.239,2.433,2.433,0,0,0,.46-.412,4.3,4.3,0,0,0,.769-1.3,4.648,4.648,0,0,0,.3-1.686,7.793,7.793,0,0,0-.221-1.835,5.239,5.239,0,0,0-.687-1.641,3.665,3.665,0,0,0-1.229-1.171,3.605,3.605,0,0,0-1.849-.441,6.183,6.183,0,0,0-.651.027,4.663,4.663,0,0,0-.769.118c-.237.058-.355.172-.355.326Zm0,3.137v3.878c0,.63,0,1.178.016,1.641s.014.754.014.874c.021.354.04.656.06.9a2.075,2.075,0,0,0,.13.623,1.309,1.309,0,0,0,.283.427,2.032,2.032,0,0,0,.532.355,3.007,3.007,0,0,0,.666.237,6.526,6.526,0,0,0,.738.132c.247.029.474.05.687.06s.379.014.515.014a5.063,5.063,0,0,0,1.315-.192,3.977,3.977,0,0,0,1.363-.664,3.759,3.759,0,0,0,1.064-1.288,4.374,4.374,0,0,0,.431-2.06,9.01,9.01,0,0,0-.134-1.449,7.691,7.691,0,0,0-.458-1.6,7.118,7.118,0,0,0-.874-1.545,5.881,5.881,0,0,0-1.406-1.332,4.72,4.72,0,0,0-1.346-.649,8.009,8.009,0,0,0-1.109-.208,3.523,3.523,0,0,0-.458-.046c-.208,0-.431-.014-.666-.014H1228.7c-.118,0-.172.069-.172.208Z" transform="translate(-1013.52 -839.951)" fill="#779e7c"/>
    <path id="Path_99" data-name="Path 99" d="M1319.01,1022.626v-4.572c0-.445,0-.8-.014-1.066s-.026-.515-.045-.755a2.644,2.644,0,0,0-.3-1.154,1.4,1.4,0,0,0-.975-.532,1.991,1.991,0,0,0-.489-.074c-.208-.01-.379-.014-.515-.014s-.235-.06-.235-.172c0-.156.158-.237.474-.237s.687,0,1.049.015.711.019,1.03.029l.858.029c.246.012.4.015.457.015s.2,0,.436-.015l.793-.029.9-.029c.306-.012.567-.015.785-.015.316,0,.474.081.474.237,0,.118-.081.172-.237.172a2.409,2.409,0,0,0-.311.014,4.036,4.036,0,0,0-.429.074,1.03,1.03,0,0,0-.814.5,3.039,3.039,0,0,0-.28,1.183c-.021.239-.036.489-.045.755s-.015.622-.015,1.066v8.715a20.747,20.747,0,0,0,.161,2.768,10.959,10.959,0,0,0,.46,2.026,6.037,6.037,0,0,0,.713,1.466,6.321,6.321,0,0,0,.891,1.049,5.334,5.334,0,0,0,2.15,1.332,8.522,8.522,0,0,0,2.328.3,6.25,6.25,0,0,0,4.656-2.129,6.759,6.759,0,0,0,1.373-3.108,22.69,22.69,0,0,0,.343-4.143v-8.272c0-.445,0-.8-.014-1.066s-.026-.515-.046-.755a2.624,2.624,0,0,0-.294-1.154,1.409,1.409,0,0,0-.979-.532,1.964,1.964,0,0,0-.488-.074c-.206-.01-.381-.014-.515-.014s-.237-.06-.237-.172c0-.156.158-.237.474-.237s.687,0,1.03.015.687.019.977.029l.754.029c.208.012.33.015.369.015s.172,0,.355-.015l.637-.029.769-.029c.266-.012.515-.015.725-.015.316,0,.474.081.474.237,0,.118-.077.172-.237.172a2.434,2.434,0,0,0-.311.014,4.007,4.007,0,0,0-.428.074,1.216,1.216,0,0,0-.814.532,2.8,2.8,0,0,0-.282,1.154c-.021.239-.036.489-.046.755s-.014.622-.014,1.066v7.738c0,.809-.031,1.624-.088,2.441a13.85,13.85,0,0,1-.386,2.4,10.061,10.061,0,0,1-.831,2.191,6.454,6.454,0,0,1-1.423,1.82,8.218,8.218,0,0,1-1.615,1.14,9.249,9.249,0,0,1-1.586.664,7.961,7.961,0,0,1-1.513.312c-.494.048-.96.074-1.394.074-.256,0-.618-.015-1.08-.045a9.429,9.429,0,0,1-1.559-.251,9.036,9.036,0,0,1-1.763-.639,6.758,6.758,0,0,1-1.7-1.167,9.289,9.289,0,0,1-1-1.2,7.188,7.188,0,0,1-.819-1.6,10.955,10.955,0,0,1-.541-2.146,18.767,18.767,0,0,1-.19-2.841Z" transform="translate(-1090.437 -839.951)" fill="#779e7c"/>
    <path id="Path_100" data-name="Path 100" d="M1460.717,1027.838q0,3.262.118,4.823a3.306,3.306,0,0,0,.534,1.954,1.778,1.778,0,0,0,.427.312,2.284,2.284,0,0,0,.652.206,9.251,9.251,0,0,0,1,.118q.611.045,1.464.045a16.628,16.628,0,0,0,2.119-.12,2.168,2.168,0,0,0,1.464-.769,3.274,3.274,0,0,0,.5-.859,3.858,3.858,0,0,0,.268-.917c.038-.256.127-.386.266-.386s.172.148.172.445c0,.077-.01.237-.031.472s-.053.5-.1.8l-.148.9c-.05.307-.1.568-.161.783a3.021,3.021,0,0,1-.172.415.536.536,0,0,1-.251.237,1.521,1.521,0,0,1-.515.118c-.227.019-.536.029-.931.029q-1.6,0-2.783-.029c-.788-.021-1.5-.039-2.131-.06s-1.185-.063-1.657-.074-.927-.014-1.361-.014c-.06,0-.2,0-.429.014s-.488.016-.783.016-.6.033-.9.045-.568.014-.783.014c-.318,0-.476-.079-.476-.235,0-.12.077-.172.237-.172a3.423,3.423,0,0,0,.443-.029,3.277,3.277,0,0,0,.445-.088.778.778,0,0,0,.606-.534,5.284,5.284,0,0,0,.252-1.1,24.519,24.519,0,0,0,.134-2.618q.014-1.674.014-3.8V1018q0-.666-.014-1.064c-.012-.268-.026-.515-.045-.757a2.668,2.668,0,0,0-.3-1.154,1.405,1.405,0,0,0-.977-.532,1.977,1.977,0,0,0-.488-.074q-.312-.015-.515-.016c-.136,0-.237-.058-.237-.172,0-.158.158-.239.472-.239s.687,0,1.066.014l1.051.031.829.029c.225.01.359.014.4.014s.187,0,.445-.014l.888-.029,1.03-.031c.343,0,.625-.014.843-.014.316,0,.472.081.472.239,0,.117-.079.172-.235.172-.1,0-.242,0-.431.015a3.551,3.551,0,0,0-.546.074,1.156,1.156,0,0,0-.872.515,2.874,2.874,0,0,0-.282,1.167c-.021.239-.034.489-.046.757s-.014.62-.014,1.064v9.839Z" transform="translate(-1205.747 -839.902)" fill="#779e7c"/>
    <path id="Path_101" data-name="Path 101" d="M209,1233.016h-4.091v3.233h-.889v-7.159h.889v3.1H209v-3.1h.889v7.159H209Z" transform="translate(-169.005 -1018.072)" fill="#779e7c"/>
    <path id="Path_102" data-name="Path 102" d="M263.936,1229.09l3.211,7.158h-.961l-.706-1.574h-4.091l-.687,1.574h-.972l3.211-7.158Zm-.5.9-1.7,3.866h3.394Z" transform="translate(-215.15 -1018.072)" fill="#779e7c"/>
    <rect id="Rectangle_43" data-name="Rectangle 43" width="0.889" height="7.158" transform="translate(55.685 211.018)" fill="#779e7c"/>
    <path id="Path_103" data-name="Path 103" d="M358.209,1233.662h-1.739v2.575h-.889v-7.158h3.252a2.252,2.252,0,0,1,2.424,2.29,2.072,2.072,0,0,1-2.06,2.218l2.362,2.649h-1.126Zm2.156-2.27a1.471,1.471,0,0,0-1.533-1.514h-2.362v2.987h2.321a1.413,1.413,0,0,0,1.574-1.473" transform="translate(-294.544 -1018.064)" fill="#779e7c"/>
    <path id="Path_104" data-name="Path 104" d="M436.75,1229.887v-.8h5.769v.8h-2.445v6.361h-.879v-6.361Z" transform="translate(-361.778 -1018.072)" fill="#779e7c"/>
    <path id="Path_105" data-name="Path 105" d="M494.447,1233.662h-1.737v2.575h-.889v-7.158h3.252a2.253,2.253,0,0,1,2.424,2.29,2.078,2.078,0,0,1-2.06,2.218l2.361,2.649h-1.125Zm2.158-2.27a1.473,1.473,0,0,0-1.533-1.514h-2.362v2.987h2.321a1.414,1.414,0,0,0,1.574-1.473" transform="translate(-407.393 -1018.064)" fill="#779e7c"/>
    <path id="Path_106" data-name="Path 106" d="M548.833,1229.09l3.211,7.158h-.961l-.7-1.574h-4.091l-.7,1.574h-.972l3.211-7.158Zm-.5.9-1.7,3.866h3.394Z" transform="translate(-451.128 -1018.072)" fill="#779e7c"/>
    <path id="Path_107" data-name="Path 107" d="M609.965,1229.09l4.387,5.48v-5.48h.879v7.158h-.613l-4.4-5.461v5.461h-.879v-7.158Z" transform="translate(-504.737 -1018.072)" fill="#779e7c"/>
    <path id="Path_108" data-name="Path 108" d="M669.359,1228.988c-.91,0-1.889.357-1.889,1.226,0,.778.889,1,1.942,1.178,1.434.225,2.843.515,2.843,2.127s-1.545,2.127-2.919,2.127a3.106,3.106,0,0,1-3.027-1.659l.735-.429a2.582,2.582,0,0,0,2.3,1.258c.881,0,2.024-.276,2.024-1.329.01-.889-.992-1.147-2.06-1.308-1.373-.216-2.72-.532-2.72-1.985-.021-1.494,1.5-2.005,2.747-2.005a2.807,2.807,0,0,1,2.711,1.3l-.675.419a2.38,2.38,0,0,0-2.014-.92" transform="translate(-551.926 -1017.326)" fill="#779e7c"/>
    <path id="Path_109" data-name="Path 109" d="M725.009,1236.248h-.879v-7.158h3.252a2.424,2.424,0,1,1,0,4.847h-2.373Zm2.373-6.33h-2.373v3.192h2.373a1.6,1.6,0,0,0,0-3.192" transform="translate(-599.819 -1018.072)" fill="#779e7c"/>
    <path id="Path_110" data-name="Path 110" d="M780.679,1235.428h3.9v.828H779.79V1229.1h.889Z" transform="translate(-645.923 -1018.08)" fill="#779e7c"/>
    <path id="Path_111" data-name="Path 111" d="M828.925,1229.09l3.211,7.158h-.961l-.706-1.574h-4.091l-.687,1.574h-.97l3.211-7.158Zm-.5.9-1.7,3.866h3.394Z" transform="translate(-683.139 -1018.072)" fill="#779e7c"/>
    <path id="Path_112" data-name="Path 112" d="M890,1229.09l4.387,5.48v-5.48h.879v7.158h-.613l-4.4-5.461v5.461h-.879v-7.158Z" transform="translate(-736.698 -1018.072)" fill="#779e7c"/>
    <path id="Path_113" data-name="Path 113" d="M945.16,1229.887v-.8h5.769v.8h-2.443v6.361H947.6v-6.361Z" transform="translate(-782.901 -1018.072)" fill="#779e7c"/>
    <path id="Path_114" data-name="Path 114" d="M1022.28,1229.887v-.8h5.767v.8H1025.6v6.361h-.879v-6.361Z" transform="translate(-846.781 -1018.072)" fill="#779e7c"/>
    <path id="Path_115" data-name="Path 115" d="M1082.709,1229.092v4.292a2.773,2.773,0,0,1-2.9,2.986,2.806,2.806,0,0,1-2.934-2.986v-4.292h.881v4.292a2.047,2.047,0,1,0,4.086-.012v-4.292h.869Z" transform="translate(-891.998 -1018.064)" fill="#779e7c"/>
    <path id="Path_116" data-name="Path 116" d="M1139.037,1233.662H1137.3v2.575h-.889v-7.158h3.252a2.252,2.252,0,0,1,2.424,2.29,2.071,2.071,0,0,1-2.06,2.218l2.364,2.649h-1.126Zm2.16-2.27a1.477,1.477,0,0,0-1.535-1.514H1137.3v2.987h2.321a1.415,1.415,0,0,0,1.576-1.473" transform="translate(-941.316 -1018.064)" fill="#779e7c"/>
    <path id="Path_117" data-name="Path 117" d="M1193.74,1229.09h.881v3.161l3.169-3.161h1.114v.052l-3.435,3.394,3.743,3.65v.062h-1.106l-3.485-3.363v3.363h-.881Z" transform="translate(-988.803 -1018.072)" fill="#779e7c"/>
    <path id="Path_118" data-name="Path 118" d="M1246.07,1229.09h5.032v.819h-4.153v2.239h3.978v.828h-3.978v2.424h4.316v.848h-5.2Z" transform="translate(-1032.149 -1018.072)" fill="#779e7c"/>
    <path id="Path_119" data-name="Path 119" d="M1295.6,1229.121v-.031h1.083l2.148,3.394,2.2-3.394h1.083v.031l-2.823,4.224v2.9h-.922v-2.9Z" transform="translate(-1073.175 -1018.072)" fill="#779e7c"/>
  </g>
</svg>
