<svg xmlns="http://www.w3.org/2000/svg" width="120.89" height="99.994" viewBox="0 0 120.89 99.994">
  <g id="HOI_LOGO_TOP" data-name="HOI LOGO TOP" transform="translate(0 0.04)">
    <g id="Layer_1" data-name="Layer 1" transform="translate(0 -0.04)">
      <path id="Path_20" data-name="Path 20" d="M139,178.54h9.234a14.337,14.337,0,0,1-4.537-1.65A17.845,17.845,0,0,1,139,178.54Z" transform="translate(-83.194 -105.856)" fill="#fff"/>
      <path id="Path_21" data-name="Path 21" d="M135.664,94.807V43.418C132.7,41.491,128,41.306,126.7,41.29v.935a8.927,8.927,0,0,1,3.437.614q1.582.827,1.586,3.256l-.213,46.034a3.364,3.364,0,0,1-1.666,3.3A8.385,8.385,0,0,1,126.49,96v.823A19.9,19.9,0,0,0,135.664,94.807Z" transform="translate(-75.707 -24.697)" fill="#fff"/>
      <path id="Path_22" data-name="Path 22" d="M151.77,94.807V43.418c2.963-1.927,7.66-2.112,8.961-2.128v.935a8.927,8.927,0,0,0-3.437.614q-1.606.827-1.586,3.256l.2,46.046a3.364,3.364,0,0,0,1.666,3.3,8.385,8.385,0,0,0,3.356.566v.823A19.943,19.943,0,0,1,151.77,94.807Z" transform="translate(-90.837 -24.697)" fill="#fff"/>
      <path id="Path_23" data-name="Path 23" d="M148.479,40.11H140a13.534,13.534,0,0,1,4.147,1.662,17.3,17.3,0,0,1,4.332-1.662Z" transform="translate(-83.793 -23.991)" fill="#fff"/>
      <path id="Path_24" data-name="Path 24" d="M97.46,152.343h10.374a15.256,15.256,0,0,1-5.091-1.923A18.946,18.946,0,0,1,97.46,152.343Z" transform="translate(-58.332 -90.013)" fill="#fff"/>
      <path id="Path_25" data-name="Path 25" d="M96.721,66.18c-2.71-1.73-6.753-2.031-8.431-2.08v.8a9.352,9.352,0,0,1,3.276.719,3.373,3.373,0,0,1,1.369,3.148V95.416a3.366,3.366,0,0,1-1.53,3.248,7.627,7.627,0,0,1-3.116.618v.8a20.183,20.183,0,0,0,8.431-2.268Z" transform="translate(-52.843 -38.349)" fill="#fff"/>
      <path id="Path_26" data-name="Path 26" d="M108.551,62.63H99.08a14.12,14.12,0,0,1,4.649,1.754A17.665,17.665,0,0,1,108.551,62.63Z" transform="translate(-59.301 -37.469)" fill="#fff"/>
      <path id="Path_27" data-name="Path 27" d="M116.168,80.157V68.743a3.311,3.311,0,0,1,1.558-3.212,8.783,8.783,0,0,1,3.356-.638V64.05a19.116,19.116,0,0,0-9.122,2.116V97.795c2.919,1.895,7.291,2.236,9.122,2.292v-.835a8.458,8.458,0,0,1-3.252-.562,3.371,3.371,0,0,1-1.662-3.3V82.707h5.741V80.157Z" transform="translate(-67.01 -38.319)" fill="#fff"/>
      <path id="Path_28" data-name="Path 28" d="M188.184,152.343H177.81a15.281,15.281,0,0,0,5.091-1.923,18.89,18.89,0,0,0,5.284,1.923Z" transform="translate(-106.423 -90.013)" fill="#fff"/>
      <path id="Path_29" data-name="Path 29" d="M191.82,66.18c2.71-1.73,6.753-2.031,8.431-2.08v.8a9.4,9.4,0,0,0-3.28.719,3.381,3.381,0,0,0-1.369,3.148V95.416a3.363,3.363,0,0,0,1.534,3.248,7.606,7.606,0,0,0,3.116.618v.8a20.158,20.158,0,0,1-8.431-2.268Z" transform="translate(-114.808 -38.349)" fill="#fff"/>
      <path id="Path_30" data-name="Path 30" d="M178.44,62.63H187.9a14.132,14.132,0,0,0-4.637,1.754,17.665,17.665,0,0,0-4.822-1.754Z" transform="translate(-106.8 -37.469)" fill="#fff"/>
      <path id="Path_31" data-name="Path 31" d="M170.105,80.157V68.743a3.311,3.311,0,0,0-1.558-3.212,8.8,8.8,0,0,0-3.356-.638V64.05a19.116,19.116,0,0,1,9.122,2.116V97.795c-2.919,1.895-7.295,2.236-9.122,2.292v-.835a8.423,8.423,0,0,0,3.248-.562,3.369,3.369,0,0,0,1.666-3.3V82.707H164.36V80.157Z" transform="translate(-98.373 -38.319)" fill="#fff"/>
      <path id="Path_32" data-name="Path 32" d="M136.621,13.6h-5.392c-2.409,0-3.007-.024-3.212-.273a.51.51,0,0,1-.088-.422c.044-.51,0-2.284,0-2.3a12.475,12.475,0,0,0-2.79-6.934l-.116-.137a.554.554,0,0,1,.124-.8.112.112,0,0,1,.06-.024c1.606-.221,2.81.04,3.521.775a2.409,2.409,0,0,1,.63,1.437,1.955,1.955,0,0,1,2.5,1.124,2.3,2.3,0,0,1-.128,2.313.9.9,0,0,0-.273.947,1.429,1.429,0,0,0,1.269.687c.261,0,.434-.04.522-.169.261-.377-.132-1.469-.554-2.553-.731-1.891.281-3.678.96-4.882l.04-.072c.662-1.164,1.4-2.284,1.405-2.3a.132.132,0,0,1,.141-.052.1.1,0,0,1,.044.024.185.185,0,0,1,.028.028s.739,1.132,1.4,2.3l.044.072c.67,1.2,1.686,2.975.952,4.866-.426,1.084-.8,2.176-.554,2.553.084.128.257.181.522.169a1.421,1.421,0,0,0,1.265-.687.891.891,0,0,0-.269-.947,2.288,2.288,0,0,1-.128-2.313,1.955,1.955,0,0,1,2.5-1.124,2.409,2.409,0,0,1,.67-1.437,4,4,0,0,1,3.521-.775.125.125,0,0,1,.064.024.558.558,0,0,1,.124.8l-.116.137a12.608,12.608,0,0,0-2.81,6.946s-.064,1.783,0,2.292a.526.526,0,0,1-.092.422c-.225.249-.8.261-3.212.273Z" transform="translate(-74.756 0.04)" fill="#fff"/>
      <path id="Path_33" data-name="Path 33" d="M9.363,204.891v1.742a10.96,10.96,0,0,0,.06,1.2,1.558,1.558,0,0,0,.124.5.478.478,0,0,0,.4.245l.333.04h.277c.072,0,.108.028.108.08s-.072.108-.217.108H7.468q-.217,0-.217-.108c0-.052.036-.08.108-.08h.2l.2-.04a.357.357,0,0,0,.277-.245,2.381,2.381,0,0,0,.116-.5,10.96,10.96,0,0,0,.06-1.2c0-.51,0-1.092,0-1.742V203.47a.072.072,0,0,0-.08-.08H2.409a.072.072,0,0,0-.08.08v3.164a10.96,10.96,0,0,0,.06,1.2,1.674,1.674,0,0,0,.12.5.49.49,0,0,0,.4.245c.1,0,.209.028.329.04h.281c.072,0,.108.028.108.08s-.072.108-.217.108H1.558l-.353-.028H.422q-.217,0-.217-.108c0-.052.036-.08.108-.08h.2l.2-.04A.357.357,0,0,0,1,208.312a2.658,2.658,0,0,0,.116-.5,10.96,10.96,0,0,0,.06-1.2V199.58a1.265,1.265,0,0,0-.137-.53.642.642,0,0,0-.446-.241.771.771,0,0,0-.225-.036H.108q-.108,0-.108-.084t.217-.108H3.055q.217,0,.217.108t-.108.084h-.12a1.23,1.23,0,0,0-.2.036.506.506,0,0,0-.373.237,1.3,1.3,0,0,0-.128.534c0,.108,0,.225,0,.345v2.867a.072.072,0,0,0,.08.08H8.146a.072.072,0,0,0,.08-.08V199.58a1.2,1.2,0,0,0-.137-.53.642.642,0,0,0-.446-.241.747.747,0,0,0-.225-.036H7.183q-.108,0-.108-.084t.217-.108h2.847q.217,0,.217.108t-.108.084H10.1a1.312,1.312,0,0,0-.2.036.506.506,0,0,0-.373.237,1.365,1.365,0,0,0-.128.534,2.063,2.063,0,0,1-.02.345,3.921,3.921,0,0,0,0,.49v4.477Z" transform="translate(0 -118.838)" fill="#fff"/>
      <path id="Path_34" data-name="Path 34" d="M30.449,198.63a3.212,3.212,0,0,1,.177-.434c.036-.064.076-.1.124-.1s.084.028.12.088a3.079,3.079,0,0,1,.177.4c.036.088.12.305.249.642s.289.755.474,1.249.4,1.032.618,1.606l.67,1.754c.221.574.434,1.116.638,1.63s.369.947.506,1.289a5.067,5.067,0,0,0,.345.731,2.834,2.834,0,0,0,.313.45,1.008,1.008,0,0,0,.269.229,1.367,1.367,0,0,0,.241.1,1.257,1.257,0,0,0,.289.068h.253c.088,0,.132.028.132.08s-.024.076-.08.088a.662.662,0,0,1-.189.02H34.348l-.7-.024-.3-.024q-.108,0-.108-.072c0-.044.028-.076.092-.1a.213.213,0,0,0,.108-.112.313.313,0,0,0-.028-.253l-1.257-3.332a.128.128,0,0,0-.124-.08H29.121a.141.141,0,0,0-.132.1l-.8,2.409a2.81,2.81,0,0,0-.189.907.313.313,0,0,0,.169.3.691.691,0,0,0,.345.1h.132c.088,0,.137.028.137.08s-.068.108-.2.108h-2.6c-.169,0-.257-.036-.257-.108s.04-.08.124-.08a1.793,1.793,0,0,0,.189,0,1.247,1.247,0,0,0,.2,0,.984.984,0,0,0,.715-.4,4.075,4.075,0,0,0,.426-.859Zm1.405,5.42c.056,0,.072-.032.056-.1L30.622,200.3q-.108-.293-.2,0l-1.2,3.658c-.024.064,0,.1.044.1Z" transform="translate(-15.394 -118.55)" fill="#fff"/>
      <path id="Path_35" data-name="Path 35" d="M53.262,204.9v1.742a10.961,10.961,0,0,0,.06,1.2,1.558,1.558,0,0,0,.124.5.478.478,0,0,0,.4.245l.333.04h.277c.072,0,.108.028.108.08s-.072.108-.217.108H52.864L52.7,208.8H51.387q-.217,0-.217-.108c0-.052.036-.08.108-.08h.2l.2-.04a.357.357,0,0,0,.277-.245,2.381,2.381,0,0,0,.116-.5,10.96,10.96,0,0,0,.06-1.2v-7.026c-.028-.442-.181-.695-.462-.759a1.934,1.934,0,0,0-.229-.04h-.189q-.108,0-.108-.084t.217-.108h2.69q.217,0,.217.108t-.108.084h-.145a1.312,1.312,0,0,0-.2.036.506.506,0,0,0-.373.237,1.365,1.365,0,0,0-.128.534c0,.108,0,.225,0,.345V204.9Z" transform="translate(-30.614 -118.85)" fill="#fff"/>
      <path id="Path_36" data-name="Path 36" d="M62.652,202.506V199.58a1.2,1.2,0,0,0-.132-.53.65.65,0,0,0-.45-.241.739.739,0,0,0-.221-.036h-.241q-.108,0-.108-.084t.217-.108h3.128a8.265,8.265,0,0,1,1.3.1,2.7,2.7,0,0,1,1.2.494,3.1,3.1,0,0,1,.285.265,2.465,2.465,0,0,1,.305.4,2.7,2.7,0,0,1,.189.51,2.084,2.084,0,0,1,.1.65,3.557,3.557,0,0,1-.365,1.526,5.621,5.621,0,0,1-1.277,1.606l1.542,1.963c.462.586.887,1.092,1.289,1.518a3.123,3.123,0,0,0,.98.767,3.232,3.232,0,0,0,.674.217c.128,0,.237.028.325.032s.161,0,.2,0,.12.028.12.08a.08.08,0,0,1-.064.088.985.985,0,0,1-.261.02h-.96a5.536,5.536,0,0,1-.883-.052,1.674,1.674,0,0,1-.566-.2,2.77,2.77,0,0,1-.843-.727q-.4-.494-.988-1.265c-.145-.189-.289-.4-.434-.582l-.4-.57-.365-.494q-.169-.221-.265-.361a.257.257,0,0,0-.177-.08l-1.666-.028q-.1,0-.1.108v2.068a10.963,10.963,0,0,0,.06,1.2,1.674,1.674,0,0,0,.12.5.49.49,0,0,0,.4.245c.1,0,.209.028.329.04h.281c.072,0,.108.028.108.08s-.072.108-.217.108H61.905q-.217,0-.217-.108c0-.052.036-.08.108-.08H62l.2-.04a.369.369,0,0,0,.281-.245,2.409,2.409,0,0,0,.112-.5,10.961,10.961,0,0,0,.06-1.2v-1.742Zm1.084,1.18a.173.173,0,0,0,.1.161,1.55,1.55,0,0,0,.562.157,5.968,5.968,0,0,0,.859.06,3.329,3.329,0,0,0,.514-.044,1.2,1.2,0,0,0,.5-.213,1.762,1.762,0,0,0,.59-.779,3.18,3.18,0,0,0,.237-1.309,2.935,2.935,0,0,0-.622-2.007,2.16,2.16,0,0,0-1.722-.719,3.33,3.33,0,0,0-.554.028,2.837,2.837,0,0,0-.353.056.153.153,0,0,0-.108.161Z" transform="translate(-36.809 -118.838)" fill="#fff"/>
      <path id="Path_37" data-name="Path 37" d="M90.187,203.393a5.449,5.449,0,0,1,.137-1.152,5.7,5.7,0,0,1,.4-1.2,5.869,5.869,0,0,1,.711-1.124,4.588,4.588,0,0,1,1.024-.939,5.082,5.082,0,0,1,1.353-.646,5.72,5.72,0,0,1,1.694-.237,6.142,6.142,0,0,1,2.116.353,4.878,4.878,0,0,1,1.686,1.008,4.722,4.722,0,0,1,1.12,1.606,5.324,5.324,0,0,1,.4,2.12,5.978,5.978,0,0,1-.4,2.148,5.324,5.324,0,0,1-1.092,1.762,5.143,5.143,0,0,1-1.706,1.2,5.485,5.485,0,0,1-2.224.442,5.4,5.4,0,0,1-2.409-.49,4.818,4.818,0,0,1-1.63-1.261,5.039,5.039,0,0,1-.935-1.714A6.083,6.083,0,0,1,90.187,203.393Zm1.289-.4a6.565,6.565,0,0,0,.333,2.144,4.846,4.846,0,0,0,.919,1.638,4.087,4.087,0,0,0,1.377,1.044,3.971,3.971,0,0,0,1.706.365,4.416,4.416,0,0,0,1.1-.169,3.167,3.167,0,0,0,1.2-.67,3.97,3.97,0,0,0,1-1.417,5.833,5.833,0,0,0,.4-2.409,6.219,6.219,0,0,0-.345-2.152,4.77,4.77,0,0,0-.915-1.566,3.826,3.826,0,0,0-2.859-1.281,4.417,4.417,0,0,0-1.582.277,3.361,3.361,0,0,0-1.221.863,4.015,4.015,0,0,0-.827,1.4,5.814,5.814,0,0,0-.3,1.955Z" transform="translate(-53.977 -118.544)" fill="#fff"/>
      <path id="Path_38" data-name="Path 38" d="M118.822,202.369v-2.927a1.2,1.2,0,0,0-.132-.53.65.65,0,0,0-.45-.241.747.747,0,0,0-.225-.036h-.237q-.108,0-.108-.084t.217-.108h.976l.558.024H123.1a1.261,1.261,0,0,0,.253-.032.672.672,0,0,0,.108-.056.149.149,0,0,1,.08-.028c.052,0,.08.04.08.124a.8.8,0,0,1-.04.209,2.681,2.681,0,0,0-.068.426c0,.036,0,.1,0,.177a1.049,1.049,0,0,1-.024.265c-.024.1,0,.185-.02.273a.8.8,0,0,1-.02.181.589.589,0,0,1-.032.1.076.076,0,0,1-.076.048c-.06,0-.092-.052-.092-.161a1.228,1.228,0,0,0-.028-.233,1.088,1.088,0,0,0-.1-.285.8.8,0,0,0-.3-.277,1.321,1.321,0,0,0-.622-.157l-2.088-.04c-.08,0-.12.052-.12.153v3.75c0,.084.028.124.092.124h2.345a2.055,2.055,0,0,0,.4-.068.4.4,0,0,0,.237-.177,1.04,1.04,0,0,1,.076-.092.1.1,0,0,1,.076-.04c.044,0,.064.036.064.108a1.2,1.2,0,0,1-.04.241,4.731,4.731,0,0,0-.068.506,1.061,1.061,0,0,1-.02.241v.662a1.181,1.181,0,0,1,0,.177.078.078,0,0,1-.084.084c-.048,0-.092-.044-.092-.124a.708.708,0,0,0-.028-.237,1.064,1.064,0,0,0-.056-.249.763.763,0,0,0-.221-.3.915.915,0,0,0-.482-.189h-2.048c-.064,0-.092.04-.092.12v2.895a9.884,9.884,0,0,0,.064,1.2,1.461,1.461,0,0,0,.12.5.482.482,0,0,0,.4.245l.333.04h.277c.072,0,.108.028.108.08s-.072.108-.217.108H118.16q-.217,0-.217-.108c0-.052.036-.08.108-.08h.2l.2-.04a.369.369,0,0,0,.281-.245,2.682,2.682,0,0,0,.112-.5,10.961,10.961,0,0,0,.06-1.2v-1.742Z" transform="translate(-70.428 -118.7)" fill="#fff"/>
      <path id="Path_39" data-name="Path 39" d="M144.384,204.9v1.742a10.957,10.957,0,0,0,.06,1.2,1.461,1.461,0,0,0,.12.5.486.486,0,0,0,.4.245l.333.04h.277c.072,0,.108.028.108.08s-.072.108-.217.108h-2.991q-.217,0-.217-.108c0-.052.036-.08.108-.08h.2l.2-.04a.373.373,0,0,0,.277-.245,2.408,2.408,0,0,0,.112-.5,11.863,11.863,0,0,0,.064-1.2v-7.054c-.028-.442-.181-.695-.462-.759a1.863,1.863,0,0,0-.233-.04h-.189q-.108,0-.108-.084t.217-.108h2.706q.217,0,.217.108t-.108.084h-.145a1.275,1.275,0,0,0-.193.036.5.5,0,0,0-.373.237,1.3,1.3,0,0,0-.128.534,2.063,2.063,0,0,1-.02.345,3.923,3.923,0,0,0,0,.49V204.9Z" transform="translate(-85.133 -118.85)" fill="#fff"/>
      <path id="Path_40" data-name="Path 40" d="M154.9,208.745a5.552,5.552,0,0,1-.935-.08,3.376,3.376,0,0,1-.883-.277.289.289,0,0,1-.173-.153,1.389,1.389,0,0,1-.028-.361,8.544,8.544,0,0,1,.028-.891c.028-.253.028-.434.04-.542s.044-.217.108-.217.092.048.092.149v.221a2.511,2.511,0,0,0,.032.281,1.7,1.7,0,0,0,.273.642,1.473,1.473,0,0,0,.466.426,2.277,2.277,0,0,0,.606.241,3.043,3.043,0,0,0,.662.072,2.1,2.1,0,0,0,.855-.165,1.822,1.822,0,0,0,.6-.4,1.666,1.666,0,0,0,.357-.574,1.779,1.779,0,0,0,.124-.65,2.313,2.313,0,0,0-.084-.646,2.007,2.007,0,0,0-.261-.57,3.716,3.716,0,0,0-.482-.57c-.2-.193-.446-.4-.731-.658l-.61-.5a7.955,7.955,0,0,1-.883-.827,4.016,4.016,0,0,1-.534-.739,2.762,2.762,0,0,1-.273-.695,3.211,3.211,0,0,1-.072-.683,2.409,2.409,0,0,1,.2-.992,2.152,2.152,0,0,1,.562-.775,2.558,2.558,0,0,1,.879-.5A3.646,3.646,0,0,1,156,198.13a5.91,5.91,0,0,1,.695.036,3.612,3.612,0,0,1,.562.1c.128.028.225.044.293.052a1.046,1.046,0,0,0,.185,0c.088,0,.132.032.132.092a3.44,3.44,0,0,1-.024.4c-.024.225-.028.582-.028,1.044,0,.2-.032.309-.1.309s-.072,0-.08-.048a.938.938,0,0,1-.028-.128,3.335,3.335,0,0,0-.06-.345,1.052,1.052,0,0,0-.116-.333,1.169,1.169,0,0,0-.12-.173,1.036,1.036,0,0,0-.293-.245,2.008,2.008,0,0,0-.506-.213,3.023,3.023,0,0,0-.775-.084,1.763,1.763,0,0,0-1.184.4,1.449,1.449,0,0,0-.482,1.16,1.79,1.79,0,0,0,.076.534,1.606,1.606,0,0,0,.265.506,3.819,3.819,0,0,0,.518.574c.213.2.482.426.8.678l.381.3a9.913,9.913,0,0,1,.98.879,4.626,4.626,0,0,1,.61.779,2.445,2.445,0,0,1,.305.747,3.3,3.3,0,0,1,.036,1.265,2.894,2.894,0,0,1-.177.594,2.987,2.987,0,0,1-.353.614,2.373,2.373,0,0,1-.578.55,2.754,2.754,0,0,1-.96.442A4.658,4.658,0,0,1,154.9,208.745Z" transform="translate(-91.499 -118.568)" fill="#fff"/>
      <path id="Path_41" data-name="Path 41" d="M171.842,204.592v1.742a10.957,10.957,0,0,0,.06,1.2,1.557,1.557,0,0,0,.124.5.478.478,0,0,0,.4.245l.333.04h.277c.072,0,.108.028.108.08s-.072.108-.217.108h-2.983q-.217,0-.217-.108c0-.052.036-.08.108-.08h.2l.2-.04a.357.357,0,0,0,.277-.245,2.38,2.38,0,0,0,.116-.5,10.961,10.961,0,0,0,.06-1.2c0-.51,0-1.092,0-1.742v-5.741l-2.007.028a4.119,4.119,0,0,0-.534.028,2.614,2.614,0,0,0-.4.076.771.771,0,0,0-.462.329c-.072.12-.124.2-.157.265a1.253,1.253,0,0,0-.072.157c-.036.088-.084.136-.137.136s-.068-.04-.068-.124a1.794,1.794,0,0,1,.04-.265c.028-.137.06-.289.1-.454s.068-.309.1-.446.052-.217.06-.245.04-.1.06-.161.048-.1.076-.1a.494.494,0,0,1,.2.068,1.2,1.2,0,0,0,.4.1l.622.044h6.09a2.493,2.493,0,0,0,.4-.044l.241-.048a.574.574,0,0,1,.137,0c.036,0,.056,0,.06.044a.516.516,0,0,1,0,.116v1.485c0,.116-.032.173-.1.173a.068.068,0,0,1-.072-.04.655.655,0,0,1-.036-.189v-.149a.634.634,0,0,0-.1-.285.618.618,0,0,0-.261-.229,1.855,1.855,0,0,0-.5-.157,5.1,5.1,0,0,0-.8-.076l-1.71-.028Z" transform="translate(-99.869 -118.539)" fill="#fff"/>
      <path id="Path_42" data-name="Path 42" d="M189.857,198.63a3.868,3.868,0,0,1,.177-.434c.036-.064.076-.1.124-.1s.084.028.12.088a3.078,3.078,0,0,1,.177.4c.036.088.12.305.249.642s.289.755.478,1.249.4,1.032.614,1.606l.67,1.742c.221.574.434,1.116.638,1.63l.506,1.289a5.036,5.036,0,0,0,.349.731,3.15,3.15,0,0,0,.309.45.96.96,0,0,0,.273.229,1.223,1.223,0,0,0,.237.1,1.31,1.31,0,0,0,.289.068h.253c.088,0,.137.028.137.08s-.028.076-.084.088a.661.661,0,0,1-.189.02h-1.429l-.7-.02-.3-.024q-.108,0-.108-.072c0-.044.032-.076.092-.1a.189.189,0,0,0,.108-.112.325.325,0,0,0-.024-.253l-1.261-3.332a.128.128,0,0,0-.124-.08h-2.911a.145.145,0,0,0-.137.1l-.8,2.409a2.811,2.811,0,0,0-.189.907.313.313,0,0,0,.169.3.691.691,0,0,0,.345.1h.137c.092,0,.136.028.136.08s-.068.108-.2.108H185.4c-.173,0-.261-.036-.261-.108s.044-.08.124-.08a1.793,1.793,0,0,0,.189,0,1.357,1.357,0,0,0,.2,0,.984.984,0,0,0,.711-.4,3.89,3.89,0,0,0,.426-.859Zm1.409,5.42c.056,0,.076-.032.056-.1l-1.289-3.658c-.072-.2-.141-.2-.2,0l-1.2,3.658c-.028.064,0,.1.04.1Z" transform="translate(-110.81 -118.55)" fill="#fff"/>
      <path id="Path_43" data-name="Path 43" d="M211.767,206.692a4.424,4.424,0,0,0,.048.7,2.332,2.332,0,0,0,.092.462.7.7,0,0,0,.157.277.542.542,0,0,0,.233.137,2.04,2.04,0,0,0,.4.068h.289c.072,0,.108.028.108.08s-.08.108-.241.108c-.4,0-.711,0-.964-.02h-.943c-.249,0-.526.02-.831.02q-.217,0-.217-.108c0-.052.036-.08.108-.08h.241a1.36,1.36,0,0,0,.313-.068.5.5,0,0,0,.333-.434,7.726,7.726,0,0,0,.072-1.289v-7.765a3.085,3.085,0,0,1,.032-.538c.024-.092.06-.141.116-.141s.128.056.225.165.177.2.249.269.209.225.466.51.586.638.984,1.064l1.337,1.437,1.522,1.638q.506.542,1.012,1.1c.337.373.658.719.956,1.044l.8.863c.225.249.4.426.5.534l-.153-6.885a3.144,3.144,0,0,0-.112-.935.566.566,0,0,0-.4-.353,3.174,3.174,0,0,0-.4-.052h-.281q-.108,0-.108-.1c0-.064.092-.1.273-.1H219.8c.189,0,.45-.02.731-.02.161,0,.245.032.245.1s-.052.1-.153.1h-.128a1.409,1.409,0,0,0-.2.036.486.486,0,0,0-.4.329,3.244,3.244,0,0,0-.08.875l-.028,7.941v.815a.3.3,0,0,1-.032.12.076.076,0,0,1-.064.028.257.257,0,0,1-.1-.032,1.267,1.267,0,0,1-.169-.133c-.072-.06-.165-.149-.277-.261l-.442-.442-.4-.4c-.241-.241-.53-.538-.875-.9l-1.156-1.168c-.4-.4-.779-.8-1.14-1.2l-1.172-1.245-1.036-1.144c-.317-.353-.59-.658-.827-.915s-.4-.45-.514-.578Z" transform="translate(-125.629 -118.55)" fill="#fff"/>
      <path id="Path_44" data-name="Path 44" d="M240.832,202.474v-2.927a1.264,1.264,0,0,0-.136-.53.642.642,0,0,0-.45-.241.739.739,0,0,0-.221-.036h-.237q-.108,0-.108-.084t.217-.108h2.14c.253,0,.538-.02.855-.02a3.533,3.533,0,0,1,1.357.225,2.445,2.445,0,0,1,.831.542,1.7,1.7,0,0,1,.4.662,2.084,2.084,0,0,1,.108.606,2.508,2.508,0,0,1-.108.759,2.9,2.9,0,0,1-.289.63,4.608,4.608,0,0,1-.4.546c-.149.173-.305.341-.466.5a4.131,4.131,0,0,1,.8.361,3.349,3.349,0,0,1,.759.594,3.047,3.047,0,0,1,.57.835,2.485,2.485,0,0,1,.225,1.072,2.843,2.843,0,0,1-.859,2.015,3.14,3.14,0,0,1-1.08.678,4.087,4.087,0,0,1-1.518.257h-.4l-.582-.028c-.2,0-.377-.028-.542-.032h-1.614q-.217,0-.217-.108c0-.052.036-.08.108-.08h.2l.2-.04a.373.373,0,0,0,.277-.245,2.658,2.658,0,0,0,.116-.5,10.961,10.961,0,0,0,.06-1.2v-1.742Zm1.084.3a.149.149,0,0,0,.1.153l.257.032c.128,0,.317.02.57.02h.474a1.309,1.309,0,0,0,.317-.044.959.959,0,0,0,.233-.108,1.128,1.128,0,0,0,.209-.193,1.959,1.959,0,0,0,.353-.594,2.2,2.2,0,0,0,.137-.775,3.558,3.558,0,0,0-.1-.839,2.289,2.289,0,0,0-.317-.751,1.714,1.714,0,0,0-.562-.538,1.674,1.674,0,0,0-.847-.2h-.3a1.861,1.861,0,0,0-.353.056c-.108.024-.165.076-.165.149Zm0,1.437v2.931a1.678,1.678,0,0,0,.028.4.887.887,0,0,0,.06.285.558.558,0,0,0,.128.2.92.92,0,0,0,.245.165,1.426,1.426,0,0,0,.305.108,2.477,2.477,0,0,0,.337.06c.112,0,.217.024.313.028h.237a2.3,2.3,0,0,0,.6-.088,1.718,1.718,0,0,0,1.112-.891,2.044,2.044,0,0,0,.2-.943,3.72,3.72,0,0,0-.064-.662,3.369,3.369,0,0,0-.209-.735,3.413,3.413,0,0,0-.4-.7,2.775,2.775,0,0,0-.646-.61,2.16,2.16,0,0,0-.614-.3,3.642,3.642,0,0,0-.51-.1,1.654,1.654,0,0,0-.209-.02h-.847q-.084,0-.084.1Z" transform="translate(-143.453 -118.805)" fill="#fff"/>
      <path id="Path_45" data-name="Path 45" d="M258.992,202.506v-2.582a1.905,1.905,0,0,0-.02-.345,1.265,1.265,0,0,0-.137-.53.642.642,0,0,0-.446-.241.771.771,0,0,0-.225-.036h-.237q-.108,0-.108-.084t.217-.108h2.879q.217,0,.217.108t-.108.084h-.145a1.275,1.275,0,0,0-.193.036.47.47,0,0,0-.373.229,1.377,1.377,0,0,0-.128.542v4.826a8.868,8.868,0,0,0,.076,1.265,4.791,4.791,0,0,0,.209.931,2.81,2.81,0,0,0,.325.67,3.07,3.07,0,0,0,.4.482,2.481,2.481,0,0,0,.984.61,4.014,4.014,0,0,0,1.064.132,2.854,2.854,0,0,0,2.136-.976,3.091,3.091,0,0,0,.63-1.421,10.439,10.439,0,0,0,.157-1.9v-4.276a1.9,1.9,0,0,0-.02-.345,1.2,1.2,0,0,0-.137-.53.642.642,0,0,0-.446-.241.747.747,0,0,0-.225-.036H265.1q-.108,0-.108-.084t.217-.108h2.577q.217,0,.217.108t-.108.084h-.145a1.409,1.409,0,0,0-.2.036.558.558,0,0,0-.373.241,1.418,1.418,0,0,0-.129.53,2.066,2.066,0,0,1-.02.345,3.92,3.92,0,0,0,0,.49v3.553a9.5,9.5,0,0,1-.044,1.12,6.237,6.237,0,0,1-.173,1.1,4.849,4.849,0,0,1-.381,1,2.967,2.967,0,0,1-.654.835,3.72,3.72,0,0,1-.739.522,4.418,4.418,0,0,1-.727.305,3.638,3.638,0,0,1-.691.141,6.124,6.124,0,0,1-.638.036,4.148,4.148,0,0,1-.5-.024,4.3,4.3,0,0,1-.711-.112,4.132,4.132,0,0,1-.8-.293,3.132,3.132,0,0,1-.779-.534,4.49,4.49,0,0,1-.458-.55,3.354,3.354,0,0,1-.373-.731,5.092,5.092,0,0,1-.249-.984,8.761,8.761,0,0,1-.084-1.3Z" transform="translate(-154.31 -118.838)" fill="#fff"/>
      <path id="Path_46" data-name="Path 46" d="M287.428,204.919c0,1,.02,1.73.056,2.208a1.481,1.481,0,0,0,.245.9.831.831,0,0,0,.2.145,1,1,0,0,0,.3.092,4.541,4.541,0,0,0,.462.056h.67a7.709,7.709,0,0,0,.968-.056.976.976,0,0,0,.67-.353,1.414,1.414,0,0,0,.233-.4,1.9,1.9,0,0,0,.12-.4c0-.116.06-.177.12-.177s.084.068.084.2v.217q-.015.184-.048.365c-.02.136-.044.273-.064.4a3.357,3.357,0,0,1-.076.357,1.2,1.2,0,0,1-.076.189.233.233,0,0,1-.112.112.744.744,0,0,1-.237.052h-1.7l-.976-.028c-.289,0-.542-.028-.759-.032h-1.18l-.4.02h-.357q-.217,0-.217-.108c0-.052.036-.08.108-.08h.2l.2-.04a.357.357,0,0,0,.277-.245,2.38,2.38,0,0,0,.116-.5,10.957,10.957,0,0,0,.06-1.2v-6.681a1.905,1.905,0,0,0-.02-.345,1.2,1.2,0,0,0-.137-.53.642.642,0,0,0-.446-.241.747.747,0,0,0-.225-.036h-.237q-.108,0-.108-.084t.217-.108h3.019q.217,0,.217.108t-.108.084h-.2a1.286,1.286,0,0,0-.249.036.526.526,0,0,0-.4.237,1.365,1.365,0,0,0-.128.534,2.063,2.063,0,0,1-.02.345,3.926,3.926,0,0,0,0,.49v4.5Z" transform="translate(-170.662 -118.838)" fill="#fff"/>
      <path id="Path_47" data-name="Path 47" d="M42.26,242.5H40.4v1.477H40V240.7h.4v1.417h1.871V240.7h.4v3.276h-.4Z" transform="translate(-23.941 -144.047)" fill="#fff"/>
      <path id="Path_48" data-name="Path 48" d="M52.787,240.7l1.469,3.276h-.438l-.325-.719H51.623l-.321.719H50.86l1.469-3.276Zm-.229.4-.779,1.771h1.546Z" transform="translate(-30.441 -144.047)" fill="#fff"/>
      <path id="Path_49" data-name="Path 49" d="M63.53,240.7h.4v3.276h-.4Z" transform="translate(-38.024 -144.047)" fill="#fff"/>
      <path id="Path_50" data-name="Path 50" d="M70.834,242.791h-.8v1.18h-.4V240.7h1.489a1.032,1.032,0,0,1,1.112,1.048.951.951,0,0,1-.943,1.016l1.084,1.2h-.518Zm.988-1.04a.67.67,0,0,0-.7-.691H70.04v1.361H71.1a.646.646,0,0,0,.719-.67Z" transform="translate(-41.675 -144.043)" fill="#fff"/>
      <path id="Path_51" data-name="Path 51" d="M85.53,241.065V240.7h2.642v.365h-1.12v2.911h-.4v-2.911Z" transform="translate(-51.191 -144.047)" fill="#fff"/>
      <path id="Path_52" data-name="Path 52" d="M97.514,242.791h-.8v1.18h-.4V240.7h1.481a1.032,1.032,0,0,1,1.112,1.048.951.951,0,0,1-.943,1.016l1.084,1.2h-.518Zm.988-1.04a.67.67,0,0,0-.7-.691H96.72v1.361h1.072a.646.646,0,0,0,.711-.67Z" transform="translate(-57.643 -144.043)" fill="#fff"/>
      <path id="Path_53" data-name="Path 53" d="M108.563,240.7l1.469,3.276h-.45l-.325-.719h-1.871l-.321.719h-.446l1.473-3.276Zm-.229.4-.759,1.779h1.558Z" transform="translate(-63.814 -144.047)" fill="#fff"/>
      <path id="Path_54" data-name="Path 54" d="M119.581,240.7l2.007,2.509V240.7h.4v3.276h-.281l-2.007-2.5v2.5h-.4V240.7Z" transform="translate(-71.403 -144.047)" fill="#fff"/>
      <path id="Path_55" data-name="Path 55" d="M131.935,240.86c-.4,0-.859.165-.859.562s.4.462.887.542c.658.1,1.3.233,1.3.972s-.723.964-1.333.964a1.429,1.429,0,0,1-1.385-.759l.337-.2a1.2,1.2,0,0,0,1.052.574c.4,0,.927-.124.927-.606,0-.4-.454-.526-.943-.6-.634-.1-1.249-.241-1.249-.907s.691-.919,1.257-.919a1.285,1.285,0,0,1,1.208.606l-.309.189A1.1,1.1,0,0,0,131.935,240.86Z" transform="translate(-78.137 -143.914)" fill="#fff"/>
      <path id="Path_56" data-name="Path 56" d="M142.211,243.973h-.4V240.7h1.49a1.112,1.112,0,1,1,0,2.22h-1.088Zm1.088-2.9h-1.088v1.461H143.3a.731.731,0,0,0,0-1.461Z" transform="translate(-84.876 -144.044)" fill="#fff"/>
      <path id="Path_57" data-name="Path 57" d="M153.115,243.6H154.9v.377H152.71V240.7h.4Z" transform="translate(-91.4 -144.047)" fill="#fff"/>
      <path id="Path_58" data-name="Path 58" d="M163.427,240.7l1.473,3.276h-.442l-.325-.719h-1.871l-.317.719H161.5l1.469-3.276Zm-.229.4-.775,1.771h1.554Z" transform="translate(-96.661 -144.047)" fill="#fff"/>
      <path id="Path_59" data-name="Path 59" d="M174.461,240.7l2.007,2.509V240.7h.4v3.276h-.281l-2.007-2.5v2.5h-.4V240.7Z" transform="translate(-104.25 -144.047)" fill="#fff"/>
      <path id="Path_60" data-name="Path 60" d="M185.1,241.065V240.7h2.638v.365h-1.116v2.911h-.4v-2.911Z" transform="translate(-110.786 -144.047)" fill="#fff"/>
      <path id="Path_61" data-name="Path 61" d="M200.2,241.065V240.7h2.642v.365h-1.116v2.911h-.4v-2.911Z" transform="translate(-119.823 -144.047)" fill="#fff"/>
      <path id="Path_62" data-name="Path 62" d="M213.56,240.71v1.967a1.339,1.339,0,1,1-2.674,0V240.71h.4v1.967a.935.935,0,1,0,1.871,0V240.71Z" transform="translate(-126.217 -144.053)" fill="#fff"/>
      <path id="Path_63" data-name="Path 63" d="M223.754,242.791h-.8v1.18h-.4V240.7h1.489a1.028,1.028,0,0,1,1.108,1.048.948.948,0,0,1-.939,1.016l1.08,1.2h-.514Zm.988-1.04a.679.679,0,0,0-.7-.691h-1.084v1.361h1.064a.646.646,0,0,0,.719-.67Z" transform="translate(-133.2 -144.043)" fill="#fff"/>
      <path id="Path_64" data-name="Path 64" d="M233.758,240.7h.4v1.445l1.449-1.445h.514v.024l-1.574,1.554,1.714,1.67v.028h-.506l-1.606-1.538v1.538h-.4Z" transform="translate(-139.904 -144.047)" fill="#fff"/>
      <path id="Path_65" data-name="Path 65" d="M244,240.7h2.3v.373h-1.9V242.1h1.819v.377H244.4v1.112h2.007v.4H244Z" transform="translate(-146.039 -144.047)" fill="#fff"/>
      <path id="Path_66" data-name="Path 66" d="M253.72,240.73h.514l.984,1.554,1.008-1.554h.494l-1.293,1.935v1.329H255v-1.329Z" transform="translate(-151.856 -144.065)" fill="#fff"/>
    </g>
  </g>
</svg>
