<svg id="katman_2" data-name="katman 2" xmlns="http://www.w3.org/2000/svg" width="247.857" height="246.823" viewBox="0 0 247.857 246.823">
  <g id="katman_1" data-name="katman 1">
    <path id="Path_120" data-name="Path 120" d="M84.089,193.733l2.7,3.44,2.794,3.548,36.187,46.1L247.857,0l-77.8,27.192c-10.653-6.411-18.464-9.847-23.322-10.245-.812-.067-1.683-.1-2.588-.1-8.779,0-26.178,4.9-30.217,6.985-5.484,2.836-7.916,5.388-7.227,7.583a3.475,3.475,0,0,0,1.489,1.94l-5.475,3.26a1.679,1.679,0,0,0-.09-.82,1.422,1.422,0,0,0-1.191-.879,1.47,1.47,0,0,0-.2-.014c-2.491,0-18.335,9.262-22.674,14.144-.621.7-1.83,2.113-2.673,3.094C70.843,58.016,62.433,63.757,56.2,66.606c-1.2.549-2.39,1.074-3.584,1.617L0,86.626,82.618,191.856ZM124.3,211.739l7.549-15.26,9-18.192.764-1.552.672-1.358,5.714-11.55,6.785-13.714a55.1,55.1,0,0,0,3.671-7.421l15.988-32.319c1.835-1.11,3.725-2.173,5.6-3.226,6.265-3.508,12.728-7.14,16.143-12.205,2.969-3.6,5.666-9.7,7.626-14.923,1.358-3.049,2.62-6.02,3.683-8.52,1.267-2.982,2.268-5.335,2.654-5.982,1.382-2.3-1.9-7.562-2.937-9.119a43.733,43.733,0,0,0-3.71-4.765l9.7-19.6L242.442,6.19,126.237,241.1l-2.808-27.593Zm39.186-104.956a9.125,9.125,0,0,1,1.552-1.377c.121-.085.237-.163.348-.234a27.15,27.15,0,0,0,7.98,3.784c-.275.166-.553.332-.826.5a48.756,48.756,0,0,0-6.1,4.387c-6.755,5.84-7.205,11.664-7.682,17.831a56.191,56.191,0,0,1-.726,6.291c-.1.517-.227,1.049-.38,1.591l-1.686,3.415c-1.6-2.662-4.778-8.118-5.639-10.9a16.093,16.093,0,0,0,2.564-2.5,16.993,16.993,0,0,0,1.436-2.06c.1-.182.216-.363.31-.546l.287-.529q.293-.547.568-1.087c.736-1.459,1.4-2.959,1.984-4.452s1.108-2.982,1.588-4.411.931-2.794,1.38-4.048a25.889,25.889,0,0,1,1.442-3.326,11.59,11.59,0,0,1,1.6-2.327ZM171,112.6l-10.661,21.551c.073-.789.138-1.569.2-2.338.466-6.044.871-11.265,7.075-16.628A39.262,39.262,0,0,1,171,112.6ZM210.26,33.229l-8.29,16.764a58.247,58.247,0,0,0-7.856-6.748q-2.1-1.506-4.126-2.926ZM241.047,4.612,211.806,30.458l-23.946,8.368q-8.489-5.9-15.477-10.215ZM207.053,61.526l-.065-.014-.155-.034c-.059-.014-.126-.034-.2-.054l-.113-.033-.121-.04c-.081-.029-.169-.057-.256-.095s-.18-.071-.27-.116l-.137-.064c-.045-.022-.09-.047-.135-.07s-.092-.047-.135-.071l-.132-.075c-.087-.048-.169-.1-.251-.155s-.155-.1-.228-.155-.138-.1-.2-.147l-.165-.13-.123-.1c-.067-.059-.1-.1-.1-.1s.036.039.1.1c.031.033.071.07.116.112s.1.09.155.14.123.1.191.155l.22.168c.081.054.155.116.245.169l.129.084c.043.028.088.053.132.079s.088.054.134.079l.137.071c.088.051.18.092.267.133s.175.078.258.112l.121.048.087.031a5.116,5.116,0,0,1-2.709-1.568,4.222,4.222,0,0,0,.663-.4,6.007,6.007,0,0,0,2.678,1.833.619.619,0,0,1,.078.016.756.756,0,0,1-.219.09Zm-2.631-2.507a2.306,2.306,0,0,1-.287.234l-.012-.033-.155.064-.189.076-.057.023-.064.023-.14.048-.155.054-.084.029-.088.026-.391.12-.45.121c-.155.042-.328.079-.5.123s-.362.078-.551.12-.39.076-.593.115-.413.073-.621.11l-.658.1-.681.1c-.23.029-.466.061-.7.088-.466.056-.95.11-1.428.155l-.36.036-.359.031-.712.061c-.466.037-.931.07-1.386.1s-.885.053-1.3.073-.8.039-1.163.053c-1.439.057-2.4.065-2.4.065s.956.022,2.392,0c.36,0,.75-.008,1.161-.017s.848-.02,1.3-.036.914-.034,1.388-.057c.237-.012.475-.023.714-.039l.36-.022.362-.023c.48-.033.961-.071,1.436-.113.236-.02.466-.047.7-.068l.688-.076.43-.056c-1.124.208-2.423.39-3.881.54a81.549,81.549,0,0,1-11.31.362c-5.985-.3-9.816-1.461-10.785-3.26a2.03,2.03,0,0,1-.214-.621,4.274,4.274,0,0,0,.31.349,5.7,5.7,0,0,0,.681.6c.13.1.273.2.419.295l.23.143c.039.023.078.048.118.07l.121.068a10.408,10.408,0,0,0,1.056.511l.286.112.144.057.146.051.3.1.31.095c.1.029.2.064.31.09l.31.082c.206.057.416.1.621.155s.421.085.63.127.419.071.621.1l.31.048.31.037c.2.023.407.053.607.068l.587.053.563.036.272.016a2.092,2.092,0,0,1,.262.011l.5.016c.155,0,.31,0,.466.008h1.062l.587-.011-.587-.011c-.186,0-.411,0-.671-.017l-.413-.019c-.146,0-.3-.011-.466-.023l-.5-.034c-.085-.008-.174-.011-.262-.02l-.269-.026-.559-.056-.584-.073c-.2-.023-.4-.059-.6-.09l-.31-.048-.31-.059c-.2-.04-.411-.076-.621-.126s-.414-.09-.621-.147-.41-.106-.61-.169l-.3-.092c-.1-.031-.2-.068-.3-.1s-.2-.067-.292-.1l-.286-.112-.141-.054c-.047-.019-.093-.04-.138-.061l-.273-.12a9.849,9.849,0,0,1-1-.528l-.115-.07c-.037-.022-.073-.048-.109-.071l-.213-.143c-.135-.1-.267-.192-.385-.293a5.177,5.177,0,0,1-.612-.574,4.014,4.014,0,0,1-.391-.5,2.724,2.724,0,0,1-.194-.345c-.008-.019-.016-.034-.02-.048a2.624,2.624,0,0,1,1.282-1.9c1.543-.844,4.5-.38,9.043,1.417,1.968.776,5.549,1.718,11.432,1.776a51.855,51.855,0,0,0,7.693-.452c.714-.124,1.192.029,1.422.456a.992.992,0,0,1,.112.349.756.756,0,0,1-.247.57Zm-5.063-3.294c-.38-.31-.75-.6-1.04-.816a4.035,4.035,0,0,0-.439-.295.961.961,0,0,1,.685.081,20.371,20.371,0,0,1,2.973,2.631l-.4.037A17.923,17.923,0,0,0,199.358,55.725ZM184.1,43a6.814,6.814,0,0,0,.109.835,4.024,4.024,0,0,0,.1.432c.039.144.071.293.116.441s.1.293.155.442a4.017,4.017,0,0,0,.175.445,9.557,9.557,0,0,0,.433.889c.081.146.165.293.247.441l.062.112c.026.045.048.073.073.11l.144.211.29.427.334.41c.113.133.217.279.341.405l.366.385c.238.265.511.5.776.74l.2.18.2.169.411.338c.135.116.278.219.421.324l.422.31c.282.208.577.391.86.585s.581.359.863.534c.576.335,1.142.641,1.693.9.27.141.546.253.807.371.132.057.259.12.388.169l.38.155.363.141c.12.045.239.081.354.121.231.073.447.155.657.21l.585.155c.182.045.352.071.5.1a4.55,4.55,0,0,0,.612.092c-.449.082-4.138.525-10.09-4.812a11.287,11.287,0,0,1-3.045-4.078,6.588,6.588,0,0,1-.444-3.334,6.264,6.264,0,0,1,.216-.992c-.011.051-.019.1-.029.155A6.4,6.4,0,0,0,184.1,43Zm17.68,14.316a21.525,21.525,0,0,0-3.126-2.772,1.074,1.074,0,0,0-1.087.04h-.009a4.582,4.582,0,0,1-.621-.1c-.155-.033-.321-.062-.5-.109l-.582-.165c-.21-.056-.422-.141-.653-.217-.113-.04-.231-.078-.351-.124l-.362-.146-.377-.155c-.127-.051-.255-.115-.385-.174-.259-.121-.532-.236-.8-.379-.545-.272-1.107-.582-1.675-.924-.281-.18-.573-.349-.854-.542s-.57-.383-.848-.595l-.418-.31c-.14-.106-.281-.211-.413-.328l-.405-.341-.2-.171-.945-.922-.357-.387c-.123-.126-.22-.269-.331-.4l-.321-.4-.286-.43-.141-.213c-.022-.034-.051-.075-.067-.1l-.059-.11-.239-.439a9.534,9.534,0,0,1-.413-.877,3.948,3.948,0,0,1-.166-.438l-.147-.433c-.043-.144-.073-.29-.109-.432a3.791,3.791,0,0,1-.093-.421,6.635,6.635,0,0,1-.1-.81,6.166,6.166,0,0,1,.067-1.417,5.527,5.527,0,0,1,.13-.577,4.661,4.661,0,0,1,.155-.477,4.288,4.288,0,0,1,.3-.629c.033-.059.059-.1.079-.13,1.538,3.85,4.275,6.1,6.766,8.359a62,62,0,0,0,7.365,5.765,13.17,13.17,0,0,1,3.483,3.333c-.255.025-.559.061-.914.1ZM184.991,39.582Zm-38.4-20.865c4.446.36,11.586,3.457,21.308,9.223.768.455,1.552.922,2.347,1.411q6.594,4.036,14.65,9.573c-.019,0-.04,0-.048.009a6.28,6.28,0,0,0-1.385,3.32,7.055,7.055,0,0,0,.466,3.593,8.577,8.577,0,0,0,.425.911,12.826,12.826,0,0,0,2.757,3.371,19.892,19.892,0,0,0,7.643,4.649,6.428,6.428,0,0,0,2.9.275,23.917,23.917,0,0,1,2.855,2.358c-1.371.1-3.131.185-5.048.166-5.807-.056-9.326-.978-11.255-1.74-4.755-1.881-7.761-2.328-9.469-1.4a3.164,3.164,0,0,0-1.552,2.307,2.564,2.564,0,0,0,.25,1.752h0c.571,1.06,1.948,1.906,4.093,2.512a32.959,32.959,0,0,0,7.106,1.011,82.888,82.888,0,0,0,11.386-.363,27.929,27.929,0,0,0,7.341-1.462,6.4,6.4,0,0,0,2.409,1.684,2.173,2.173,0,0,0,1.648.034.566.566,0,0,0,.383-.57c-.016-.1-.1-.357-.545-.424a5.651,5.651,0,0,1-2.389-1.683,1.188,1.188,0,0,0,.31-.846,1.456,1.456,0,0,0-.171-.553,1.668,1.668,0,0,0-1.784-.734,13.582,13.582,0,0,0-3.775-3.677,60.821,60.821,0,0,1-7.3-5.709c-2.612-2.372-5.649-5.093-6.578-8.027-.016-.048-.084-.245-.155-.408.124.085.245.166.369.253q1.054.73,2.136,1.485,2.515,1.759,5.155,3.646a55.536,55.536,0,0,1,8.051,7l1.52,1.681a41.481,41.481,0,0,1,3.086,4.028c2.847,4.269,3.179,6.751,2.893,7.226-.427.711-1.274,2.692-2.546,5.68-2.173.057-7.718,1.087-12.82,9.3C186.743,90.089,171.586,98.733,168,99s-8.112-.133-6.383,2.794a4.792,4.792,0,0,0,.571.751,13.135,13.135,0,0,0-1.661,1.8,15.3,15.3,0,0,0-1.863,3.2,28.96,28.96,0,0,0-1.335,3.881c-.379,1.363-.717,2.78-1.087,4.222s-.745,2.915-1.2,4.387-.964,2.949-1.552,4.391c-.13.377-.286.736-.441,1.088l-.242.542c-.078.174-.155.34-.239.511a15.387,15.387,0,0,1-1.115,1.936,14.619,14.619,0,0,1-2.969,3.2,16.5,16.5,0,0,1-3.57,2.131,20.618,20.618,0,0,1-3.593,1.184,25.68,25.68,0,0,1-5.694.641,18.836,18.836,0,0,1-2.189-.1,18.868,18.868,0,0,0,2.173.29,26.654,26.654,0,0,0,4.574-.014c-.751,1.1-2,3.539-.264,4.058,2.241.671,3.592-2.685,6.656-2.876,2.914-.183,8.859,6.844,7.3,8.106l-5.945-.965c-1.739-.441-3.2-.453-2.67.352,1.124,1.707,3.618,3.191,1.892,3.362s-2.018,1.593.574,1.506,2.626,1.735,1.745,2.215-3.95,0-3.375,2.109a5.818,5.818,0,0,1-1.343,5.209,4.444,4.444,0,0,0-.7,2.173,26.415,26.415,0,0,0-5.554,8.66c-3.474,8.961-2.651,7.406-2.651,7.406s5.122-7.564,8.581-10.866l-15.283,30.913-7.05,14.253-.9-1.149c-.369-1.962-1.156-6.1-1.318-6.626-.106-.348-.234-.776-.383-1.257-.036-.121-.075-.247-.113-.374s-.09-.259-.137-.393q-.141-.4-.295-.846c-.213-.587-.413-1.231-.686-1.891s-.526-1.368-.829-2.083-.621-1.45-.962-2.189-.7-1.485-1.074-2.22l-.571-1.1-.27-.548-.31-.528c-.2-.354-.394-.7-.588-1.051s-.405-.677-.6-1.009c-.39-.664-.8-1.287-1.178-1.88s-.762-1.141-1.116-1.642-.686-.958-.99-1.352-.574-.737-.795-1.018c-.452-.553-.726-.855-.726-.855s.236.332.621.931c.186.31.419.669.666,1.1s.523.914.816,1.448.593,1.122.9,1.745.632,1.284.931,1.981c.155.346.31.7.466,1.054l.452,1.087.228.553.214.562c.143.376.284.754.427,1.132.281.754.525,1.524.784,2.271s.456,1.5.677,2.223.379,1.431.557,2.1.31,1.3.439,1.888q.095.439.185.841c.029.132.059.262.085.388s.045.251.067.371c.085.48.155.9.222,1.242l.135.757-5.228-6.658L92.478,173.708a4.023,4.023,0,0,0,2.279-.931c1.347-1.226-4.23-4.474-4.841-6.13s.919-1.225.919-1.225c1.532,3.187,5.638,3.923,6.436,2.083s-4.6-3.434-7.354-5.762-.858-6.436.734-5.639a2.286,2.286,0,0,0,.587.2c2.985,2.544,5.559,7.032,8.287,7.977s3.8,2.328,5.017,5.916c1.954,5.757,12.994,12.148,18.006,7.395s-11.514-1.954-14.156-6.656-3.326-8.45-7.182-9.719c-2.765-.908-4.579-4.641-7.274-6.9a1.04,1.04,0,0,1,.02-.118c.121-1.349-1.717-1.164-3-2.018s.31-2.018-.92-4.536-3.432.43-2.879,1.962-1.777,3.064-3.371.635c-.667-1.018-.528-2.878-.14-4.694,1.338-2.28,2.639-5.374,2.054-8.107-1.1-5.091-7.67-12.227-7.9-15.282s1.472,2.493,3.51,2.949c.888.2,1.58-.857,1.863-2.262l.608,1.029.711,1.214c.12.208.245.413.374.621s.253.41.388.608a28.282,28.282,0,0,0,1.715,2.342,24.874,24.874,0,0,0,4.127,4.036,23.23,23.23,0,0,0,4.786,2.808,24.9,24.9,0,0,0,4.9,1.576,28.012,28.012,0,0,0,4.542.573,31.373,31.373,0,0,0,6.78-.441,21.448,21.448,0,0,0,2.505-.565,21.583,21.583,0,0,1-2.53.393,31.124,31.124,0,0,1-6.706-.026,27.217,27.217,0,0,1-4.365-.855,23.693,23.693,0,0,1-4.57-1.816A21.719,21.719,0,0,1,92.15,131.4a22.934,22.934,0,0,1-3.562-3.983,26.157,26.157,0,0,1-1.434-2.268c-.113-.192-.213-.393-.32-.588s-.211-.391-.31-.593l-.3-.6-.289-.621c-.768-1.67-1.527-3.317-2.288-4.91s-1.526-3.132-2.328-4.584a32.831,32.831,0,0,0-2.592-4.025,22.683,22.683,0,0,0-2.853-3.08,26.87,26.87,0,0,0-2.539-1.993c-.725-.5-1.305-.863-1.7-1.108L71.557,103a17.6,17.6,0,0,0-1.886-12.475A23.529,23.529,0,0,1,80.789,87.86,26.715,26.715,0,0,1,89.9,89.426l.685.281.4-.621c3.337-5.236,7.58-6.926,10.315-7.451a18.5,18.5,0,0,1,1.45,5.84,13.6,13.6,0,0,0,2.6,7.7q.31.492.63.967a32.263,32.263,0,0,0,2.507,3.126q1.344,1.476,2.813,2.842a35.492,35.492,0,0,0,3.078,2.581c.134.1.279.2.424.3s.293.192.38.259a1.675,1.675,0,0,1,.475.6,8.935,8.935,0,0,1,.522,1.785,15.443,15.443,0,0,0,.573,1.97,10.6,10.6,0,0,0,.931,1.863,13.349,13.349,0,0,0,2.749,3.073c.526.436,1.065.848,1.631,1.231l.427.287c.141.095.279.177.421.267l.837.526a22.794,22.794,0,0,1,3.063,2.344,27.474,27.474,0,0,1,2.675,2.794,32.063,32.063,0,0,1,2.305,3.145,36.775,36.775,0,0,1,1.936,3.381c.29.581.568,1.167.827,1.762s.508,1.2.708,1.787l.281.81.68-.445.419-.273a2.988,2.988,0,0,0,.4-.3c.124-.109.261-.206.374-.326l.342-.352c.115-.118.208-.25.31-.374l.155-.191.137-.2c.088-.133.186-.264.267-.4l.241-.414c.078-.138.144-.283.216-.424s.135-.286.2-.43.126-.29.178-.438.113-.293.155-.442.1-.3.143-.447.088-.3.126-.453.075-.31.107-.466c.019-.09.036-.177.053-.267.178-.183.359-.363.529-.553.213-.251.442-.487.641-.751s.411-.515.6-.789.371-.548.548-.826.337-.571.492-.863.3-.59.432-.9.251-.621.371-.922a7.862,7.862,0,0,0,.3-.948c.084-.328.165-.643.234-.965l.09-.489.071-.492a14.549,14.549,0,0,0,.116-1.979,14.046,14.046,0,0,0-.155-1.976c-.047-.328-.109-.654-.182-.978-.037-.155-.076-.324-.121-.486-.023-.087-.048-.169-.073-.255a9.058,9.058,0,0,0,.712-1.85,5.336,5.336,0,0,0,.155-1.178,3.978,3.978,0,0,0-.188-1.212,4.4,4.4,0,0,0-.517-1.077c-.1-.163-.224-.328-.332-.475l-.318-.4a1.922,1.922,0,0,1-.39-.706,1.723,1.723,0,0,1,.059-.793,19.635,19.635,0,0,1,.675-1.925l.757-1.97c.061-.166.124-.321.185-.5l.171-.523a9.273,9.273,0,0,0,.273-1.077,6.265,6.265,0,0,0,0-2.269,4.736,4.736,0,0,0-1.009-2.058,10.045,10.045,0,0,0-1.611-1.482c-.13-.1-.259-.2-.393-.323a1.268,1.268,0,0,1-.141-.134.806.806,0,0,1-.085-.144,1.8,1.8,0,0,1-.1-.851,7.624,7.624,0,0,1,.477-1.945c.02-.056.045-.11.067-.166l1.3-1.692c4.127-5.374,14.815-6.642,17.68-6.889a33.775,33.775,0,0,0-6.38,15.192h.076c.146-.31,5.875-20.609,19.668-23.043a11.325,11.325,0,0,0,7.114,4.217s-2.515-3.848-2.005-7.816c2.688,1.664,9.981,5.164,17.872.267,0,0-13.21-.239-22.287-7.3-3.6-3.511-6.8-8.64-9.411-13.244-.36-.633-.709-1.257-1.046-1.863-.394-.711-.776-1.4-1.135-2.06-.595-1.087-1.156-2.108-1.683-3.038a44.452,44.452,0,0,0-5.363-7.67,22.5,22.5,0,0,0-1.645-1.658c-1.515-1.363-2.9-2.139-4-2.139-1.965,0-6.692,2.3-7.51,2.71a8.817,8.817,0,0,0,2.831-7.171c.244-.155.449-.287.621-.391s.31-.18.4-.227l.144-.061-.155.037a4.011,4.011,0,0,0-.43.168c-.369.166-.9.422-1.591.7a21.935,21.935,0,0,1-2.546.827c-.5.133-1.026.251-1.605.371a6.384,6.384,0,0,1-1.725.129,13.363,13.363,0,0,1-3.865-.891,21.915,21.915,0,0,1-2-.889c-.332-.169-.664-.349-.986-.54-.155-.095-.31-.2-.466-.293a1.321,1.321,0,0,1-.155-.115c-.017-.02-.025-.034-.047-.059a.716.716,0,0,0-.183-.129l.051-1.484s-.556.871-.911,1.482c-.092.023-.182.048-.264.073,0-.613-.026-1.552-.026-1.552l-1.163,1.984-.337.133.093-1.729-1.056,2.13-.206.09V23.977l-1.028,2.06-.165.078V24.862l-.984,1.739c-.177.09-.352.175-.528.27l-.1-1.215-1.114,1.9c-.141.085-.283.175-.425.265l.155-1.451L122.5,28.6c-.067.039-.137.075-.2.112V27.3l-.908,1.853c-.126.056-.248.116-.376.171l-.287-1.515-1.069,2.037c-.129.045-.261.085-.39.129l-.233-1.552-1.61,2.111-.062.019c-.088.023-.177.04-.265.062l-.174-1.588-1.242,1.892c-.224.04-.45.087-.671.115a7.431,7.431,0,0,1-1.118.076,2.246,2.246,0,0,1-.452-.047h0a1.838,1.838,0,0,1,.211-.343,6.449,6.449,0,0,1,.722-.776,21.289,21.289,0,0,1,1.7-1.4c1.163-.872,2.307-1.65,3.361-2.408s1.988-1.464,2.825-2.094,1.552-1.187,2.151-1.645c.224-.171.421-.324.605-.466,6.293-1.74,13.925-3.308,19.13-3.308C145,18.627,145.823,18.655,146.587,18.717Zm-95.363,92.7c1.908-7.381,8.575-14.1,9.014-17.585a6.959,6.959,0,0,1,1.509-.179,5.766,5.766,0,0,1,1.065.1c.3.092.711.222,1.181.388l.363.191.047-.042A13.915,13.915,0,0,1,68.935,96.8c.466,1.226,2.484,7.064-.442,10.183-3.286,3.5-2.446,4.4-.838,4.264,1.115-.1,2.352-1.523,2.991-3.308l.244.132a22.666,22.666,0,0,1,2.258,1.422,18.6,18.6,0,0,1,2.572,2.271,28.934,28.934,0,0,1,2.639,3.325l.054.079c-.247-.019-.449.106-.635.425-.66,1.132-1.642,2.842-2.848,3.176-.343.095-.709.18-1.035.3-.79-2.376-2.524-5.562-5.358-5.562a4.377,4.377,0,0,0-2.082.565,41.6,41.6,0,0,1-10.476,3.918C53.34,117.591,49.982,116.21,51.224,111.418Zm36.852-54.9c.008-.081.022-.155.026-.242v-.242a4.959,4.959,0,0,0-.019-.712l.593.534c-.214.275-.419.556-.621.835C88.062,56.633,88.068,56.576,88.075,56.518ZM86.368,62.27v-.008Zm-1.413.509c0,.012.012.029.017.043-.365.133-.75.265-1.146.4.192-.155.388-.324.574-.5s.341-.321.509-.486a.162.162,0,0,1-.009.065,1.4,1.4,0,0,0,.051.478Zm-5.694,3.558c2.794-.657,9.4-2.4,10.625-4.384a18.734,18.734,0,0,1,2.207-2.718,3.416,3.416,0,0,0,.854-.351,2.346,2.346,0,0,0,.725,2.3,3.125,3.125,0,0,0,1.945.641,3.781,3.781,0,0,0,2.577-1.011,4.934,4.934,0,0,0,1.576,1.212,9.318,9.318,0,0,0,.582,7.381L65.6,81.555c.331-.826.635-1.635.9-2.4,1.929-5.681,9.317-12.007,12.759-12.817Zm20.28-13.92-1.6-4.21,1.229,1.648a2.96,2.96,0,0,0-.042.453c0,1.673,1.534,3.9.177,6.242A6.309,6.309,0,0,0,101,53.537a4.378,4.378,0,0,0,1.242-2.794v-.234l.129.166a.31.31,0,0,0,.216.115c.534,1.863,1.326,4.013.078,6.3,0,0,2.339-2.383,2.147-4.824a5.417,5.417,0,0,1,1.017-3.826,3.618,3.618,0,0,0-1.7,3.039c.07,2-.155,1.917-.155,1.917a13.3,13.3,0,0,0-.73-2.89,5.38,5.38,0,0,1-.376-2.313,4.729,4.729,0,0,1,.138-.826c.033-.123.059-.245.1-.366a3.956,3.956,0,0,1,.391-.776,3.651,3.651,0,0,1,.258-.374,2.216,2.216,0,0,0-.31.219l-.435-1.2,2.827,3.468c.523,1.929,1.495,4.208.169,6.634a9.6,9.6,0,0,0,1.552-2.237,6.183,6.183,0,0,1-.965,2.994s2.881-2.564,2.847-5.391a6.255,6.255,0,0,1,1.465-4.329,4.172,4.172,0,0,0-2.192,3.37c-.073,2.311-.324,2.195-.324,2.195a17.029,17.029,0,0,0-.256-1.96,5.451,5.451,0,0,1,.907-3.125c.07-.1.123-.166.123-.166s-.062.037-.163.11a4.043,4.043,0,0,0-.952.976,3.274,3.274,0,0,0-.264.453c-.023.048-.042.1-.064.155a6.007,6.007,0,0,1-.019-3.365l.953,1.29a7.881,7.881,0,0,1,.335-1.853l-.373-1.1c.037-.043.073-.088.113-.13,0,0-.053.025-.135.071l-.186-.548.776,1.155h0l.7,1.042a.527.527,0,0,1,.019-.053.531.531,0,0,0-.019.053l.874,1.3a.31.31,0,0,0,.4.107l.009-.008c-.071-.38-.155-.75-.234-1.105.078.355.155.725.234,1.105a5.574,5.574,0,0,1-.045,2.692,4.132,4.132,0,0,0-.838.832,3.9,3.9,0,0,0-.556,1.073,6.176,6.176,0,0,0-.262,1.141c-.106.757-.133,1.495-.211,2.207a10.444,10.444,0,0,1-.4,2.047,8.071,8.071,0,0,1-.359.931c-.067.155-.146.292-.216.43s-.155.283-.236.421c-.31.554-.621,1.054-.931,1.512a14.707,14.707,0,0,1-.91,1.2,9.987,9.987,0,0,1-.8.837,4.988,4.988,0,0,1-.584.466,1.771,1.771,0,0,1-.227.137,1.82,1.82,0,0,0,.234-.124,5.027,5.027,0,0,0,.613-.436,10.091,10.091,0,0,0,.857-.8,15.087,15.087,0,0,0,.986-1.158c.34-.442.691-.931,1.032-1.473l.261-.408c.084-.155.172-.289.251-.441a8.172,8.172,0,0,0,.432-.952A10.934,10.934,0,0,0,109.8,54c.12-.728.191-1.468.331-2.173a4,4,0,0,1,.785-1.841,3.26,3.26,0,0,1,.716-.632,4.285,4.285,0,0,1,.413-.234c.12-.068.323-.146.449-.2.86-.343,1.68-.658,2.445-.942.113.509.211,1.031.286,1.552l-.079.056-.2.138-.081.057-.107.073c-.144.093-.286.194-.425.3a5.645,5.645,0,0,0-.806.723,3.7,3.7,0,0,0-.635.959,3.452,3.452,0,0,0-.286,1.116,5.552,5.552,0,0,0,.011,1.068c.008.071.019.138.028.21a17.3,17.3,0,0,0-1.125,3.132c-.655,2.671-2.4,2.328-2.4,2.328s2.539.481,3.2-1.282c.34-.9.484-1.515.635-1.964.064.466.121.942.155,1.413.051.633.078,1.256.068,1.9-.017.31-.026.621-.05.931l-.061.466a4.618,4.618,0,0,1-.07.466,7.5,7.5,0,0,1-.224.907,4.33,4.33,0,0,1-.155.445l-.185.43a5.734,5.734,0,0,1-1.049,1.552,4.393,4.393,0,0,1-1.568,1.069,4.225,4.225,0,0,0,1.735-.888,5.807,5.807,0,0,0,1.282-1.52l.239-.442c.057-.11.1-.227.155-.341a.137.137,0,0,0,0,.026c.022.191.043.422.067.685s.043.557.061.874.025.661.014,1.018a10.9,10.9,0,0,1-.071,1.105,9.157,9.157,0,0,1-.211,1.13c-.061.183-.106.373-.18.548-.034.09-.064.182-.1.269l-.124.258a2.271,2.271,0,0,1-.132.251c-.05.082-.09.169-.144.245-.113.155-.2.31-.332.455l-.18.214-.2.2a5.135,5.135,0,0,1-.41.371,6.963,6.963,0,0,1-.885.613,4.274,4.274,0,0,1-.45.247,4.075,4.075,0,0,1-.438.216l-.414.188c-.133.061-.265.1-.387.155-.245.1-.466.189-.643.245s-.323.12-.422.155l-.042.017.3-.191a8.863,8.863,0,0,0,.838-.588,3.919,3.919,0,0,0,.872-.945,3.03,3.03,0,0,0,.466-1.444,4.346,4.346,0,0,0-.211-1.562,7.916,7.916,0,0,0-.621-1.423c-.127-.222-.251-.441-.394-.655l-.2-.314-.211-.293-.2-.281c-.056-.082-.11-.165-.155-.247a1.9,1.9,0,0,1-.194-.506,1.708,1.708,0,0,1,.1-1.014,3.444,3.444,0,0,1,.548-.9,8.361,8.361,0,0,1,1.231-1.194c.331-.265.534-.408.534-.408a4.519,4.519,0,0,0-.647.216,5.685,5.685,0,0,0-.714.34,5.238,5.238,0,0,0-.866.587,3.649,3.649,0,0,0-.844.99,2.653,2.653,0,0,0-.278.714,2.453,2.453,0,0,0-.039.827,2.743,2.743,0,0,0,.239.81,2.872,2.872,0,0,0,.2.366l.2.31.2.3.183.292c.126.191.234.4.352.6a8.759,8.759,0,0,1,.57,1.225,4.036,4.036,0,0,1,.255,1.2A2.4,2.4,0,0,1,108.9,70.2a3.8,3.8,0,0,1-.591.891c-.109.127-.217.247-.324.363a1.253,1.253,0,0,0,.082-.21,2.068,2.068,0,0,0,.093-.466,2.091,2.091,0,0,0-.053-.632,2.529,2.529,0,0,0-.116-.359,2.6,2.6,0,0,0-.2-.354,2.18,2.18,0,0,0-.269-.334c-.051-.053-.1-.109-.155-.155l-.174-.138a2.349,2.349,0,0,0-.376-.248l-.179-.1-.177-.1c-.127-.064-.217-.13-.321-.189s-.206-.132-.31-.2a6.985,6.985,0,0,1-.584-.439c-.084-.084-.179-.155-.259-.239s-.166-.163-.237-.248a3.151,3.151,0,0,1-.21-.256,2.562,2.562,0,0,1-.183-.261,3.6,3.6,0,0,1-.455-1.011,4.075,4.075,0,0,1-.1-.411l-.056-.382s-.016.033-.047.092a2.528,2.528,0,0,0-.116.27,2.436,2.436,0,0,0-.112.45,2.6,2.6,0,0,0-.025.621,3.039,3.039,0,0,0,.155.728,2.684,2.684,0,0,0,.155.377,2.749,2.749,0,0,0,.206.373,4.061,4.061,0,0,0,.553.689c.11.1.217.208.335.3s.234.188.36.269.247.163.385.236a3.854,3.854,0,0,0,.391.2l.362.155a2.949,2.949,0,0,1,.3.141l.141.076.127.087a2,2,0,0,1,.234.182,2.705,2.705,0,0,1,.2.2,2.312,2.312,0,0,1,.155.219,2.217,2.217,0,0,1,.222.447,2.793,2.793,0,0,1,.112.4,2.754,2.754,0,0,1,.047.318l-.25.264c-.21.211-.385.41-.528.574a4.556,4.556,0,0,0-.31.4c-.064.1-.1.155-.1.155l.141-.107c.09-.071.231-.165.405-.284.085-.053.179-.113.279-.179l.124.014c.1,0,.258.023.453.029a5.2,5.2,0,0,0,.711,0c.137-.009.284-.012.438-.033l.484-.075a4.413,4.413,0,0,0,.525-.118,4.544,4.544,0,0,0,.556-.172,5.934,5.934,0,0,0,1.15-.56,4.734,4.734,0,0,0,.557-.408l.141-.12.036.051c.062.085.143.219.248.38a6.741,6.741,0,0,1,.337.6c.059.118.123.241.177.376s.113.272.166.418.09.3.14.456a4.877,4.877,0,0,1,.084.486,2.3,2.3,0,0,0,.023.25,2.266,2.266,0,0,1,0,.251,3.3,3.3,0,0,1-.054.508,2.056,2.056,0,0,1-.068.25,1.808,1.808,0,0,1-.078.251l-.1.227-.045.107-.078.144-.155.289c-.053.1-.107.174-.155.264l-.155.262-.174.27-.706,1.1a13.262,13.262,0,0,0-.661,1.15,6.066,6.066,0,0,0-.27.6,4.882,4.882,0,0,0-.206.605l-.043.155c-.009.051-.019.1-.029.155-.017.1-.034.2-.051.3a5.412,5.412,0,0,0-.033.581,4.212,4.212,0,0,0,.059.529,3.686,3.686,0,0,0,.129.455,1.618,1.618,0,0,0,.155.374c.059.109.112.21.155.3.118.168.222.289.287.373s.1.126.1.126-.05-.231-.147-.6c-.011-.095-.023-.2-.037-.31a1.755,1.755,0,0,1-.026-.359c.008-.127-.009-.259.011-.4s.033-.281.067-.425a3.06,3.06,0,0,1,.132-.445,4.574,4.574,0,0,1,.2-.466,5.083,5.083,0,0,1,.256-.473l.143-.241.155-.245c.214-.329.466-.666.709-1.02s.509-.72.757-1.107a10.236,10.236,0,0,0,.672-1.214l.07-.147V76.12s.019-.036.011-.022h0v-.022l.017-.045.033-.09.121-.359a2.658,2.658,0,0,0,.081-.366,2.51,2.51,0,0,0,.053-.366,3.546,3.546,0,0,0-.02-.717c-.017-.115-.026-.23-.051-.338s-.057-.216-.088-.32a1.8,1.8,0,0,0-.107-.3c-.039-.1-.078-.191-.12-.281a5.4,5.4,0,0,0-.286-.492,4.3,4.3,0,0,0-.31-.411,3.9,3.9,0,0,0-.31-.337,4.965,4.965,0,0,0-.525-.484,3.949,3.949,0,0,0-.39-.258l-.05-.028.092-.079c.084-.084.165-.174.247-.262a4.794,4.794,0,0,0,.456-.57c.073-.1.129-.21.192-.31a2.611,2.611,0,0,0,.177-.323c.017-.033.026-.068.042-.1.037.065.076.129.112.192.129.245.265.483.382.728.056.124.115.245.166.369s.1.245.143.366l.031.078.076.061c.093.075.2.155.29.244s.194.169.29.258c.189.174.377.352.56.536.057.057.113.118.169.177a12.739,12.739,0,0,1-1.214,9.082,11.353,11.353,0,0,0,2.443-7.673c.043.056.088.109.132.166.082.1.155.21.225.31s.155.21.222.321l.211.329c.07.112.132.227.2.34.031.057.065.115.1.172l.09.175c.022.045.047.088.068.132a1.979,1.979,0,0,0-.042.208,2.578,2.578,0,0,0-.037.385v.135l.087-.106c.051-.068.133-.166.236-.284a5.262,5.262,0,0,1,.377-.4,2.981,2.981,0,0,1,.241-.22c.085-.065.179-.155.276-.222a6.916,6.916,0,0,1,1.433-.807l.061-.025-.562,1.1a4.669,4.669,0,0,0,.919,3.1c1.065,1.177,1.807,2.688,1.242,3.943a3.567,3.567,0,0,0,.192-3.277c-.722-1.884-2.069-3.2-.692-5.285l.182-.064c.168-.056.338-.11.5-.169.2-.075.4-.155.6-.244l.064,1.293a2.153,2.153,0,0,0,.1.273,1.755,1.755,0,0,0,.126.261c.093.175.183.32.276.475s.168.3.241.45a5.822,5.822,0,0,1,.343.844,3.523,3.523,0,0,1,.14.633,1.553,1.553,0,0,1,.011.247,1.5,1.5,0,0,0,.026-.248,3.542,3.542,0,0,0-.042-.663,6.118,6.118,0,0,0-.217-.917c-.051-.165-.115-.334-.179-.506s-.141-.34-.194-.5a1.3,1.3,0,0,1-.073-.241,1.618,1.618,0,0,1-.051-.241,2.416,2.416,0,0,1-.033-.466,2.341,2.341,0,0,1,.348-1.167c.014-.009.031-.017.045-.025a5.286,5.286,0,0,0,.447-.292,9.439,9.439,0,0,0,.795-.61c.129-.107.248-.216.362-.321-.033.062-.07.118-.1.183a4.843,4.843,0,0,0-.25.608,4,4,0,0,0-.163.661,2.915,2.915,0,0,0-.028.351,2.566,2.566,0,0,0,.022.354,4.216,4.216,0,0,0,.129.584,3.062,3.062,0,0,0,.2.508c.075.155.155.269.2.365a.7.7,0,0,1,.078.273,1.614,1.614,0,0,1,0,.211v.079l.05-.062a.917.917,0,0,0,.124-.192.776.776,0,0,0,.082-.376,4.25,4.25,0,0,0-.042-.45c-.016-.149-.028-.31-.034-.466s0-.326,0-.531c0-.087.019-.155.022-.239a2.359,2.359,0,0,1,.048-.25c.043-.172.092-.354.155-.536.025-.09.062-.182.1-.273s.064-.183.1-.273c.071-.185.143-.365.21-.539.143-.351.275-.685.385-.978s.2-.542.253-.72.085-.286.085-.286-.09.064-.233.189c-.047.042-.107.1-.166.155l-.251.1-.526.23-.667.31-1.619.757c-.29.135-.59.27-.891.4-.155.07-.31.123-.455.185s-.31.113-.455.168l-.5.18c-.174.064-.355.144-.528.22a4.558,4.558,0,0,0-.5.251,4.968,4.968,0,0,0-.475.283,5.323,5.323,0,0,0-.832.666,4.207,4.207,0,0,0-.61.748,3.636,3.636,0,0,0-.354.725,1.885,1.885,0,0,0-.059.2,2.993,2.993,0,0,0-.1-.387c-.04-.129-.078-.261-.121-.39l-.155-.379c-.05-.127-.11-.248-.172-.371s-.121-.245-.192-.36l-.208-.352-.222-.341a3.832,3.832,0,0,0-.244-.329c-.088-.107-.168-.216-.258-.318s-.175-.21-.27-.31l-.283-.3c-.194-.191-.391-.379-.6-.554-.1-.088-.21-.175-.31-.259s-.18-.135-.276-.2a3.047,3.047,0,0,0-.155-.31c-.067-.132-.147-.253-.224-.376s-.155-.241-.244-.357-.172-.228-.259-.34-.2-.225-.3-.337a7.116,7.116,0,0,0,.273-.894,6.377,6.377,0,0,0,.1-.691c.009-.113.023-.227.026-.338s0-.222,0-.332a8.1,8.1,0,0,0-.362-2.321,9.155,9.155,0,0,0-.32-.868c-.107-.253-.22-.466-.31-.636-.048-.093-.095-.171-.137-.237.1-.255.177-.515.262-.776.1-.321.146-.65.217-.978s.082-.66.123-.992c.057-.649.078-1.321.07-1.978s-.065-1.319-.129-1.97-.144-1.291-.174-1.9a3.251,3.251,0,0,1,.234-1.614,3.367,3.367,0,0,1,1.105-1.181c.093-.067.189-.129.287-.191a9.191,9.191,0,0,1-1.264,5.1s3.6-3.444,3.881-7.3c.056-.065.12-.124.174-.192a17.29,17.29,0,0,0,1.153-1.648,17.736,17.736,0,0,1,1.037-1.537l.137-.168c.047-.054.1-.1.146-.155l.144-.155.155-.13c.053-.042.1-.09.155-.127l.168-.11c.054-.033.118-.081.163-.1l.213-.115c.147-.084.272-.138.4-.2s.27-.116.405-.175a6.8,6.8,0,0,1,.844-.278,6.443,6.443,0,0,1,.865-.169c.144-.02.289-.033.432-.04h.388l.761.033-.07-.7c-.031-.31-.043-.675-.045-1.015s.011-.692.039-1.035.067-.66.121-.984c.647-1.079,2.037-2.76,4.087-1.931.054.237.107.478.155.719a15.224,15.224,0,0,0,.56,2.131,3.971,3.971,0,0,0,.5.987,2.282,2.282,0,0,0,.329.363v.022a1.032,1.032,0,0,0,.022.155,1.557,1.557,0,0,0,.039.174l.869.279h0l.026-.017.065-.036a1.606,1.606,0,0,1,.155-.071,3.094,3.094,0,0,1,.345-.118c.1-.028.2-.037.31-.059.107.082.227.169.357.256a6.985,6.985,0,0,0,.922.528,5.062,5.062,0,0,0,1.225.411c.112.022.228.039.348.053.059.047.109.092.18.141a4.374,4.374,0,0,0,1.023.542,3.911,3.911,0,0,0,1.523.255l.22-.009.087-.012a1.561,1.561,0,0,0,.31.185,2.794,2.794,0,0,0,1.265.211,5.727,5.727,0,0,0,.785-.093c.143-.023.255-.054.405-.087l.166-.022a.517.517,0,0,1,.169-.011h.172a1.028,1.028,0,0,1,.175.034,1.892,1.892,0,0,1,.349.11,2.425,2.425,0,0,1,1.144,1.107l.05.093.034.1c.022.065.054.129.071.2a2,2,0,0,1,.068.4.744.744,0,0,1,0,.2c-.008.067,0,.138-.014.2a1.864,1.864,0,0,1-.11.4l-.048.129-.011.026-.026.059-.121.272c-.074.185-.155.371-.214.563a8.976,8.976,0,0,0-.477,2.4,11.441,11.441,0,0,0,.137,2.406c.036.194.064.385.106.577s.081.391.127.565.088.354.13.529.084.331.11.491a3.414,3.414,0,0,1-.039,1.76,7.584,7.584,0,0,1-.849,1.5c-.079.126-.155.25-.23.366l-.106.174c-.04.07-.07.13-.1.194a4.1,4.1,0,0,0-.3.737,3.571,3.571,0,0,0-.144,1.26,3.322,3.322,0,0,0,.14.785,1.569,1.569,0,0,0,.1.261,2.327,2.327,0,0,1-.025-.273,3.784,3.784,0,0,1,.047-.761,3.839,3.839,0,0,1,.352-1.087,5.792,5.792,0,0,1,.879-1.194c.188-.213.387-.436.591-.691a4.454,4.454,0,0,0,.57-.9,3.428,3.428,0,0,0,.3-1.135c0-.016,0-.033,0-.048l.1.138a2.459,2.459,0,0,1-.565,3.634l-.4.281.026.489a5.361,5.361,0,0,1-1.321,3.288l-.286.31.065.419a2.761,2.761,0,0,1-.995,2.524l-.478.345.135.574a4.91,4.91,0,0,1-.455,3.122c-.022.037-.037.07-.056.106a6.806,6.806,0,0,0-3.791-.975,7.893,7.893,0,0,1,3.309,2.276,2.771,2.771,0,0,0,.965,2.411c.138.155.281.318.422.5.332.418-.208,2.564-.894,4.129l-.355.869.548.685c1.947,1.825,1.1,4.9,1.087,4.935l-1.032,4.132.1-.127c-.031.155-.059.323-.076.489a2.51,2.51,0,0,0,.133,1.22,1.469,1.469,0,0,0,.177.31l.121.14.008.009.016.014.012.011.025.022.048.045c.124.118.269.237.41.357a9.3,9.3,0,0,1,1.451,1.4,3.839,3.839,0,0,1,.776,1.707,5.381,5.381,0,0,1-.043,1.915,8.425,8.425,0,0,1-.264.958l-.165.475c-.056.155-.129.323-.191.484l-.793,1.948a20.352,20.352,0,0,0-.754,2.035,2.484,2.484,0,0,0-.068.29,2.318,2.318,0,0,0-.05.31,2.077,2.077,0,0,1-.009.238,3.225,3.225,0,0,0-1.011-.191,10.089,10.089,0,0,1,1.344,1.382l.022.04.082.124c.056.084.112.168.169.241l.32.425c.1.138.185.253.265.393a3.244,3.244,0,0,1,.385.82,2.867,2.867,0,0,1,.123.86,4.105,4.105,0,0,1-.135.9,6.336,6.336,0,0,1-.321.924,12.061,12.061,0,0,0-3.943-3.2,12.264,12.264,0,0,1,3.66,5.231l.042.177c.061.293.115.59.155.889a12.827,12.827,0,0,1,.12,1.81,13.255,13.255,0,0,1-.127,1.807l-.07.449-.022.106a11.018,11.018,0,0,0-.188-1.614,10.365,10.365,0,0,0-.621-2.05,10.933,10.933,0,0,0-1.164-2.113c-.239-.345-.5-.677-.776-1.007a12.06,12.06,0,0,0-.885-.944c-.4-.391-.821-.759-1.253-1.116-.014-.11-.025-.22-.036-.341-.009-.155-.011-.323-.012-.494a2.967,2.967,0,0,1,.042-.539,4.474,4.474,0,0,1,.1-.57c.022-.1.043-.194.067-.293s.065-.2.1-.3a4.883,4.883,0,0,1,.236-.6,6.21,6.21,0,0,1,.31-.6,8.976,8.976,0,0,1,.806-1.174c.137-.191.321-.4.487-.608s.34-.421.509-.633c.334-.43.666-.863.973-1.312a15.769,15.769,0,0,0,.861-1.364,9.012,9.012,0,0,0,.641-1.414,5.969,5.969,0,0,0,.31-1.385c.012-.22.02-.432.016-.63a3.861,3.861,0,0,0-.057-.56c-.029-.172-.067-.332-.1-.478s-.092-.272-.13-.39l-.056-.155-.065-.14-.1-.217-.09-.177v.2a5.311,5.311,0,0,1,0,.551c0,.116-.008.244-.012.383s-.033.287-.05.442-.059.31-.09.486a3.319,3.319,0,0,1-.155.517,3.535,3.535,0,0,1-.219.539l-.127.276c-.048.092-.1.185-.155.278a12.289,12.289,0,0,1-.739,1.153q-.425.588-.907,1.2l-.981,1.242-.494.635c-.166.213-.321.419-.487.664a6.27,6.27,0,0,0-.466.719l-.2.374-.1.185-.079.194a5.648,5.648,0,0,0-.273.776,4.943,4.943,0,0,0-.168.768c-.016.126-.033.25-.05.373a2.92,2.92,0,0,0-.011.368,4.731,4.731,0,0,0,.036.689,5.8,5.8,0,0,0,.112.621c.017.054.034.1.05.155-.341-.259-.685-.512-1.034-.751s-.717-.481-1.06-.7l-.234-.155c-.071-.05-.143-.1-.211-.155a4.748,4.748,0,0,1-.391-.332,4.821,4.821,0,0,1-.652-.776,6.1,6.1,0,0,1-.795-1.832,10.4,10.4,0,0,1-.31-1.881,16.339,16.339,0,0,1-.036-1.67c.016-.5.043-.947.075-1.315.068-.731.132-1.156.132-1.156s-.057.092-.146.272a8.635,8.635,0,0,0-.357.8,11,11,0,0,0-.433,1.295,11.291,11.291,0,0,0-.329,1.76,8.941,8.941,0,0,0,.028,2.173,6.642,6.642,0,0,0,.8,2.406,5.744,5.744,0,0,0,.829,1.115,6.443,6.443,0,0,0,.522.486c.092.076.188.155.283.22s.2.141.279.194c.349.233.683.466,1.017.692s.674.466,1,.716c.653.489,1.295.987,1.88,1.518a15.12,15.12,0,0,1,1.61,1.644,11.8,11.8,0,0,1,1.228,1.757,12.468,12.468,0,0,1,.829,1.757,15.893,15.893,0,0,1,.5,1.6c.116.45.2.848.27,1.191-.065.213-.137.424-.206.633-.112.281-.213.565-.343.838s-.256.545-.394.813-.292.529-.452.785l-.208.323c.121-.357.241-.726.354-1.119.137-.48.265-.989.363-1.532a8.157,8.157,0,0,0,.146-1.752,4.289,4.289,0,0,0-.155-.992,2.612,2.612,0,0,0-.546-1.02,2.187,2.187,0,0,0-.481-.4,2.46,2.46,0,0,0-.559-.245,2.317,2.317,0,0,0-.3-.07,2.415,2.415,0,0,0-.248-.034l-.082-.008h-.166l-.224-.016c-.593-.042-1.2-.081-1.77-.166a4.284,4.284,0,0,1-.776-.194,1.213,1.213,0,0,1-.529-.351,2.468,2.468,0,0,1-.357-.681c-.1-.273-.2-.571-.289-.874-.18-.6-.368-1.242-.567-1.843a5.34,5.34,0,0,0-.967-1.853,2.625,2.625,0,0,0-.9-.669,3.087,3.087,0,0,0-1.052-.245,10.659,10.659,0,0,0-1.937.123c-.621.075-1.208.141-1.794.155a9.426,9.426,0,0,1-1.707-.088,2.675,2.675,0,0,1-1.349-.733,5.074,5.074,0,0,1-.91-1.242,9.426,9.426,0,0,1-.588-1.349,16.658,16.658,0,0,1-.65-2.519c-.095-.514-.155-.983-.213-1.406,2.383,1.58,4.346,4.275,4.48,5.233,0,0-.86-4.076-3.4-5.846-.446-.31-.843-.621-1.217-.919v-.008a4.165,4.165,0,0,0,1.087.272c.224.025.436.05.664.064s.466.031.681.031c.441,0,.868,0,1.265-.04s.776-.078,1.1-.115a4.657,4.657,0,0,1,.846-.053,1.11,1.11,0,0,1,.573.183,1.863,1.863,0,0,1,.334.293l.115.123s-.011-.056-.037-.165a1.52,1.52,0,0,0-.185-.466,1.417,1.417,0,0,0-.63-.548,3.829,3.829,0,0,0-.987-.272c-.351-.057-.717-.1-1.1-.155s-.776-.106-1.178-.165l-.6-.1c-.206-.036-.43-.081-.647-.115a3.341,3.341,0,0,1-1.009-.355,4,4,0,0,1-.889-.664,6.946,6.946,0,0,1-.753-.88,14.436,14.436,0,0,1-1.125-1.884c-.3-.591-.536-1.107-.7-1.472s-.262-.581-.262-.581-.009.057-.019.168-.022.272-.02.475a8.673,8.673,0,0,0,.155,1.7,8.437,8.437,0,0,0,.573,1.832,6.568,6.568,0,0,0,2.681,4.276l.107.071c.033.449.081.955.155,1.51a17.142,17.142,0,0,0,.535,2.6,9.744,9.744,0,0,0,.546,1.423,5.526,5.526,0,0,0,.922,1.38,3.139,3.139,0,0,0,1.552.931,9.753,9.753,0,0,0,1.818.182c.621.011,1.242-.031,1.863-.078a10.077,10.077,0,0,1,1.8-.037,1.915,1.915,0,0,1,1.377.706,4.487,4.487,0,0,1,.717,1.568c.171.621.32,1.225.477,1.852.081.31.155.621.267.955a3.517,3.517,0,0,0,.489,1.009,2.31,2.31,0,0,0,.45.445,2.747,2.747,0,0,0,.526.295,5.41,5.41,0,0,0,1.012.29c.647.126,1.259.192,1.863.264l.225.025.112.012h.084a1.465,1.465,0,0,1,.191.033,1.159,1.159,0,0,1,.129.039.874.874,0,0,1,.418.278,1.872,1.872,0,0,1,.3,1.158,6.764,6.764,0,0,1-.178,1.433c-.1.466-.238.931-.38,1.371-.289.877-.621,1.673-.922,2.37-.165.373-.324.716-.477,1.031-.025-.107-.048-.216-.076-.324a6.015,6.015,0,0,0-.418-1.04,6.543,6.543,0,0,0-.608-.965c-.12-.146-.241-.3-.363-.439l-.357-.4c-.484-.536-.986-1.087-1.515-1.6-.267-.258-.539-.512-.815-.754s-.543-.466-.776-.709a13.493,13.493,0,0,1-1.293-1.588,4.39,4.39,0,0,1-.262-.405,3.81,3.81,0,0,1-.21-.413,4.487,4.487,0,0,1-.275-.874,10.059,10.059,0,0,1-.174-1.718,5.551,5.551,0,0,0-.189-1.5,1.42,1.42,0,0,0-.331-.554,1.445,1.445,0,0,0-.456-.293,2.484,2.484,0,0,0-.728-.155l-.262-.009.259.028a2.484,2.484,0,0,1,.692.208,1.338,1.338,0,0,1,.4.3,1.276,1.276,0,0,1,.259.523,5.48,5.48,0,0,1,.07,1.453,10.509,10.509,0,0,0,.045,1.788,4.938,4.938,0,0,0,.23.976,4.037,4.037,0,0,0,.2.491,4.813,4.813,0,0,0,.255.466,13.8,13.8,0,0,0,1.222,1.762c.245.286.511.546.759.8s.489.517.725.784c.466.537.914,1.1,1.349,1.658l.324.424c.1.135.188.267.283.4a5.39,5.39,0,0,1,.435.824,4.408,4.408,0,0,1,.357,1.678,5.26,5.26,0,0,1-.2,1.531,7.573,7.573,0,0,1-1.014,2.142c-.135.2-.247.345-.337.458v-.009c-.273-.621-.562-1.225-.866-1.825-.045-.087-.1-.172-.141-.259-.064-1.111-.481-5.956-3-8.6-2.853-3-4.211-5.655-4.208-6.925,0,0-.4,4.6,2.431,7.3,2.685,2.557,4.623,6.631,4.773,8.227-.574-1.105-1.2-2.187-1.875-3.23a33.587,33.587,0,0,0-2.4-3.25,26.709,26.709,0,0,0-2.82-2.912,23.906,23.906,0,0,0-3.26-2.432l-.848-.52c-.14-.087-.286-.171-.421-.259l-.4-.262c-.532-.351-1.052-.737-1.552-1.139a15.154,15.154,0,0,1-1.4-1.3,11.189,11.189,0,0,1-1.164-1.479,9.642,9.642,0,0,1-.868-1.659,14.363,14.363,0,0,1-.567-1.825c-.081-.31-.155-.643-.255-.976a5.391,5.391,0,0,0-.388-1.021,2.8,2.8,0,0,0-.259-.405,30.638,30.638,0,0,1-.709-5.726c-.182-4.539-3.182-6.662-4.106-6.845a6.83,6.83,0,0,1,2.661,4.612c.32,2.564.5,5.433.688,6.8q-.72-.515-1.413-1.077a49.88,49.88,0,0,1-5.31-9.18c.273.191.545.366.81.525.635.377,1.226.688,1.707,1.034a4.977,4.977,0,0,1,1.153,1.122l.2.293c.061.1.11.2.166.29s.106.185.155.273l.116.261a8.39,8.39,0,0,1,.31.79l.106.286-.031-.3a6.028,6.028,0,0,0-.138-.857c-.02-.092-.042-.189-.065-.29s-.065-.2-.1-.31-.071-.225-.12-.34l-.166-.352a5.063,5.063,0,0,0-1.093-1.458,18.237,18.237,0,0,0-1.645-1.273,11.779,11.779,0,0,1-1.625-1.4l-.38-.435-.155-.2c-.05-.07-.093-.143-.141-.214a3.415,3.415,0,0,1-.388-.947,6.641,6.641,0,0,1-.036-2.254c.1-.8.241-1.644.31-2.508a7.946,7.946,0,0,0-.179-2.6c-.023-.106-.056-.21-.088-.31s-.064-.2-.107-.31-.081-.216-.121-.31c-.022-.043-.04-.084-.061-.126l1.023.1-1.417-.944c-.033-.085-.064-.171-.095-.255a8.059,8.059,0,0,1-.292-.947q-.047-.237-.093-.466c-.034-.155-.04-.31-.065-.456a9.28,9.28,0,0,1-.054-1.661,10.98,10.98,0,0,1,.155-1.3c.065-.359.127-.641.18-.83s.082-.292.082-.292a2.757,2.757,0,0,0-.155.264,6.685,6.685,0,0,0-.362.787,8.767,8.767,0,0,0-.607,3.069,9.137,9.137,0,0,0,.05,1.032c.012.078.026.155.039.236l-.286-.191c-4.036-2.692-2.549-7.522-2.041-8.848.106.084.216.168.328.251s.244.179.373.259a7.728,7.728,0,0,0,.767.449c.126.067.247.126.368.175s.227.1.334.138l.287.1.225.064.2.054-.177-.1-.2-.112-.261-.158c-.092-.056-.185-.13-.283-.2s-.2-.155-.3-.245a7.079,7.079,0,0,1-.605-.582c-.1-.1-.191-.214-.284-.31a3.93,3.93,0,0,1-.258-.32l-.172-.233v-.011l-.269-.419c-.113-.168-.214-.332-.31-.5l-.012-.022h0c-.079-.135-.155-.27-.225-.4a7.368,7.368,0,0,1-.31-6.884l.641-1.1-1.251-.22a3.329,3.329,0,0,1-2.12-1.718l-.868-1.844-.166.416c.034-.584.054-1.211.054-1.863a20.567,20.567,0,0,0-.411-4.6L99,52.729a.313.313,0,0,0,.543-.31Zm1.571-4.387c.014-.1.028-.194.051-.292a2.484,2.484,0,0,1,.354-.8,2.328,2.328,0,0,1,.155-.206l.261.31a4.079,4.079,0,0,0-.017,2.651,2.1,2.1,0,0,0-.057.31v.088a1.076,1.076,0,0,0-.016.146c.012,1.257-.127,1.2-.127,1.2a8.9,8.9,0,0,0-.146-.9c-.016-.071-.034-.146-.051-.22a6.055,6.055,0,0,0-.214-.708,3.387,3.387,0,0,1-.138-.506,3.317,3.317,0,0,1-.057-1.073Zm.088-1.863.456.554a1.752,1.752,0,0,0-.179.126ZM102.325,49.715Zm-.087-1.119a2.737,2.737,0,0,1-.045-1.13l-.2-.335.407.494a3.821,3.821,0,0,0-.168.961Zm-1.2,4.682a2.857,2.857,0,0,0,0-.346,4.613,4.613,0,0,1,.186-1.589,3.7,3.7,0,0,1-.189,1.929Zm5.369-8.213c.026-.09.054-.179.088-.267a3.7,3.7,0,0,1,.407-.764c.057-.084.107-.171.172-.25v0l.276.38a4.191,4.191,0,0,0-.621,2.1,28.092,28.092,0,0,0,.739,4.5c-.045.557-.143.525-.143.525A13.389,13.389,0,0,0,106.6,48.4a.3.3,0,0,0-.016-.127l-.2-.529a5.278,5.278,0,0,1-.155-1.83,4.435,4.435,0,0,1,.171-.86Zm-.745.737-.545-1.476.692.989a3.4,3.4,0,0,0-.151.477Zm5.605-2.738a3.537,3.537,0,0,1,.165-.852c.029-.092.057-.185.095-.273a2.949,2.949,0,0,1,.428-.692c.045-.056.084-.116.135-.171a1.375,1.375,0,0,0-.155.093l-.236-.674,1.863,2.688a2.971,2.971,0,0,0-.723.559,2.755,2.755,0,0,0-.522.776,2.381,2.381,0,0,0-.222.931c-.05,1.552-.217,1.472-.217,1.472a10.29,10.29,0,0,0-.43-2.285,4.171,4.171,0,0,1-.183-1.579Zm3.68-2.493c.014-.1.033-.2.051-.295a7.384,7.384,0,0,1,.278-1.051c.047-.133.1-.267.155-.4a6.416,6.416,0,0,1,.31-.621,6.247,6.247,0,0,1,.456-.722l.931,2.386-.25-2.349,1.144,1.535v.095c.014.941.506,2.161.559,3.46a5.305,5.305,0,0,0-1.7,3.395,6.012,6.012,0,0,0-.029.613v.667c0,.3-.012.565-.023.8a6.738,6.738,0,0,1-.5.531c-.051-.321-.115-.683-.2-1.076-.073-.355-.155-.733-.258-1.116a15.589,15.589,0,0,0-.466-1.506,9.116,9.116,0,0,1-.545-3.448,8.192,8.192,0,0,1,.082-.908Zm-.075-2.411.155.189-.057.073Zm3.6.442a1.339,1.339,0,0,1,.025-.191,2.735,2.735,0,0,1,.331-.942,2.494,2.494,0,0,1,.241-.343l1.368,1.751a2.639,2.639,0,0,0-.806.8,2.158,2.158,0,0,0-.334,1.087c0,.047-.012.087-.012.135a4.8,4.8,0,0,1-.053,1.187l-.067.047a8.734,8.734,0,0,0-.466-1.892,3.243,3.243,0,0,1-.144-.473,3.539,3.539,0,0,1-.085-1.172Zm-.082-2.342.677.866a1.949,1.949,0,0,0-.286.211Zm4.008-.837a.2.2,0,0,1-.009.073l-.5-1.378.621.767c-.042.169-.082.351-.115.532Zm.144,2.976c.017.073.034.155.053.22a9.158,9.158,0,0,0,.338.962,10.337,10.337,0,0,0,.821,1.6c.132.213.259.4.377.567l-.085-.04c-.115-.062-.244-.124-.373-.2s-.267-.155-.407-.248a8.692,8.692,0,0,1-.837-.621c-.13-.12-.272-.233-.393-.36s-.224-.224-.321-.341a.31.31,0,0,0,.076-.345L120.079,35.4Zm-9.972,7.684a4.811,4.811,0,0,1,.118-1.11,4.387,4.387,0,0,1,.275-.844,3.618,3.618,0,0,1,.588-.945l.355.512c.179,1.017.491,2.106.776,3.249-.793.346-1.655.733-2.555,1.152l-.255.127a4.087,4.087,0,0,0,.694-2.147Zm6.906-1.737-.175.2c-.189.233-.355.466-.514.7l-.677.261c.054-.323.12-.621.194-.9a5.156,5.156,0,0,0,1.431-3.184c-.009-.126,0-.241,0-.36a4.191,4.191,0,0,1,.093-.848,3.274,3.274,0,0,1,.608-1.346l.736.942c.05.107.106.214.163.328.078.165.182.31.279.48s.217.31.328.475a9.273,9.273,0,0,0,.744.863c.127.133.255.256.379.369l.07.061c-.062.014-.124.025-.185.04a8.659,8.659,0,0,0-1,.31c-.155.068-.321.123-.486.2s-.334.155-.466.225l-.214.113a2.661,2.661,0,0,0-.25.155l-.238.155c-.078.053-.146.116-.22.175l-.216.18-.194.2a2.067,2.067,0,0,0-.194.192Zm-5.667-3.025-.759-2.109.941,1.175A6.475,6.475,0,0,0,113.813,41.321Zm24.426-5.673a7.159,7.159,0,0,0,.81-1.808,5.408,5.408,0,0,0,.172-1.953,5.205,5.205,0,0,0-.1-.621v-.026c0-.009,2.5,1.087,2.307,2.833l-3.16,1.583,5.81-.969h.031l2.057.776a1.231,1.231,0,0,1,.155.022,1.108,1.108,0,0,1,.731.369,2.776,2.776,0,0,1,.5,1.431,7.746,7.746,0,0,1-.02,1.919l-.071.436.31.318c3.027,3.167,1.35,5.383,1.284,5.467l-.328.4.185.481a3.555,3.555,0,0,1,.155,2.85,2.1,2.1,0,0,1-1.211,1.012l-.767.2.109.784a4.672,4.672,0,0,1-.109,1.925,3.93,3.93,0,0,1-1.645,2.272l-.408.227a.9.9,0,0,0-.014-.194c-.02-.194-.051-.385-.088-.574s-.07-.362-.1-.543c-.07-.359-.12-.694-.171-1.056a11.952,11.952,0,0,1-.084-2.144,8.73,8.73,0,0,1,.189-1.35c.047-.07.088-.137.146-.214a9.633,9.633,0,0,1,.722-.832c.3-.31.646-.644,1.023-1.017l.292-.286a3.961,3.961,0,0,0,.31-.323,3.478,3.478,0,0,0,.525-.851,4.892,4.892,0,0,0,.388-2.058,4.247,4.247,0,0,0-.646-2.2,3.289,3.289,0,0,0-.373-.486l-.208-.227c-.079-.071-.168-.14-.251-.21a2.791,2.791,0,0,0-.256-.194l-.216-.146-.115-.068-.057-.034-.042-.023H146l-.019-.009-.036-.016a2.86,2.86,0,0,0-.29-.124,2.681,2.681,0,0,0-1.307-.155,2.987,2.987,0,0,0-1.186.456,5.967,5.967,0,0,0-.885.7c-.262.244-.5.487-.733.722a9.3,9.3,0,0,1-1.377,1.2c-.121.079-.225.143-.342.2l-.186.09-.182.073-.18.073-.183.05-.18.051-.182.029a3.891,3.891,0,0,1-1.349-.029,5.014,5.014,0,0,1-.852-.258,3.159,3.159,0,0,0,.711-.084A7.635,7.635,0,0,0,138.689,43a8.618,8.618,0,0,0,2.564-1.829,7.073,7.073,0,0,0,.948-1.219c.062-.112.127-.217.185-.329s.113-.228.155-.332c.09-.2.177-.4.262-.6.172-.387.338-.75.5-1.087s.31-.621.466-.883a5.07,5.07,0,0,1,.439-.621,1.7,1.7,0,0,1,.368-.324c.1-.053.155-.078.155-.078h-.047a.821.821,0,0,0-.137.016,1.537,1.537,0,0,0-.487.216,3.608,3.608,0,0,0-.63.531,7.884,7.884,0,0,0-.681.807c-.23.31-.466.653-.691,1.026-.116.188-.228.382-.34.574-.056.088-.11.179-.166.269s-.123.175-.183.262a7.954,7.954,0,0,1-.889,1,10.024,10.024,0,0,1-1.077.893,10.225,10.225,0,0,1-1.192.736,9.092,9.092,0,0,1-1.242.537,3.154,3.154,0,0,1-1.15.129,5.481,5.481,0,0,1-1.1-.171,9.488,9.488,0,0,1-.9-.287c.23-.023.5-.051.742-.1a8.348,8.348,0,0,0,.891-.211,7.606,7.606,0,0,0,1.686-.719,6.279,6.279,0,0,0,1.445-1.144,6.112,6.112,0,0,0,.577-.72c.179-.261.31-.508.455-.754a7.218,7.218,0,0,1,.466-.694c.171-.228.335-.449.511-.667s.365-.427.559-.63a7.921,7.921,0,0,1,.621-.582,7.3,7.3,0,0,1,.669-.523,5.091,5.091,0,0,1,.736-.439,4.435,4.435,0,0,0-.815.3,6.965,6.965,0,0,0-.765.427,7.891,7.891,0,0,0-.714.512c-.228.185-.45.377-.664.581s-.414.419-.61.64-.38.456-.562.694-.34.475-.5.678a5.236,5.236,0,0,1-.542.585,6.541,6.541,0,0,1-2.814,1.462,7.653,7.653,0,0,1-.79.155c-.273.043-.5.059-.824.085a5.383,5.383,0,0,0-.931.165c-.037.009-.076.026-.115.039v-.012a1.925,1.925,0,0,1,.262-.681,2.61,2.61,0,0,1,.506-.579,6.248,6.248,0,0,1,.717-.492c.54-.346,1.073-.716,1.582-1.116a13.408,13.408,0,0,0,1.445-1.31,10.207,10.207,0,0,0,1.2-1.548Zm40.222,30.844c-4.107,1.794-13.635,6.432-16.971,12.134-2.328.171-11.962,1.139-17.415,5.729a6.726,6.726,0,0,0-1.4-4.124c.551-1.385,1.439-4.134.432-5.4-.169-.214-.337-.4-.483-.568-.646-.728-.745-.84-.217-1.762a6.485,6.485,0,0,0,.728-3.867,4.47,4.47,0,0,0,1.324-3.44,7.1,7.1,0,0,0,1.515-3.792,4.685,4.685,0,0,0,1.467-2.56,3.98,3.98,0,0,0-.405-2.5,5.953,5.953,0,0,0,1.187-1.44L164.3,49.288C168.047,55.943,172.764,63.373,178.461,66.492ZM149.005,52.407a6.979,6.979,0,0,0,.016-.812,3.786,3.786,0,0,0,1.613-1.6,4.924,4.924,0,0,0,.092-3.873c.8-1.368,1.268-4.082-1.383-7.069a8.744,8.744,0,0,0-.082-2.358l5.69-1.99a39.351,39.351,0,0,1,5.644,7.906c.52.919,1.087,1.937,1.67,3.016q.482.88.992,1.8Zm-.574-17.658-.026-.039a2.906,2.906,0,0,0-2.15-1.015,18.239,18.239,0,0,1,4.869-1.653,4.228,4.228,0,0,1,2.057,1.048Zm-2.949,6.779h.011l.039.022.115.067.228.133c.07.045.107.088.163.13s.1.081.155.126l.155.155a2.254,2.254,0,0,1,.276.341,3.486,3.486,0,0,1,.563,1.669,4.41,4.41,0,0,1-.177,1.707,2.95,2.95,0,0,1-.338.694,3.24,3.24,0,0,1-.238.32l-.255.32a15.479,15.479,0,0,0-1.2,1.684c.043-.137.092-.272.14-.405l.093-.244.023-.061.022-.054v-.025l.011-.033.043-.132a3.451,3.451,0,0,0,.143-.672c.009-.118,0-.228,0-.343a1.5,1.5,0,0,0-.031-.334,2.973,2.973,0,0,0-.442-1.2,3.292,3.292,0,0,0-.795-.882,3.244,3.244,0,0,0-.993-.52,2.948,2.948,0,0,0-.537-.095c-.09,0-.177-.012-.265-.011l-.261.028a1.039,1.039,0,0,0-.25.054l-.239.073-.363.143a4.847,4.847,0,0,1-.667.2,2.738,2.738,0,0,1-1.108.045l.175-.047.231-.062.219-.082c.071-.028.155-.068.233-.1s.147-.076.222-.115a8.636,8.636,0,0,0,1.613-1.2,11.139,11.139,0,0,1,1.506-1.22,1.678,1.678,0,0,1,1.552-.177,1.809,1.809,0,0,1,.2.084ZM96.693,50.758l-.652-1.72.931,1.158a1.451,1.451,0,0,0-.279.562Zm-.155,9.082a2.1,2.1,0,0,1-.917.22,1.354,1.354,0,0,1-.848-.253c-.293-.234.088-1.489.31-2.238a11.992,11.992,0,0,0,.453-1.824c.014-.1.025-.194.037-.286.112-.869.118-1.214-.1-1.513a9.52,9.52,0,0,0-.039-1.087c-.129-1.409-.506-2.525-.841-2.494a.18.18,0,0,0-.087.045,7.834,7.834,0,0,0-.272-.95c-.07-.186-.144-.369-.224-.548l2.356,3.593a28.054,28.054,0,0,0-.155,3.1,23.436,23.436,0,0,0,.331,4.222Zm3.91,11.775c-.61,2.361-.681,5.632,1.42,8.137a17.159,17.159,0,0,0-11.986,7.794A29.156,29.156,0,0,0,80.788,86.1a24.955,24.955,0,0,0-16.744,6.144,7.3,7.3,0,0,0-2.3-.354,8.487,8.487,0,0,0-1.026.064c.931-1.8,2.434-4.747,3.775-7.772ZM79.2,138.63v-.1l.022.1Zm-11.9-23a2.648,2.648,0,0,1,1.242-.354c2.5,0,4.014,4.885,4.1,6.091a17.832,17.832,0,0,0,1.3,3.915c1.192,3.041,2.825,7.205,3.281,10.9.2,1.636.251,3.148.3,4.61.12,3.688.234,7.176,2.861,11.223a20.594,20.594,0,0,0-.663,5.444L50.783,120.6A43.308,43.308,0,0,0,67.3,115.628ZM132.2,24.8a1.784,1.784,0,0,0-.112-.155l.011.011a.548.548,0,0,1,.073.095c.031.056.034.07.026.05S132.2,24.794,132.2,24.8Zm-21.471,9.113,2.429-1.458-2.837-.186a2.221,2.221,0,0,1-1.939-1.374c-.273-.872,1.228-2.83,6.353-5.481a61.57,61.57,0,0,1,9.507-3.285l-.02.011c-.64.391-1.422.861-2.31,1.414L118.931,25.4c-1.087.669-2.3,1.368-3.534,2.213a22.588,22.588,0,0,0-1.863,1.4,7.726,7.726,0,0,0-.911.9,3.009,3.009,0,0,0-.414.636,1.608,1.608,0,0,0-.143.48,1.215,1.215,0,0,0,.1.657,1.263,1.263,0,0,0,.085.155l.056.076.031.037a1.127,1.127,0,0,0,.155.155c.04.031.085.065.126.09a1.788,1.788,0,0,0,.455.194,3.415,3.415,0,0,0,.753.116,8.489,8.489,0,0,0,1.343-.048,20.81,20.81,0,0,0,2.558-.466,26.034,26.034,0,0,0,4.318-1.445l1.087,2.758.534,1.364.107-.214c.067-.11.13-.217.191-.32a1.518,1.518,0,0,1,.109-.155l-.531-1.358-.911-2.328.081-.036a9.129,9.129,0,0,0,1.214-.714,11.391,11.391,0,0,1,1.015-.674c.7-.427,1.44-.816,2.173-1.191s1.485-.725,2.229-1.051c.373-.155.742-.323,1.11-.466.183-.073.366-.144.545-.208.113-.04.225-.078.329-.109l.127.085c.189.123.373.225.556.324.366.2.73.376,1.087.54a18.606,18.606,0,0,0,2.187.83h.025c1.034,1.434,3,4.432,2.993,6.5a6.781,6.781,0,0,1-.689,1.1,9.554,9.554,0,0,1-1.222,1.335,18.451,18.451,0,0,1-2.966,2.155,7.054,7.054,0,0,0-.849.562c-.029.023-.054.053-.082.078a4.966,4.966,0,0,1,.686-.9l.554-.545a6,6,0,0,0,.567-.706,7.537,7.537,0,0,0,.862-1.628,7,7,0,0,0,.447-1.874,4.576,4.576,0,0,0-.241-1.988,3.457,3.457,0,0,0-1.169-1.593,4.266,4.266,0,0,0-1.624-.74l-.2-.05-.2-.033-.387-.059c-.255-.014-.5-.037-.731-.04s-.455,0-.664.014l-.593.057c-.369.045-.688.107-.948.155-.518.12-.809.2-.809.2s.31.014.829.019l.931.048.57.054.621.084c.216.034.433.09.66.137l.335.1.169.05.166.064a3.777,3.777,0,0,1,1.242.706c.09.078.166.171.255.253a1.934,1.934,0,0,1,.219.283,2.967,2.967,0,0,1,.31.657A3.779,3.779,0,0,1,134.5,33.6a6.732,6.732,0,0,1-.352,1.6,7.891,7.891,0,0,1-.675,1.465,6.194,6.194,0,0,1-.418.621l-.514.621a4.689,4.689,0,0,0-.739,1.375,4.078,4.078,0,0,0-.206,1.268,2.91,2.91,0,0,0-.191.621,2.857,2.857,0,0,0-.048.576v.124a2.258,2.258,0,0,1-.2-.295,4.3,4.3,0,0,1-.365-.992,18.271,18.271,0,0,1-.328-2.117c-.043-.359-.085-.72-.141-1.087a7.061,7.061,0,0,0-.242-1.105,2.226,2.226,0,0,0-.678-1.087,1.332,1.332,0,0,0-.7-.27,1.436,1.436,0,0,0-.357,0,1.871,1.871,0,0,0-.343.071,2.23,2.23,0,0,0-.281.1l-.127.05-.039.017-.016.009-.034.017-.068.034a4.288,4.288,0,0,0-.523.31,4.764,4.764,0,0,0-.882.821,6.467,6.467,0,0,0-1.085,2.057,10.455,10.455,0,0,0-.475,2.231c-.042.376-.067.751-.078,1.128v.113l-.068-.031c-.121-.214-.255-.466-.393-.757a10.292,10.292,0,0,1-.605-1.638c-.039-.135-.071-.272-.1-.411-.039-.179-.075-.359-.106-.54a7.82,7.82,0,0,1-.085-.989v-.22a6.776,6.776,0,0,1,.047-.757c.023-.155.053-.31.081-.466l.075-.29c.012-.051.023-.106.04-.155.057-.194.133-.366.2-.543l-.748-.919L121.2,32.268a.312.312,0,0,0-.542.31l1.647,4.537-3.069-3.725a.313.313,0,1,0-.537.321l1.642,4.008L117.66,34.3a.312.312,0,0,0-.546.3l1.2,3.308a1.979,1.979,0,0,0-.14.293l-2.189-2.937a.315.315,0,1,0-.548.31l.677,1.735a5.47,5.47,0,0,0-.664.56l-1.3-1.565a.311.311,0,1,0-.539.31l.931,2.449a5.812,5.812,0,0,0-.31.621l-1.878-2.345a.313.313,0,1,0-.543.31l1.437,4-2.373-3.429a.313.313,0,0,0-.559.284l1.087,3.115a2.353,2.353,0,0,0-.214.273,2.706,2.706,0,0,0-.31.66,2.988,2.988,0,0,0-.155.8,3.769,3.769,0,0,0,.023.523l-.844-2.733,1,1.4a2.706,2.706,0,0,1,.31-.66l-1.967-2.735a.312.312,0,1,0-.557.281l1.368,4.259-2.439-3.612a.313.313,0,1,0-.56.278l1.012,2.973.1.3.366,1.074-.543-.747-.236-.323L105.88,41.05a.312.312,0,1,0-.554.289l1.037,3.044a3.188,3.188,0,0,1,.5-.484l-.269-.787.466.649.04-.025h0l-.04.025a2.173,2.173,0,0,0-.2.138,3.188,3.188,0,0,0-.5.484c-.073.087-.146.185-.219.292l-1.9-2.715a.313.313,0,1,0-.556.29l1.648,4.461-3-3.683a.313.313,0,1,0-.543.31l1.174,3.229a3.274,3.274,0,0,0-.272.4l-2.328-2.817a.312.312,0,0,0-.536.321L101,47.36a2.045,2.045,0,0,0-.165.324L98.784,45.06a.312.312,0,1,0-.546.3l1.274,3.511.189.522a3.025,3.025,0,0,1,.34-.913,2.949,2.949,0,0,1,.29-.416l.341.436c0,.028-.008.051-.008.079a10.958,10.958,0,0,0,.441,2.141c-.057.071-.113.155-.168.23a2.471,2.471,0,0,0-.341.795,2.424,2.424,0,0,0-.065.567c.014,1.523-.155,1.454-.155,1.454a10.2,10.2,0,0,0-.5-2.212,4.017,4.017,0,0,1-.233-1.068,3.764,3.764,0,0,1,.04-1L99.4,49.1l-2.288-3.072a.313.313,0,0,0-.549.3l1.675,4.443-2.962-3.7a.312.312,0,0,0-.542.31l1.645,4.346-2.53-3.159v-.011a10.159,10.159,0,0,0-.914-1.495,10.687,10.687,0,0,0-.8-.961c-.106-.11-.191-.2-.253-.256l-.012-.012a6.458,6.458,0,0,1,1.063-.86,6.148,6.148,0,0,1,1.107-.556,8.28,8.28,0,0,0,1.186-.591c.762-.452,1.479-.961,2.144-1.448s1.265-.965,1.779-1.378q.441-.354.776-.636Zm-10.4,14.142a2,2,0,0,0-.341.253l-.466-1.288ZM56.855,68.609a45.987,45.987,0,0,0,8-4.657,67.567,67.567,0,0,0,11.8-10.72c.84-.975,2.516-2.754,3.131-3.446,4.1-4.613,20.255-13.194,21.082-12.815.219-.033,1.439.7-.253,1.751l-3.688,3.415c-.587.466-1.212.959-1.872,1.4a7.772,7.772,0,0,1-1.118.621,6.589,6.589,0,0,0-1.119.63,8.11,8.11,0,0,0-1.608,1.58c-.208.255-.4.487-.576.681a3.612,3.612,0,0,1-.506.466,2.381,2.381,0,0,1-.379.227l-.144.061.155-.054a2.355,2.355,0,0,0,.393-.21,3.661,3.661,0,0,0,.532-.442c.095-.093.191-.2.292-.31l.059.043c.054.039.135.1.237.185a9.794,9.794,0,0,1,.809.754,8.968,8.968,0,0,1,.987,1.228,8.183,8.183,0,0,1,.455.767,7.079,7.079,0,0,1,.363.846,6.646,6.646,0,0,1,.245.891c.023.132.042.264.059.4a9.3,9.3,0,0,0,.036.995,3.335,3.335,0,0,1-.026.355c-.012.115-.033.267-.056.394-.016.076-.029.147-.045.22a1.1,1.1,0,0,0-.238.414l-.175.537.1.093a1.9,1.9,0,0,1-.084.206c-.079.18-.135.3-.155.363l-.023.047a4.843,4.843,0,0,0-.194-.466,6.323,6.323,0,0,0-.354-.635,9.668,9.668,0,0,0-.91-1.219,18.136,18.136,0,0,0-1.976-1.928l-.689-.577a2.149,2.149,0,0,1-.188-.165.393.393,0,0,1-.059-.065.4.4,0,0,0,.045.076c.034.048.087.115.155.2l.562.7a17.912,17.912,0,0,1,1.507,2.212,8.919,8.919,0,0,1,.6,1.25,5.464,5.464,0,0,1,.188.582,3.678,3.678,0,0,1,.1.515,1.657,1.657,0,0,1,.023.224,1.7,1.7,0,0,1,0,.2,2.368,2.368,0,0,1-.017.31,1.6,1.6,0,0,1-.033.186l-.012.065v.037a.874.874,0,0,0-.012.144.512.512,0,0,0,0,.051,1.757,1.757,0,0,1-.675.326h-.3l-.256.256a21.487,21.487,0,0,0-2.651,3.235,4.941,4.941,0,0,1-1.959,1.223c-.019-.023-.036-.045-.056-.067a1.375,1.375,0,0,1,.012-.2,5.492,5.492,0,0,1,.2-.844,18.779,18.779,0,0,1,.678-1.76c.514-1.17,1.087-2.328,1.707-3.463l.011-.022a.116.116,0,0,0-.04-.155l-.851-.531-.009-.138v-.011a.09.09,0,0,0,0-.028l-.815-1.945L87.748,55l-.05-.033.054.05.02.076a6.631,6.631,0,0,1-.1.9l-.037.222c-.014.075-.037.147-.056.22-.043.144-.07.29-.124.432l-.155.421-.189.407c-.056.137-.141.261-.211.393l-.11.192-.124.186a8.766,8.766,0,0,1-.525.719,6.523,6.523,0,0,1-.6.661c-.1.107-.21.211-.32.31s-.214.2-.332.3l-.341.29-.352.275c-.241.18-.48.359-.731.523s-.5.328-.757.486-.517.31-.776.447-.529.284-.8.416-.542.261-.816.383-.551.242-.829.354-.557.219-.837.321-.574.2-.82.272c-.054.017-.115.039-.169.062a1.219,1.219,0,0,0-.708,1.068c-4.169,2.111-10.3,7.845-12.129,13.233-.4,1.169-.9,2.453-1.462,3.753-.377.883-.776,1.774-1.18,2.639-1.534,3.308-3.114,6.311-3.7,7.409a39.129,39.129,0,0,1-4.148,6.054c-2.411,2.437-5.677,8.891-9.175,10.057s-9.33,1.572-10.5,4.207a7.8,7.8,0,0,0-.931,3.181,23.473,23.473,0,0,1-5.45-4.57c-3.016-3.415-4.664-7.16-4.919-9.2-.421-3.371,2.471-6.9,8.227-13.928,1.059-1.291,2.259-2.755,3.534-4.337a42.179,42.179,0,0,1,17.214-13.29C53.847,69.891,55.347,69.269,56.855,68.609Zm-23.1,14.133c-1.271,1.576-2.468,3.036-3.524,4.325-2.007,2.448-3.677,4.489-5,6.279l.1-.332L5.171,87.051,42.6,73.967A50.475,50.475,0,0,0,33.752,82.742ZM4.607,89.081l19.535,5.781c-1.948,2.873-2.831,5.11-2.535,7.476.573,4.588,7.021,16.3,19.577,18.037a42.252,42.252,0,0,0,5.8.4c.419,0,.83-.011,1.242-.023l32.026,40.8L81.387,163a.137.137,0,0,0,.016.047l7.8,9.948c.017,0,.036.02.053.029l19.942,25.4,5.917,7.536,6.235,7.941,2.794,27.444-30.89-39.357-3.486-4.439-5.107-6.5-1.319-1.669Z" fill="#779e7c"/>
    <path id="Path_121" data-name="Path 121" d="M762.2,501.67c.1.292.2.621.31.981.05.18.1.366.155.56s.1.393.141.6a11.81,11.81,0,0,1,.206,1.288c.009.112.02.224.031.335s0,.225.011.338a6.15,6.15,0,0,1-.014.678l-.008.171-.026.166q-.025.168-.047.335c-.037.241-.092.5-.135.748-.084.512-.168,1.023-.22,1.532-.033.255-.056.508-.073.761s-.033.5-.042.747,0,.492,0,.73.017.466.036.7a8.272,8.272,0,0,0,.208,1.284,4.434,4.434,0,0,0,.169.557l.095.255.115.233c.037.073.073.144.109.213a1.873,1.873,0,0,0,.126.188,1.989,1.989,0,0,0,.241.31c.081.087.155.165.217.225l.185.137.155.109-.1-.155-.115-.185c-.036-.078-.076-.166-.12-.267a1.628,1.628,0,0,1-.118-.335c-.019-.062-.037-.126-.057-.191a1.728,1.728,0,0,1-.039-.213c-.012-.073-.03-.146-.043-.222s-.016-.155-.025-.242-.02-.166-.025-.253,0-.177,0-.269a11.072,11.072,0,0,1,.031-1.181c.019-.21.039-.427.059-.647s.048-.449.084-.68c.116-.863.275-1.788.436-2.718,1.156,1.074,3.943,4.053,4.023,7.916a13.527,13.527,0,0,0-3.8-9.807v-.3c0-.137-.023-.269-.034-.4s-.026-.264-.045-.394l-.074-.38a8.669,8.669,0,0,0-.413-1.4c-.084-.214-.175-.418-.262-.613s-.188-.377-.279-.553-.191-.337-.286-.491-.188-.295-.279-.427c-.182-.262-.354-.481-.5-.658a5.417,5.417,0,0,0-.483-.531l.256.663C762.015,501.122,762.1,501.379,762.2,501.67Z" transform="translate(-643.458 -422.608)" fill="#779e7c"/>
    <path id="Path_122" data-name="Path 122" d="M807.867,524.565a3.177,3.177,0,0,0,.383,1.014,2.218,2.218,0,0,0,.127.206l.141.177a2.564,2.564,0,0,0,.265.287c.09.076.174.137.242.186a1.954,1.954,0,0,0,.22.144s-.008-.1-.036-.264c-.016-.079-.031-.175-.054-.279s-.034-.228-.059-.352a3.557,3.557,0,0,1-.067-.4c-.016-.14-.051-.279-.057-.428s-.04-.3-.045-.45a.941.941,0,0,0-.019-.23.975.975,0,0,1,0-.233c-.016-.155-.008-.31-.012-.466s.009-.31,0-.466a2.417,2.417,0,0,1,.017-.441c.017-.141.011-.281.019-.408.012-.267.022-.489.028-.644v-.262a1.4,1.4,0,0,0-.206.169,2.6,2.6,0,0,0-.438.537,3.105,3.105,0,0,0-.217.407,3.92,3.92,0,0,0-.177.484c-.025.087-.044.177-.062.268a1.813,1.813,0,0,0-.045.278,3.261,3.261,0,0,0-.025.579Z" transform="translate(-682.4 -440.348)" fill="#779e7c"/>
    <path id="Path_123" data-name="Path 123" d="M851.139,572.976a8.381,8.381,0,0,0-1.3-1.459,10.947,10.947,0,0,0-1.459-1.1c-.492-.31-.984-.581-1.44-.815l-.331-.168-.31-.155-.259-.155-.233-.166a2.483,2.483,0,0,1-.663-.79,2.862,2.862,0,0,1-.281-.816,3.522,3.522,0,0,1-.057-.591v-.217a1.459,1.459,0,0,0-.1.2,2.538,2.538,0,0,0-.194.605,2.794,2.794,0,0,0-.017,1.031,2.929,2.929,0,0,0,.568,1.282c.081.1.166.206.259.31l.3.281c.112.1.189.155.3.244l.31.239c.408.31.823.621,1.242.962a15.883,15.883,0,0,1,1.194,1.074,8.847,8.847,0,0,1,1.018,1.219,6.082,6.082,0,0,1,.711,1.349,2.62,2.62,0,0,1,.115.354l.056.177.04.18a6.341,6.341,0,0,1,.116.722,7.577,7.577,0,0,1-.023,1.431,10.626,10.626,0,0,1-.256,1.323c-.057.2-.106.405-.166.593l-.174.537c-.123.34-.228.636-.31.88s-.171.436-.224.568l-.076.208.155-.155c.1-.1.256-.244.439-.439a9.321,9.321,0,0,0,.621-.744c.11-.155.224-.318.345-.494s.223-.374.345-.577.211-.435.326-.666a7.629,7.629,0,0,0,.281-.754,6.982,6.982,0,0,0,.29-1.757,6.074,6.074,0,0,0-.268-1.936,6.684,6.684,0,0,0-.889-1.807Z" transform="translate(-713.374 -478.6)" fill="#779e7c"/>
    <path id="Path_124" data-name="Path 124" d="M697.3,479.721c.022.137.05.273.075.407a5.965,5.965,0,0,0,.2.776c.036.126.095.244.141.363a2.694,2.694,0,0,0,.155.348,6.071,6.071,0,0,0,.759,1.16,4.439,4.439,0,0,0,.411.447,5.22,5.22,0,0,0,.4.363c.133.106.248.213.369.293l.332.222a5.488,5.488,0,0,0,.483.281l.174.09-.126-.155c-.082-.1-.208-.233-.352-.416-.073-.09-.155-.191-.239-.3l-.265-.36c-.1-.126-.182-.272-.275-.421a4.809,4.809,0,0,1-.273-.477,6.877,6.877,0,0,1-.466-1.108c-.056-.2-.118-.41-.155-.621a6.489,6.489,0,0,1-.1-.663c-.009-.113-.02-.227-.029-.341s0-.233,0-.351c-.011-.233.023-.473.034-.712s.071-.481.1-.725l.155-.728c.068-.238.126-.466.2-.709s.169-.5.253-.753c.042-.121.084-.242.124-.363l.126-.38c.079-.253.155-.506.216-.756s.12-.5.171-.74.09-.486.127-.719.059-.466.081-.686.034-.438.039-.646a9.579,9.579,0,0,0-.034-1.128,6.4,6.4,0,0,0-.126-.858,3.654,3.654,0,0,0-.216-.722v.194c0,.126-.022.31-.042.542s-.064.509-.118.826-.133.667-.22,1.048c-.048.189-.1.386-.155.59l-.182.621-.209.654-.238.675c-.085.227-.174.458-.262.691l-.144.349-.155.374c-.093.245-.191.492-.281.742s-.165.551-.247.827a8.285,8.285,0,0,0-.169.838,5.552,5.552,0,0,0-.082.851,5.934,5.934,0,0,0,.011.848A4.175,4.175,0,0,0,697.3,479.721Z" transform="translate(-589.024 -395.887)" fill="#779e7c"/>
    <path id="Path_125" data-name="Path 125" d="M768.226,330.272c.155-.042.31-.084.5-.126.09-.023.185-.043.284-.059s.2-.042.31-.056.211-.034.321-.043.22-.028.334-.031a6.463,6.463,0,0,1,.7-.016,6.089,6.089,0,0,1,.709.065l.349.065.374.078c.248.05.5.09.742.121s.478.05.7.061a5.8,5.8,0,0,0,.635,0,3.944,3.944,0,0,0,.942-.14,1.3,1.3,0,0,0,.334-.137,2.159,2.159,0,0,1-.351,0,3.883,3.883,0,0,1-.394-.036c-.151-.017-.323-.047-.508-.075-.371-.065-.8-.155-1.256-.262l-.714-.16c-.121-.031-.247-.065-.366-.092l-.4-.081a4.888,4.888,0,0,0-2.28.2,4.437,4.437,0,0,0-.595.234,4.274,4.274,0,0,0-.475.253,3.936,3.936,0,0,0-.343.23,2.34,2.34,0,0,0-.276.23s.123-.045.335-.113C767.949,330.351,768.079,330.314,768.226,330.272Z" transform="translate(-648.366 -278.182)" fill="#779e7c"/>
    <path id="Path_126" data-name="Path 126" d="M850.24,480.62Z" transform="translate(-718.263 -406.016)" fill="#779e7c"/>
    <path id="Path_127" data-name="Path 127" d="M860.27,478.77Z" transform="translate(-726.736 -404.454)" fill="#779e7c"/>
    <path id="Path_128" data-name="Path 128" d="M815.612,461.127a2.564,2.564,0,0,1,.174-.233c.067-.078.13-.175.208-.267.155-.186.334-.383.534-.588a7.1,7.1,0,0,1,1.527-1.161,7.516,7.516,0,0,1,.97-.453,8.377,8.377,0,0,1,1.063-.332l.577-.13h.043a.259.259,0,0,1,.056,0,.994.994,0,0,1,.191.045,4.062,4.062,0,0,1,.475.2c.171.082.331.171.548.264a1.309,1.309,0,0,0,.213.07.574.574,0,0,0,.089.016.45.45,0,0,0,.084,0,.64.64,0,0,0,.1-.009h.017c.115-.031.036-.011.064-.019h.012l.053-.023a2.381,2.381,0,0,0,.273-.155c.155-.095.31-.192.455-.281s.286-.179.4-.237l.155.067c.264.129.517.25.736.362s.418.2.576.281c.21.1.355.166.438.2.011.036.028.071.039.106a5.311,5.311,0,0,1,.217.992,4.357,4.357,0,0,1,.028.7,1.319,1.319,0,0,1-.016.183.165.165,0,0,0,0,.056h0c-.054.123-.107.247-.155.355-.127.272-.241.489-.334.658a2.84,2.84,0,0,1-1.043-.107c-.869-.264-5.139-.155-4.733.424.332.475,1.641.174,2.349.4-.019.031-.036.054-.054.09a3.115,3.115,0,0,0-.155.345c-.056.126-.1.267-.146.413-.02.074-.039.155-.057.228a2.373,2.373,0,0,0-.05.239,4.313,4.313,0,0,0-.061.494c0,.084-.011.166-.011.25v.245a3.331,3.331,0,0,0,.05.466,2.639,2.639,0,0,0,.1.407,1.66,1.66,0,0,0,.059.175c.023.054.047.1.07.155a1.884,1.884,0,0,0,.135.248,1.442,1.442,0,0,0,.129.155,1.166,1.166,0,0,0,.121.126v-.225a2.225,2.225,0,0,0-.009-.241c-.009-.085,0-.194,0-.3s-.011-.219-.008-.34,0-.239,0-.366,0-.255.009-.386v-.2c0-.065.009-.133.014-.2,0-.132.02-.265.029-.4s.031-.264.039-.394.026-.22.04-.326a.687.687,0,0,0,.02.144,3.877,3.877,0,0,0,.1.419,3.971,3.971,0,0,0,.166.466c.034.081.073.155.112.245a2.207,2.207,0,0,0,.127.25,5.146,5.146,0,0,0,.3.5l.169.238a2.483,2.483,0,0,0,.182.222,4.477,4.477,0,0,0,.379.4,3.559,3.559,0,0,0,.382.31c.062.045.12.093.18.129l.172.1a2.381,2.381,0,0,0,.3.146c.092.034.169.054.233.073a1.465,1.465,0,0,0,.2.042s-.061-.082-.163-.208c-.051-.061-.112-.137-.182-.216s-.141-.179-.222-.273-.168-.2-.251-.31-.18-.216-.265-.34-.182-.234-.268-.362c-.045-.062-.088-.126-.135-.186s-.087-.129-.13-.192-.113-.168-.169-.253a.658.658,0,0,0,.742.081c.893-.432,1.552.214,2.182-.034l.22.419c.13.25.272.534.419.841s.3.643.439,1a10.8,10.8,0,0,1,.388,1.121,5.355,5.355,0,0,1,.213,1.156,6.571,6.571,0,0,1-.106,1.232c-.067.433-.165.875-.253,1.319s-.182.889-.255,1.329a8.948,8.948,0,0,0-.127,2.484,4.479,4.479,0,0,0,.228,1,3.2,3.2,0,0,0,.362.7,2.237,2.237,0,0,0,.32.377l.126.116-.062-.155a3.107,3.107,0,0,1-.143-.445,3.793,3.793,0,0,1-.1-.694,5.486,5.486,0,0,1,.04-.894,15.046,15.046,0,0,1,.506-2.229c.116-.413.245-.841.36-1.29s.227-.916.31-1.4a6.383,6.383,0,0,0,.078-1.532,3.54,3.54,0,0,0-.056-.4l-.017-.082-.014-.067-.012-.045-.053-.178a5.774,5.774,0,0,0-.234-.683,8,8,0,0,0-.612-1.186c-.023-.039-.048-.071-.071-.109.135-.338.31-.806.514-1.374.21-.593.439-1.288.646-2.051.05-.191.1-.387.155-.582s.09-.4.129-.605a8.239,8.239,0,0,0,.155-1.267c0-.109.011-.216,0-.326l-.033-.331v-.1l-.02-.074-.039-.155c-.012-.05-.023-.1-.04-.155l-.062-.155a3.9,3.9,0,0,0-.647-1.068,10.432,10.432,0,0,0-.767-.835c-.251-.253-.487-.491-.7-.717a5.535,5.535,0,0,1-.52-.658,2.193,2.193,0,0,1-.174-.3,1.529,1.529,0,0,1-.115-.275c-.026-.085-.051-.155-.07-.23a1.154,1.154,0,0,1-.022-.177c-.012-.1-.019-.155-.019-.155v.155c0,.048.008.109.011.18a1.39,1.39,0,0,0,.054.237,1.575,1.575,0,0,0,.1.286,2.041,2.041,0,0,0,.155.321,5.368,5.368,0,0,0,.486.706c.2.242.419.5.652.767a10.428,10.428,0,0,1,.694.865,5.3,5.3,0,0,1,.31.484,3.446,3.446,0,0,1,.222.523,2.585,2.585,0,0,1,.107,1.149,7.68,7.68,0,0,1-.22,1.177c-.051.193-.11.383-.155.571s-.121.373-.182.554c-.248.725-.52,1.4-.762,1.956-.138.323-.267.607-.38.857l-.045-.059c-.23-.279-.449-.525-.655-.733-.129-.132-.248-.244-.363-.346a1.956,1.956,0,0,0,.076-1.069,6.247,6.247,0,0,0,.722-.626,5.038,5.038,0,0,0,.449-.514,3.522,3.522,0,0,0,.562-1.042,2.657,2.657,0,0,0,.093-.418l.014-.107v-.424a.755.755,0,0,0-.019-.113l-.045-.23a3.047,3.047,0,0,0-.351-.761,7.205,7.205,0,0,0-.453-.63c-.155-.192-.31-.376-.439-.553a4.685,4.685,0,0,1-.357-.514,1.954,1.954,0,0,1-.13-.242,1.663,1.663,0,0,1-.095-.231c-.022-.074-.048-.144-.062-.21s-.017-.13-.025-.186a1.232,1.232,0,0,1,0-.262v-.095a.466.466,0,0,1-.014.093,1.289,1.289,0,0,0-.028.265v.194a1.422,1.422,0,0,0,.04.224,1.491,1.491,0,0,0,.073.248,2.086,2.086,0,0,0,.109.267,5.051,5.051,0,0,0,.31.565c.118.194.248.393.38.6a6.354,6.354,0,0,1,.366.643,2.63,2.63,0,0,1,.242.685l.014.155v.177l-.012.2v-.019h0v.031l-.011.042-.019.084a2.282,2.282,0,0,1-.109.32c-.05.1-.1.2-.155.295a3.147,3.147,0,0,1-.394.506,4.191,4.191,0,0,1-.432.4,5.057,5.057,0,0,1-.453.329,3.044,3.044,0,0,0-.12-.3c.062-.177.133-.388.208-.633a11.813,11.813,0,0,0,.31-1.225,7.122,7.122,0,0,0,.1-.714v-.388a1.248,1.248,0,0,0-.025-.208,1.652,1.652,0,0,0-.045-.213,3.446,3.446,0,0,0-.295-.7c-.115-.216-.239-.413-.355-.6s-.23-.369-.324-.543a3.174,3.174,0,0,1-.23-.506,1.3,1.3,0,0,1-.062-.237,1,1,0,0,1-.026-.219,1.561,1.561,0,0,1,.008-.194c.012-.061.025-.115.036-.165a1.161,1.161,0,0,1,.089-.22l.036-.078-.047.071a1.253,1.253,0,0,0-.123.211c-.019.05-.04.1-.062.165a1.744,1.744,0,0,0-.039.2,1.11,1.11,0,0,0,0,.239,1.431,1.431,0,0,0,.029.264,3.315,3.315,0,0,0,.155.57c.073.2.155.4.248.6s.18.413.255.621l.165.632a1.063,1.063,0,0,1,0,.137v.116c-.057-.155-.118-.31-.191-.466a5.838,5.838,0,0,0-.3-.563c-.107-.186-.239-.368-.359-.54-.247-.343-.49-.683-.7-1.012a2.939,2.939,0,0,1-.435-.945,1.045,1.045,0,0,1,0-.41.794.794,0,0,1,.043-.169.755.755,0,0,1,.056-.138,1.386,1.386,0,0,1,.1-.186l.04-.065-.048.059a1.5,1.5,0,0,0-.127.174.909.909,0,0,0-.078.135.8.8,0,0,0-.068.172,1.123,1.123,0,0,0-.051.446,3.115,3.115,0,0,0,.324,1.06c.168.366.369.742.568,1.114.1.188.191.362.267.548.054.121.095.242.137.363-.067-.07-.165-.169-.292-.293s-.284-.276-.466-.439-.394-.352-.643-.545l-.2-.155a.484.484,0,0,0-.065-.04.291.291,0,0,0-.045-.023l-.029-.012-.019-.008-.043-.011h-.172l-.07.016-.054.016a5.407,5.407,0,0,0-.514.191l-.492.206-.112.047h-.009c-.124-.068-.292-.18-.466-.286a4.2,4.2,0,0,0-.587-.31,1.785,1.785,0,0,0-.382-.118,1.288,1.288,0,0,0-.242-.025.86.86,0,0,0-.14.008l-.116.019c-.175.03-.4.065-.605.113a6.931,6.931,0,0,0-1.228.391,6.21,6.21,0,0,0-1.1.612A5.475,5.475,0,0,0,816,459.625v.009c.034-.163.076-.349.141-.565a4.688,4.688,0,0,1,.155-.449,4.066,4.066,0,0,1,.216-.456,3.449,3.449,0,0,1,.295-.424l.192-.228.087-.119.107-.155a3.856,3.856,0,0,0,.337-.612,3.921,3.921,0,0,0,.31-1.226,3.617,3.617,0,0,0,.008-.548,2.44,2.44,0,0,0-.18-.8,1.07,1.07,0,0,0-.112-.2l-.048-.064v.079a1.325,1.325,0,0,1-.014.214c-.014.09-.029.2-.054.32s-.062.255-.1.4-.093.3-.155.466-.124.324-.2.492l-.115.25c-.045.082-.082.168-.127.25a5.308,5.308,0,0,1-.287.473l-.071.11-.1.123c-.029.037-.073.092-.088.116l-.107.147a2.8,2.8,0,0,0-.321.621,2.989,2.989,0,0,0-.155.621,2.945,2.945,0,0,0-.017.554,2.833,2.833,0,0,0,.064.456,2.4,2.4,0,0,0,.095.337c.016.045.031.085.045.12a4.666,4.666,0,0,0-.22.466,4.455,4.455,0,0,0-.208.621,3.733,3.733,0,0,0-.087.413l-.023.146.087-.121A3.316,3.316,0,0,0,815.612,461.127Zm8.041-3.33.034.011h0l-.028-.008h0Zm-1.354-.144Zm-.043.014h0Z" transform="translate(-688.721 -383.351)" fill="#779e7c"/>
    <path id="Path_129" data-name="Path 129" d="M867.141,395.59s-.914.914,0,3.848.414,3.846-.582,4.123-1.087-.719-1.909,0a1.757,1.757,0,0,1,1.087.36,1.649,1.649,0,0,0,2.684-1.329C868.7,400.295,866.393,397.141,867.141,395.59Z" transform="translate(-730.436 -334.185)" fill="#779e7c"/>
    <path id="Path_130" data-name="Path 130" d="M848.1,404.469c1.135.414,3.016-1.467,1.242-4.318,0,0-.8-.969-.941.526-.056.776.388,1.495-.138,1.965S846.973,404.057,848.1,404.469Z" transform="translate(-715.964 -337.777)" fill="#779e7c"/>
    <path id="Path_131" data-name="Path 131" d="M821.984,426.237c.456.588,1.087,1.419,1.509,1.336a2.655,2.655,0,0,1,0,1.3c-.194.554-.52,1.107.085,1.771a3.444,3.444,0,0,1,.579-2.187c.719-1.025.522-1.447.522-1.447a4.19,4.19,0,0,1,.889-.433c.5-.168,1.523-1.414.636-1.773a1.909,1.909,0,0,0-2.712,1.383,1.078,1.078,0,0,1-1.413-.885c-.278-1.245,1.357-2.223,1.087-2.639s-1.523.008-1.689,1,.166,1.409-.553,1.6-.444.8,0,.747S821.527,425.649,821.984,426.237Z" transform="translate(-693.125 -356.923)" fill="#779e7c"/>
    <path id="Path_132" data-name="Path 132" d="M834.42,334.248c.452-.25,1.226,1.605.646,2.656s1.183,2.519,1.087.8a6.361,6.361,0,0,1,1.152-3.486,2.5,2.5,0,0,0,.228-1.032s1.456.174,1.707-.629-.63-1.495-2.653.388a3.772,3.772,0,0,0-1.087-4.927c.5.636,1.385,4.207-.525,4.567-1.707.321-1.689-.056-1.883.776S833.967,334.5,834.42,334.248Z" transform="translate(-703.758 -277.104)" fill="#779e7c"/>
    <path id="Path_133" data-name="Path 133" d="M773.089,360.945c.185-.213.812.776,1.652.784s.821-.543.8-1.383a4.445,4.445,0,0,0-1.264-2.676c-.627-.545-.849-.351-1.532-.719a7.066,7.066,0,0,0-3.086-.7,5.185,5.185,0,0,0-2.544.56c-.7.427-.744.591-1.183.868s-1.369.52-1.532.893a1.308,1.308,0,0,1-.483.557c.438-.051.466-.283.761-.526a6.689,6.689,0,0,1,1.136-.6,2.085,2.085,0,0,1-.961,1.228c.7-.082,1.228-.893,1.473-1.338s.118-.408.644-.632a9.713,9.713,0,0,1,1.439-.413c.914-.258,3.764.72,3.957,1.771s.664,1.108.664,1.108l-.41.554c-.034-.489-.13-1.268-.447-1.414-.466-.214-.43.076-.8-.351s-1.281-2.116-3.6-.776-1.99,1.827-2.367,1.884-.366.445-.641.3-.365-.329-.593-.193-.29-.155-.427.092.427.747.685.549.854-.123,1.586.31,2.088.14,2.88.07c.737-.065,2.054.917,2.823.621.193.388.534.284.776.242S772.9,361.158,773.089,360.945Zm-2.46-.629a7.415,7.415,0,0,0-1.731-.07c-.214.019-.416.04-.61.062a3.2,3.2,0,0,1-1.493-1.146,1.949,1.949,0,0,0,.31,1.262,4.275,4.275,0,0,1-.444,0,1.664,1.664,0,0,1-1.035-.494c.31-.036.776-.68,1.02-.941s1.846-1.579,3.1-1.309S770.629,360.317,770.629,360.317Z" transform="translate(-645.185 -300.951)" fill="#779e7c"/>
    <path id="Path_134" data-name="Path 134" d="M871.848,365.954c.511.382.518,1.482.534,1.686s.231.267.449.753.054,1.219.442,1.087c.144-.048.18-.31.171-.612a2.535,2.535,0,0,0,2.106.362,4.137,4.137,0,0,1-2.182-1.253,5.773,5.773,0,0,1,.331-.532,4.2,4.2,0,0,1,.573-.667,2.053,2.053,0,0,1,.812-.5,1.256,1.256,0,0,1,.466-.051,1.4,1.4,0,0,1,.453.118,2.037,2.037,0,0,1,.394.234,1.714,1.714,0,0,1,.169.141,1.33,1.33,0,0,1,.155.143,2.735,2.735,0,0,1,.247.276,2.336,2.336,0,0,1,.175.227l.147.206-.124-.223a2.783,2.783,0,0,0-.155-.251,3.329,3.329,0,0,0-.219-.31,1.379,1.379,0,0,0-.14-.168,2.015,2.015,0,0,0-.155-.169,2.27,2.27,0,0,0-.4-.31,1.645,1.645,0,0,0-.506-.2,1.553,1.553,0,0,0-.568-.012,2.382,2.382,0,0,0-1.021.455,4.543,4.543,0,0,0-.722.664c-.137.155-.239.283-.329.4a.492.492,0,0,1,.065-.438c.31-.562,1.939-1.829,3.292-1.4s1.7,1.4,1.8,1.169-.776-2.541-3.485-1.454c0,0-.677.369-.767,0s-.466-1-.83-.691-.477.754-.654.64-.281-1.175-.694-.792A.963.963,0,0,0,871.848,365.954Z" transform="translate(-736.147 -307.84)" fill="#779e7c"/>
    <path id="Path_135" data-name="Path 135" d="M799.018,546.444c.09.174.191.39.31.63s.237.515.359.815c.06.155.126.31.182.466s.121.326.175.5c.116.34.211.7.3,1.076.039.186.067.377.107.567a5.15,5.15,0,0,1,.065.581c.019.194.02.413.031.621s.014.428.05.686.064.494.113.723c.022.116.044.234.071.349l.093.341a8.345,8.345,0,0,0,.484,1.295c.1.2.2.4.31.584a5.61,5.61,0,0,0,.346.532c.129.165.239.328.371.466.065.071.127.143.189.213l.2.194a4.052,4.052,0,0,0,.391.337,3.669,3.669,0,0,0,.38.269,2.758,2.758,0,0,0,.357.2,2.3,2.3,0,0,0,.31.135,2.533,2.533,0,0,0,.259.087l.2.04.155.028-.124-.109-.155-.124-.183-.182a2.144,2.144,0,0,1-.21-.234,3.268,3.268,0,0,1-.228-.286,3.958,3.958,0,0,1-.234-.335,4.322,4.322,0,0,1-.236-.385c-.039-.067-.078-.137-.119-.206s-.071-.155-.11-.224c-.078-.155-.155-.31-.219-.466-.144-.324-.268-.678-.391-1.043-.048-.189-.116-.373-.155-.565s-.1-.387-.138-.585l-.062-.3-.051-.3c-.04-.2-.059-.4-.082-.594s-.04-.427-.059-.641v-.147l-.02-.183c-.014-.121-.026-.242-.04-.363-.034-.241-.09-.466-.14-.7a4.272,4.272,0,0,0-.21-.661,7.331,7.331,0,0,0-.556-1.167c-.1-.175-.2-.345-.31-.5a4.558,4.558,0,0,0-.329-.439,7.426,7.426,0,0,0-.641-.7,6.817,6.817,0,0,0-.553-.477,3.818,3.818,0,0,0-.526-.357s.026.051.078.146S798.926,546.269,799.018,546.444Z" transform="translate(-674.757 -461.155)" fill="#779e7c"/>
    <path id="Path_136" data-name="Path 136" d="M823.216,518.68l.245.113c.082.037.164.076.248.11l.237.118a8.821,8.821,0,0,1,.889.506c.144.082.261.189.4.275a2.746,2.746,0,0,1,.354.292,2.787,2.787,0,0,1,.31.31l.144.155c.042.053.082.107.126.155a4.644,4.644,0,0,1,.416.621,5.329,5.329,0,0,1,.272.542c.07.155.121.286.155.376l.057.137s.011-.05.033-.144a2.679,2.679,0,0,0,.061-.416,3.586,3.586,0,0,0-.2-1.534c-.028-.078-.059-.155-.09-.237l-.115-.238a4.157,4.157,0,0,0-.283-.48c-.1-.155-.233-.31-.359-.466a5.883,5.883,0,0,0-.43-.428,4.9,4.9,0,0,0-.484-.391l-.256-.185c-.088-.056-.18-.109-.27-.155l-.273-.155c-.093-.048-.188-.095-.283-.141-.186-.095-.382-.182-.584-.262l-.3-.118-.281-.095c-.092-.033-.185-.062-.278-.092l-.278-.088c-.165-.061-.34-.1-.5-.163s-.32-.118-.466-.183-.3-.134-.441-.2a4.208,4.208,0,0,1-.405-.225,4.982,4.982,0,0,1-.692-.5c-.051-.045-.1-.085-.155-.129s-.09-.092-.133-.133c-.095-.084-.155-.18-.241-.262a3.894,3.894,0,0,1-.348-.483,3.84,3.84,0,0,1-.189-.352c-.039-.085-.057-.135-.057-.135a.777.777,0,0,0-.029.146,1.971,1.971,0,0,0-.019.427,2.946,2.946,0,0,0,.112.667,3.462,3.462,0,0,0,.36.816,4.19,4.19,0,0,0,.66.84c.13.141.286.253.436.386a5.186,5.186,0,0,0,.494.346,6.738,6.738,0,0,0,1.118.551l.27.109c.09.036.182.071.273.1l.276.1.245.1Z" transform="translate(-691.638 -434.215)" fill="#779e7c"/>
    <path id="Path_137" data-name="Path 137" d="M685.309,967.122s-1.793-1.493-1.642-2.614-1.046-2.988-1.718-1.9-.074,3.7-1.755,3.51-4.331-1.782-5.975-1.414-2.838.332-3.472-.34-2.794-1-2.875.34-.337,2.794-1.2,2.086-3.094-3.538-3.769-2.086,1.9,1.788,1.343,2.423-1.42.514-2.241-1.61-2.726-.706-1.83.452,3.323,2.091,3.772,3.435,2.794,2.539,4.967,0,7.842-1.791,9.821-.6c.65.393,1.3.882,1.942,1.333a3.149,3.149,0,0,0,.31,2.29c.88,1.232,4.2,7.617,1.776,7.617s-4.256-4.668-7.654-3.921-5.3,1.121-8.775-2.173-6.519-6.238-6.4-4.346,4.081,6.816,6.509,8.227,7.761.56,10.305,2.688,3.623,4.444,5.6,3.435,4.556-1.979,6.647-1.419,10.193-4.407,9.934-11.426c0,0,1.942-1.756,1.754-3.881,0,0,4.519-3.249,3.137-4.145s-1.793-.037-2.391,1.344a9.5,9.5,0,0,1-1.9,2.62s-.931,3.669-2.614,4.767c0,0-2.241,9.014-6.946,7.783s-3.809-2.73-5.3-3.811c-1.341-.972-.789-2.968-1.366-4.339a2.026,2.026,0,0,0,1.142-.141c1.756-.776,2.091-1.979,3.472-1.344s8.028,4.036,9.224-.355c0,0,.448-1.4-1.718-.5s-4.742-1.242-6.31-2.057S686.765,967.645,685.309,967.122Z" transform="translate(-557.499 -812.909)" fill="#779e7c"/>
    <path id="Path_138" data-name="Path 138" d="M815.264,1129.528a5.451,5.451,0,0,1-3.946,2.148c-2.5.087-5-3.114-5.569-1.447s1.36,2.69,3.64,3.077,4.779.213,5.7-1.147S815.961,1128.772,815.264,1129.528Z" transform="translate(-680.592 -954.06)" fill="#779e7c"/>
    <path id="Path_139" data-name="Path 139" d="M672.163,915.845c.947.824,4.944,1.936,6.1-.621s3.958-2.144,6.079-1.813,5.253-2.06,1.874-3.379-7.471,1.782-9.216,4.022-4.751.346-5.618-.807c0,0-1.552-1.277-1.622,0S671.215,915.02,672.163,915.845Z" transform="translate(-565.793 -768.506)" fill="#779e7c"/>
    <path id="Path_140" data-name="Path 140" d="M1308.688,372.4a.6.6,0,1,0,.832.228A.61.61,0,0,0,1308.688,372.4Zm.391.728a.233.233,0,1,1,.121-.328A.248.248,0,0,1,1309.079,373.132Z" transform="translate(-1105.304 -314.531)" fill="#779e7c"/>
    <path id="Path_141" data-name="Path 141" d="M1164.8,361.262h-.126c-8.405.466-11.2.107-12.107-.144-1.077-.295-2.288-.548-3.457-.793a30.419,30.419,0,0,1-4.118-1.038c-1.414-.546-2.367-.48-2.993.208a2.207,2.207,0,0,0-.621,0,1.053,1.053,0,0,0-.919.742.749.749,0,0,0,.067.584,2.7,2.7,0,0,0,1.4.948,1.273,1.273,0,0,0,.143.466h0a1.119,1.119,0,0,0,.509.486,38.359,38.359,0,0,0,6.389.621l1.138.04c1.576.057,3.538.129,5.015.144,1.835.02,4.983-.121,5.012-.123.2,0,4.812-.076,5.8-.776.543-.385.48-.709.394-.868A1.8,1.8,0,0,0,1164.8,361.262Zm1.009,1.233c-.941.667-5.655.742-5.706.742s-3.174.143-5,.123c-1.476-.016-3.435-.087-5.011-.144l-1.138-.04a39.827,39.827,0,0,1-6.316-.61.945.945,0,0,1-.428-.41h0a1.078,1.078,0,0,1-.126-.439v-.068l-.062-.02a2.72,2.72,0,0,1-1.343-.88.568.568,0,0,1-.051-.447c.237-.815,1.341-.621,1.388-.613l.051.009.034-.039c.359-.414,1.04-.885,2.825-.2a30.6,30.6,0,0,0,4.146,1.048c1.167.244,2.373.5,3.446.79,2.159.591,8.553.348,12.171.155h.126a1.534,1.534,0,0,1,1.338.416c.126.231-.116.478-.34.633Z" transform="translate(-963.408 -303.209)" fill="#779e7c"/>
  </g>
</svg>
