<svg xmlns="http://www.w3.org/2000/svg" width="886.253" height="942.245" viewBox="0 0 886.253 942.245">
  <g id="katman_2" data-name="katman 2" transform="matrix(-0.588, 0.809, -0.809, -0.588, 886.253, 310.34)">
    <g id="katman_2-2" data-name="katman 2" transform="translate(0.001 -0.001)">
      <path id="Path_1" data-name="Path 1" d="M770.877,20.708c-22.653-37.062-79.144-17.465-144.554,5.219C576.86,43.077,525.735,60.807,481.8,57c-58.54-5.111-113.924,3.617-164.647,25.917-45.4,19.808-88.736,51.775-128.436,94.744-15.2,16.511-33.56,32.777-53,50C82.846,274.483,22.926,327.546,3.912,406.939-3,435.794-.743,460.768,10.606,481.171,24.317,505.8,51.7,522.45,85.725,526.843a139.874,139.874,0,0,0,17.935,1.14c26.684,0,53.612-7.4,74.585-20.885,105.062-67.569,187.612-91.53,283.2-119.276,17.856-5.179,36.336-10.536,55.208-16.285,54.839-16.708,117.91-57.289,168.718-108.661,56.587-57.21,90.272-119.492,94.865-175.375C782.737,57,779.682,35.106,770.877,20.708ZM684.795,261.186C634.1,312.44,571.172,352.972,516.458,369.6c-18.889,5.75-37.352,11.106-55.2,16.285C365.63,413.641,283.017,437.622,177.847,505.25,127.062,537.92,41.5,533.851,11.424,479.805.415,460.021-1.76,435.755,4.963,407.685c18.849-78.714,78.576-131.61,131.3-178.275,19.462-17.239,37.846-33.524,53.084-50.075,74.477-80.936,161.927-121.8,260.341-121.8q15.829,0,32.061,1.415,6.177.531,12.525.521c41.082,0,87.376-16.05,132.285-31.617,65.1-22.6,121.328-42.075,143.555-5.71,8.516,13.927,11.463,35.215,9.01,65.083C774.567,142.51,741.076,204.28,684.795,261.186Z" transform="translate(-0.001 0.001)" fill="#779d7d"/>
      <path id="Path_2" data-name="Path 2" d="M717.12,17.014c-32.146,3.95-72.706,20.482-108.491,35.063-30.091,12.246-58.478,23.812-77.974,26.534-24.163,3.361-49.218,4.468-73.45,5.524-68.13,3.046-132.529,5.829-179.476,55.027-31.919,33.449-60.59,55.971-88.313,77.753-42.808,33.652-83.243,65.364-131.8,133.166-16.465,22.98-27.553,45.1-32.929,65.74-5.076,19.375-5.11,37.125-.131,52.742,9.652,30.149,37.261,49.371,75.828,52.8q5.87.518,11.923.508c36.535,0,77.1-14.023,113.129-39.409,64.587-45.5,129.4-65.842,198.019-87.328,62.248-19.669,126.665-39.877,194.675-80.6C696.028,267.941,735.822,210.6,755.483,170.7c24.277-49.249,28.626-92.06,24.981-113.73C775.161,25.483,754.466,12.4,717.12,17.014Zm36.659,151.068C734.3,207.6,694.83,264.437,617.412,310.752c-67.852,40.618-132.183,60.775-194.4,80.291-68.737,21.568-133.659,41.938-198.462,87.592-39.7,27.976-84.929,42.06-124.087,38.587C63.251,513.963,35.6,495,26.5,466.522c-4.6-14.409-4.542-30.9.216-49.016,5.252-20.055,16.118-41.633,32.3-64.257,48.332-67.456,88.642-99.128,131.314-132.648,27.786-21.822,56.514-44.4,88.569-77.966C325.317,93.964,389.4,91.141,457.256,88.166c24.266-1.015,49.354-2.163,73.574-5.534,19.689-2.742,48.162-14.348,78.3-26.625,35.706-14.551,76.175-31.042,108.145-34.931a112.191,112.191,0,0,1,13.586-.883c27.57,0,43.149,12.51,47.418,37.988,3.758,22.3-2.362,64.948-24.5,109.871Z" transform="translate(-9.015 -6.965)" fill="#779d7d"/>
      <path id="Path_3" data-name="Path 3" d="M774.98,47.182C759.208,20.491,714.032,37.472,651.5,60.975c-63.866,24.008-143.334,53.9-225.078,50.131-93.111-4.271-145.179,53.656-187.016,100.242-10.889,12.12-21.177,23.567-31.181,32.72-6.665,6.092-14.631,13.119-23.062,20.568-30.238,26.691-67.874,59.968-97.653,94.855-35.643,41.757-50.95,75.423-46.805,102.946,2.515,16.739,8.431,29.868,17.6,39.032,10.906,10.994,26.741,16.507,47.3,16.507q29.475,0,71.758-15.055c50.087-17.885,103.847-48.08,139.933-69.258,35.887-21.042,86.542-39.306,140.166-58.632,76.606-27.6,155.818-56.128,208.363-97.633,70.452-55.644,111.789-141.63,114.912-194.276C781.7,67.1,779.795,55.346,774.98,47.182Zm4.071,35.581c-3.066,51.762-44.023,136.549-113.884,191.72-52.38,41.368-131.507,69.879-208.023,97.443-53.675,19.337-104.375,37.6-140.353,58.727s-89.75,51.341-139.745,69.163c-57.212,20.4-96.909,19.989-117.984-1.115-8.721-8.753-14.353-21.231-16.771-37.117-8.948-59.442,86.536-143.735,143.583-194.1,8.437-7.449,16.408-14.487,23.085-20.589,10.066-9.206,20.382-20.684,31.306-32.846,40.191-44.724,89.857-100.01,176.507-100.01q4.718,0,9.589.221c4.741.221,9.459.326,14.194.326,76.884,0,151.021-27.87,211.276-50.5,62.032-23.314,106.856-40.168,121.992-14.55,4.411,7.417,6.115,18.3,5.229,33.225Z" transform="translate(-17.31 -14.524)" fill="#779d7d"/>
      <path id="Path_4" data-name="Path 4" d="M774.812,56.267c-15.113-25.329-71.054,1.982-130.287,30.9-35.66,17.413-72.535,35.422-101.706,42.428-33.088,7.949-62.526,9.984-88.495,11.782-35.91,2.48-66.926,4.624-99.14,20.3-56.911,27.69-124.365,96.292-183.876,156.815-15.755,16.016-31.266,29.769-44.949,41.9-21.4,18.972-39.89,35.357-51.665,53.484-12.911,19.785-16.9,40.641-12.564,65.581,1.629,9.389,5.587,17.034,11.764,22.741,9.22,8.512,23.732,12.789,42.541,12.789,16.538,0,36.4-3.3,58.892-9.93,41.707-12.28,88.177-34.588,124.337-59.69,43.575-30.321,107.832-55.932,175.865-83.1,56.775-22.654,115.44-46.088,163.313-73.085,47.77-26.943,80.143-65.743,98.885-93.552C761.1,160.972,776.487,123.872,779.95,93.9,781.761,77.968,780,64.952,774.812,56.267Zm3.974,37.165c-3.406,29.5-18.645,66.122-41.809,100.493-18.668,27.69-50.9,66.328-98.51,93.129-47.8,27.018-106.475,50.441-163.2,73.1C407.2,387.331,342.9,413,299.267,443.328,231,490.759,112.432,535.375,74.439,500.245c-5.893-5.415-9.652-12.659-11.185-21.474-4.213-24.3-.46-43.792,12.178-63.209,11.7-17.965,30.119-34.3,51.455-53.214,13.7-12.139,29.228-25.9,45.011-41.952,59.455-60.458,126.84-129,183.615-156.631,32.1-15.615,63.054-17.76,98.9-20.229,25.991-1.8,55.458-3.833,88.6-11.793,29.239-7.028,66.154-25.047,101.848-42.482,42.8-20.889,83.873-40.944,108.769-40.944,9.385,0,16.465,2.848,20.484,9.573,4.8,8.133,6.444,20.423,4.7,35.541Z" transform="translate(-26.13 -19.992)" fill="#779d7d"/>
    </g>
  </g>
</svg>
