<svg xmlns="http://www.w3.org/2000/svg" width="84.833" height="123.243" viewBox="0 0 84.833 123.243">
  <g id="katman_2" data-name="katman 2" transform="translate(0.022 0.002)">
    <g id="katman_1" data-name="katman 1" transform="translate(-0.022 -0.002)">
      <path id="Path_151" data-name="Path 151" d="M47.481,25.821c10.251.682,14.592,1.794,16.225,2.87,5.91-8.171,3.049-15.346-.493-19.732C60.629,3.587,52.01-1.121,45.848.233,27.588,4.3,25.525,11.076,25.794,15.014A16.1,16.1,0,0,0,24,16.807C26.44,20.135,32.565,24.835,47.481,25.821Z" transform="translate(-2.455 0.002)" fill="#779f7d"/>
      <path id="Path_152" data-name="Path 152" d="M83.274,58.815a41.113,41.113,0,0,1-3.588-9.48c2.224-11.462-19.337-14.3-19.337-14.3s-11.3-5.381-19.337-4.305c-6.727.9-15.471,3.094-20.844,1.794.448,1.04.969,2.17,1.507,3.417C5.3,42.348,3.738,50.349,2.957,55.407.984,57.739.267,58.6,0,69.685c-.35,14.009,3.964,18.673,7.659,22.628-.368,3.937-.619,7.265,4.8,17.938,5.381,10.574-5.381,16-5.659,16.144,12.2-4.126,7.731-14.216,5.211-19.005S8.473,94.933,9.065,94.009c1.794,2.162,3.363,8.162,4.117,12.556,1.309-2.547,1.937-14.727,1.6-20.279s-.843-8.664.341-13.373c.78-3.121,4.179-5.13,7.516-6.018-1.166-.789-4.1-3.588-4.834-12.287a.316.316,0,0,1,.628-.072,28.969,28.969,0,0,0,4.484,12.3,13.113,13.113,0,0,1,4.431-.395c2.224.242,2.556.673,5.13,1.031-1.489-1.543-5.381-9.785-3.588-25.05a.314.314,0,0,1,.619,0c.834,6.61.6,20.987,3.426,25.113h0a100.008,100.008,0,0,0,10.673.511c2.368,0,4.251,0,5.794-.161h0c1.247-2.09,4.323-19.732,4.8-19.669S54.385,64.448,50.25,67.8c6-.61,6.278-2.117,11.014-1.552.9-.978,3.507-4.484,4.368-13.758a.314.314,0,0,1,.628,0c-.054,5.686-.978,11.956-4.655,13.758.556.072,1.166.179,1.857.3C69.794,69.3,71,73.919,70.95,79.112c0,2.188-.592,2.879-.592,6.144,0,11.023.5,17.5,2.269,20.1-.287-5.381,2.78-10.852,4.036-12.861.422.413.592,5.462-4.206,17.328s1.794,14.888,6.395,16.485c-13.713-7.57-4.287-17.328-2.188-23.472s1.866-9.085,1.121-11.175c1.48-.987,2.96-3.211,5.058-7.893s.368-7.875,1.471-11.821S84.511,60.9,83.274,58.815Z" transform="translate(0.022 -3.153)" fill="#779f7d"/>
    </g>
  </g>
</svg>
